<?xml version="1.0" encoding="utf-8"?>
<!-- Generator: Adobe Illustrator 24.1.0, SVG Export Plug-In . SVG Version: 6.00 Build 0)  -->
<svg version="1.1" id="f5754dbe-bb36-43e2-9e63-0bb9c441defe"
	 xmlns="http://www.w3.org/2000/svg" xmlns:xlink="http://www.w3.org/1999/xlink" x="0px" y="0px" viewBox="0 0 1184.1 743.5"
	 style="enable-background:new 0 0 1184.1 743.5;" xml:space="preserve">
<style type="text/css">
	.st0{fill:#3F3D56;}
	.st1{opacity:0.2;enable-background:new    ;}
	.st2{fill:#CBCEDA;}
	.st3{fill:#6C63FF;}
	.st4{opacity:0.2;fill:#6C63FF;enable-background:new    ;}
	.st5{fill:#A0616A;}
	.st6{opacity:0.1;enable-background:new    ;}
	.st7{fill:#F2F2F2;}
	.st8{fill:#3C354C;}
	.st9{fill:#FFC1C7;}
	.st10{fill:#656380;}
	.st11{fill:#8CB11E;stroke:#000000;stroke-width:4;stroke-miterlimit:10;}
	.st12{fill:none;stroke:#000000;stroke-width:0.5;stroke-miterlimit:10;}
	.st13{fill:none;stroke:#000000;stroke-width:4;stroke-miterlimit:10;}
	.st14{font-family:'BebasNeue-Regular';}
	.st15{font-size:55px;}
	.st16{letter-spacing:2.2;}
	.st17{letter-spacing:9.9;}
	.st18{fill:#8CB11E;}
	.st19{opacity:0.5;}
	.st20{fill:url(#SVGID_1_);}
	.st21{fill:#FFFFFF;}
	.st22{fill:url(#SVGID_2_);}
	.st23{fill:url(#SVGID_3_);}
	.st24{fill:url(#SVGID_4_);}
	.st25{fill:url(#SVGID_5_);}
	.st26{fill:#69F0AE;}
	.st27{fill:#E0E0E0;}
	.st28{fill:url(#SVGID_6_);}
	.st29{fill:url(#SVGID_7_);}
	.st30{fill:#BE7C5E;}
	.st31{fill:#FDA57D;}
	.st32{fill:#333333;}
	.st33{fill:#4D8AF0;}
</style>
<g>
	<ellipse class="st0" cx="584.3" cy="716" rx="514" ry="27.5"/>
	<ellipse class="st1" cx="583.3" cy="707.5" rx="460" ry="22"/>
	<path class="st0" d="M1021.3,173.2v528.5c0,4-3.2,7.2-7.2,7.2c0,0,0,0,0,0H154.5c-4,0-7.2-3.2-7.2-7.2c0,0,0,0,0,0V173.2
		c0-4,3.2-7.2,7.2-7.2c0,0,0,0,0,0H1014C1018,166,1021.3,169.2,1021.3,173.2C1021.3,173.2,1021.3,173.2,1021.3,173.2z"/>
	<path class="st2" d="M1021.3,170.8V187h-874v-16.2c0-2.7,2.2-4.8,4.8-4.8h864.4C1019.1,166,1021.3,168.2,1021.3,170.8
		C1021.3,170.8,1021.3,170.8,1021.3,170.8z"/>
	<circle class="st3" cx="163.3" cy="176" r="5"/>
	<circle class="st3" cx="177.3" cy="176" r="5"/>
	<circle class="st3" cx="191.3" cy="176" r="5"/>
	<rect x="451.3" y="239.5" class="st4" width="266" height="14"/>
	<rect x="230.3" y="381.5" class="st4" width="205" height="240"/>
	<rect x="481.3" y="381.5" class="st4" width="205" height="240"/>
	<rect x="732.3" y="381.5" class="st4" width="205" height="240"/>
	<path class="st5" d="M323.6,503.5c-0.6,3.6-4.2,5.9-7.5,7.3s-7.1,2.6-9.3,5.5c-2.9,4-1.7,9.7,1,13.9c3,4.8,7.7,8.3,12.2,11.7
		c2,1.7,4.2,3,6.6,3.8c1.8,0.5,3.7,0.7,5.6,0.6c6.1,0,12.2-0.5,18.2-1.6c7.7-1.4,15.9-4.2,20-10.9c3.3-5.5,3.1-12.3,2.8-18.7
		c-3.6-0.3-6.9-2.3-9.9-4.2c-3.6-2.3-7.6-4.9-8.8-9c-1.2-4.3,0.7-9.6-2.2-13c-2-2.3-5.4-2.5-8.4-2.6c-4.1-0.1-8.2-0.2-12.3-0.2
		c-2.8,0-9.1-1.2-11.4,0.7C315.8,490.2,324.4,498.9,323.6,503.5z"/>
	<path class="st6" d="M323.6,503.5c-0.6,3.6-4.2,5.9-7.5,7.3s-7.1,2.6-9.3,5.5c-2.9,4-1.7,9.7,1,13.9c3,4.8,7.7,8.3,12.2,11.7
		c2,1.7,4.2,3,6.6,3.8c1.8,0.5,3.7,0.7,5.6,0.6c6.1,0,12.2-0.5,18.2-1.6c7.7-1.4,15.9-4.2,20-10.9c3.3-5.5,3.1-12.3,2.8-18.7
		c-3.6-0.3-6.9-2.3-9.9-4.2c-3.6-2.3-7.6-4.9-8.8-9c-1.2-4.3,0.7-9.6-2.2-13c-2-2.3-5.4-2.5-8.4-2.6c-4.1-0.1-8.2-0.2-12.3-0.2
		c-2.8,0-9.1-1.2-11.4,0.7C315.8,490.2,324.4,498.9,323.6,503.5z"/>
	<circle class="st5" cx="337.6" cy="472.1" r="29.3"/>
	<path class="st7" d="M398.9,543.3c-0.2,1.8-0.8,3.5-1.6,5c-0.3,0.4-0.6,0.8-0.9,1.2c-1.6,1.8-4,3-6.1,4.3
		c-6,3.7-12.7,8.4-13.9,15.3c-0.4,2.2-0.9,4.3-1.5,6.4c-1.4,4.8-3.2,9.4-4.3,14.2c-0.7,2.8-1,5.6-0.9,8.4c0,0.9,0.1,1.8,0.2,2.7
		c1,6.7,4.4,12.8,8.5,18.5c0.4,0.6,0.9,1.2,1.3,1.8l0.3,0.4h-95.7c0.2-0.6,0.3-1.2,0.5-1.8c0-0.1,0-0.2,0.1-0.3
		c1-3.8,1.8-7.6,2.4-11.5c0.5-3.4,0.8-6.9,0.9-10.4c0-3,0.7-6.3,3.2-8c0.2-0.6,0.3-1.2,0.5-1.8c2.2-9.1,2.2-18.6-0.1-27.6
		c-0.1-0.6-0.3-1.1-0.5-1.7c-0.1-0.2-0.1-0.5-0.2-0.8c-0.8-2.7-1.6-5.4-2.1-8.1c-0.6-3.3-0.7-6.8-2.5-9.6s-4.8-4.5-7.5-6.4
		c-1.3-0.9-2.5-2-3.5-3.2l0,0c-1.1-1.3-1.8-2.9-1.9-4.6c0-0.5,0-1,0.1-1.5c0.5-2.1,1.6-3.9,3-5.5c6.1-6.7,15.4-9.5,24.5-9.6l0,0
		c1.4,0,2.8,0,4.2,0.1c1.6,0,3.2,0.4,4.7,1.1c0.9,0.5,1.7,1.1,2.4,1.9c0.9,1.1,1.6,2.4,2,3.8c0.4,1.1,0.6,2.2,0.8,3.4
		c0.6,3.6,0.7,7.4,2.6,10.5c3.4,5.6,11.2,6.6,17.6,5.4c11.6-2.3,21.6-9.6,27.2-20c0.6-1.2,1.3-2.5,2-3.6c0.4-0.6,0.8-1.1,1.4-1.6
		c8.9,1.6,17.3,5.4,24.4,11c2.2,1.7,4.2,3.7,5.8,6C399,531.8,399.7,537.8,398.9,543.3z"/>
	<path class="st5" d="M401.9,603.7c-0.8,2.8-2,5.4-3.7,7.9c-1.1,2.1-2.5,3.9-4.2,5.4c-3.5,2.8-8.5,2.7-13,2.5h-0.4l-2.2-0.1
		l-12.9-0.8c-3.4-0.1-6.8-0.5-10.2-1.1c-0.9-0.2-1.8-0.4-2.7-0.6c-5-1.3-9.9-3.3-15.1-3.6c-1.5-0.1-3,0-4.5,0h-0.4c-1,0-2-0.1-3-0.2
		c-1.6-0.2-3.2-0.8-4.9-0.8c-4.3-0.2-8.1,2.3-11.7,4.7l-1,0.6c-2.6,1.7-5.4,3-8.3,4.1h-17.3c-0.3-0.2-0.6-0.5-0.8-0.8
		c-0.3-0.3-0.6-0.7-0.8-1.1c0-0.1-0.1-0.2-0.1-0.3c-1.1-2.4-1.1-5.3,0-7.7c0.6-1.4,1.5-2.7,2.5-3.8c1.1-1.2,2.4-2.4,3.7-3.4
		c6.7-5.6,14.5-10.4,23.1-12c0.6-0.1,1.2-0.2,1.8-0.3c4.3-0.5,8.7-0.6,13-0.4l4.1,0.1l17,0.3h0.5c6.9,0.1,14,0.2,20.2-2.5
		c0.8-0.4,1.6-0.7,2.3-1.2c0.6-0.3,1.2-0.8,1.6-1.4c0.4-0.8,0.6-1.7,0.5-2.6l-0.1-9l-0.1-17.3l0,0c0-4.3,0-8.5-0.1-12.8
		c-0.3-2.7,0.6-5.4,2.5-7.3c2.5-3.1,8.6-14.2,12.9-14.4c0.8,0,1.5,0.2,2.1,0.6l0,0c3.7,2.4,3.7,11.7,3.8,14.8
		c0.1,3.4,0.2,6.9,0.5,10.3c0.8,14.1,2.5,28.1,5,42C402,595.5,402.8,599.7,401.9,603.7z"/>
	<path class="st6" d="M401.9,603.7c-0.8,2.8-2,5.4-3.7,7.9c-1.1,2.1-2.5,3.9-4.2,5.4c-3.5,2.8-8.5,2.7-13,2.5h-0.4l-2.2-0.1
		l-12.9-0.8c-3.4-0.1-6.8-0.5-10.2-1.1c-0.9-0.2-1.8-0.4-2.7-0.6c-5-1.3-9.9-3.3-15.1-3.6c-1.5-0.1-3,0-4.5,0h-0.4c-1,0-2-0.1-3-0.2
		c-1.6-0.2-3.2-0.8-4.9-0.8c-4.3-0.2-8.1,2.3-11.7,4.7l-1,0.6c-2.6,1.7-5.4,3-8.3,4.1h-17.3c-0.3-0.2-0.6-0.5-0.8-0.8
		c-0.3-0.3-0.6-0.7-0.8-1.1c0-0.1-0.1-0.2-0.1-0.3c-1.1-2.4-1.1-5.3,0-7.7c0.6-1.4,1.5-2.7,2.5-3.8c1.1-1.2,2.4-2.4,3.7-3.4
		c6.7-5.6,14.5-10.4,23.1-12c0.6-0.1,1.2-0.2,1.8-0.3c4.3-0.5,8.7-0.6,13-0.4l4.1,0.1l17,0.3h0.5c6.9,0.1,14,0.2,20.2-2.5
		c0.8-0.4,1.6-0.7,2.3-1.2c0.6-0.3,1.2-0.8,1.6-1.4c0.4-0.8,0.6-1.7,0.5-2.6l-0.1-9l-0.1-17.3l0,0c0-4.3,0-8.5-0.1-12.8
		c-0.3-2.7,0.6-5.4,2.5-7.3c2.5-3.1,8.6-14.2,12.9-14.4c0.8,0,1.5,0.2,2.1,0.6l0,0c3.7,2.4,3.7,11.7,3.8,14.8
		c0.1,3.4,0.2,6.9,0.5,10.3c0.8,14.1,2.5,28.1,5,42C402,595.5,402.8,599.7,401.9,603.7z"/>
	<path class="st8" d="M318.3,425.6c-2.5,0.4-5.4,1.1-6.7,3.2c-1.1,1.7-1,3.8-1.4,5.8c-0.6,3.1-2.4,6-4.9,7.9
		c-2.1,1.5-4.6,2.4-6.8,3.9s-4.1,3.8-3.8,6.4c0.2,2.3,2.1,4,2.9,6.1c1.6,3.9-0.3,8.2-2,12.1s-3.3,8.4-1.4,12.1
		c2.1,3.9,7.5,5.4,9,9.5c1.9,5-3,10.3-2.4,15.7c0.5,4.4,4.9,7.5,9.2,8.2c2.1,0.3,4.4,0.1,6-1.3s2.1-3.7,2.2-5.8
		c0.3-8.1-4.4-15.6-5.7-23.7c-0.4-2.7-0.5-5.5,0.7-7.9c0.8-1.5,2-2.8,2.7-4.3c1.4-3.3-0.2-7.2,1.3-10.5c0.8-1.4,1.8-2.8,2.8-4
		c0.9-1.3,1.5-3.1,0.8-4.6c2.6,1.6,4.6,4,6,6.8c1.9-0.4,1.8-4.4,3.7-3.9c0.5,0.2,0.8,0.7,1.2,1.2c1.4,1.5,3.6,2.1,5.5,1.5
		c1.9-0.7,3.6-1.9,4.9-3.5l3.2,3.9c0.6-1.4,2-2.3,3.5-2.2c1.5,0.1,2.9,0.6,4.1,1.4c6,3.6,10.5,10.9,8.2,17.5c-1,2.8-3,5.1-4.3,7.8
		s-1.7,6.3,0.5,8.4c0.4,0.4,1,0.8,1.4,1.3c1.6,1.8,0.6,4.7,1,7c0.8,4.3,5.9,6,10.1,7c3,0.7,6.6,1.2,8.7-1c2.3-2.4,1.3-6.3-0.1-9.3
		s-3-6.5-1.5-9.5s5.9-4,7.4-7.1c2-3.9-1.5-8.2-2.9-12.4c-1.9-5.7,0.2-12.1-1.4-18c-1-3-2.5-5.7-4.4-8.1c-4.7-6.3-10.3-12-17.2-15.7
		c-6.6-3.4-13.2-4-20.4-3.1C331.3,425,324.8,424.6,318.3,425.6z"/>
	<path class="st7" d="M375.3,558.5c-0.6-0.3-1-0.9-1.1-1.6c-2.2-6.2-4.3-12.5-6.2-18.8c-0.4-1.1-0.6-2.3-0.5-3.5
		c0.5-1.5,1.4-2.8,2.7-3.7c3.3-2.7,7-4.9,10.9-6.4c2.9-1.1,7.1-3.1,10-1.3c3.6,2.3-0.2,8-1.5,11c-1.8,4.1-3.8,8.1-6,12
		C382.8,547.4,376.2,558.8,375.3,558.5z"/>
	<path class="st5" d="M381,619.4c-0.3,0.5-0.6,0.9-0.9,1.3c-0.1,0.1-0.2,0.3-0.4,0.4c-0.1,0.1-0.3,0.3-0.5,0.4h-17.4
		c-2.9-1.1-5.7-2.5-8.3-4.1l-1-0.6c-3.6-2.3-7.4-4.9-11.7-4.7c-1.7,0.1-3.3,0.6-4.9,0.8c-1,0.1-2,0.2-3,0.2h-0.4c-1.5,0-3-0.1-4.5,0
		c-5.2,0.3-10,2.3-15.1,3.6c-0.9,0.2-1.8,0.5-2.7,0.6c-3.4,0.6-6.8,1-10.2,1.1l-15.2,0.9h-0.4c-4.5,0.3-9.4,0.3-13-2.5
		c-1.7-1.5-3.2-3.4-4.2-5.4c-1.6-2.4-2.9-5.1-3.7-7.9c-1-4-0.2-8.2,0.6-12.2c3.1-17.3,4.9-34.8,5.4-52.3c0.1-3.1,0.1-12.4,3.8-14.8
		c0.4-0.3,0.9-0.5,1.4-0.5l0,0c0.2,0,0.5,0,0.7,0c4.3,0.2,10.4,11.2,12.9,14.4c1.9,1.9,2.8,4.6,2.5,7.3c0,4.1,0,8.2-0.1,12.3
		c0,0.2,0,0.4,0,0.6c0,8.8-0.1,17.5-0.2,26.3c-0.1,0.9,0.1,1.8,0.5,2.6c0.1,0.2,0.3,0.4,0.5,0.6c0.3,0.3,0.7,0.5,1.1,0.8
		c6.6,3.9,14.8,3.9,22.5,3.7h0.5l17-0.3l4.1-0.1c4.3-0.2,8.7-0.1,13,0.4c0.6,0.1,1.2,0.2,1.8,0.3c6.6,1.4,12.9,4.2,18.3,8.3
		c1.7,1.2,3.3,2.4,4.9,3.7c2.5,2,4.9,4.3,6.2,7.2C382.1,614.2,382.1,617,381,619.4z"/>
	<path class="st7" d="M291.3,558.5c0.6-0.3,1-0.9,1.1-1.6c2.2-6.2,4.3-12.5,6.2-18.8c0.4-1.1,0.6-2.3,0.5-3.5
		c-0.5-1.5-1.4-2.8-2.7-3.7c-3.3-2.7-7-4.9-10.9-6.4c-2.9-1.1-7.1-3.1-10-1.3c-3.6,2.3,0.2,8,1.5,11c1.8,4.1,3.8,8.1,6,12
		C283.8,547.4,290.4,558.8,291.3,558.5z"/>
	<path class="st8" d="M832.4,445c6-1.5,10.6,8.4,16.6,7.2c3.3-0.6,5.8-4.5,9.2-4.2c3.8,0.3,5.4,5.5,7.3,9.3
		c3.4,6.6,10.2,10.5,16.7,9.7c2.1-2.7,1.7-6.9,0.6-10.3s-2.7-6.7-2.7-10.3c0-4.8,2.6-10.1,0.2-14c-1.8-3-5.6-3.2-8.3-5.1
		c-2.2-1.4-3.7-3.9-5.5-5.8c-2.9-3.2-6.8-5.3-11.1-5.9c-3.5-0.4-7.1,0.4-10.6,1.1l-16.4,3.5c-1,0.1-1.8,0.5-2.5,1.2
		c-0.7,1-1.1,2.2-1.3,3.4c-1.5,5.1-6.4,7.5-10.4,10.3s-7.7,8.4-5.5,13.2c1.2,2.7,4.2,4.3,4.5,7.4c0.3,2.7-1.7,4.9-3.3,6.9
		c-6.8,8.5,8.4,12.9,12,7.1C825.9,463.3,823.9,447.1,832.4,445z"/>
	<path class="st5" d="M823.7,498.2c-1.4,1.8-3.3,3.4-4.4,5.4c-1.4,2.9-1.7,6.3-0.7,9.4c1,3,2.5,5.9,4.3,8.6c2.1,3.6,4.6,7,7.5,10
		c2.9,3,6.8,5,11,5.5c4.5,0.3,8.8-1.5,12.8-3.4c1.7-0.7,3.3-1.7,4.6-3c1-1.2,1.7-2.6,2.2-4.1l3.5-8.3c1-2,1.6-4.2,2-6.4
		c0.4-3.5-0.8-6.9-2-10.1l-6.3-17.5c-0.3-1-0.8-1.9-1.5-2.7c-0.7-0.5-1.5-0.8-2.3-1c-4-1-8.1-1.7-12.3-2c-3.1-0.2-10.1-1.3-12.8,0.4
		c-2.5,1.6-1.4,5.7-1.7,8.4C827.3,491.3,826,495,823.7,498.2z"/>
	<path class="st6" d="M823.7,498.2c-1.4,1.8-3.3,3.4-4.4,5.4c-1.4,2.9-1.7,6.3-0.7,9.4c1,3,2.5,5.9,4.3,8.6c2.1,3.6,4.6,7,7.5,10
		c2.9,3,6.8,5,11,5.5c4.5,0.3,8.8-1.5,12.8-3.4c1.7-0.7,3.3-1.7,4.6-3c1-1.2,1.7-2.6,2.2-4.1l3.5-8.3c1-2,1.6-4.2,2-6.4
		c0.4-3.5-0.8-6.9-2-10.1l-6.3-17.5c-0.3-1-0.8-1.9-1.5-2.7c-0.7-0.5-1.5-0.8-2.3-1c-4-1-8.1-1.7-12.3-2c-3.1-0.2-10.1-1.3-12.8,0.4
		c-2.5,1.6-1.4,5.7-1.7,8.4C827.3,491.3,826,495,823.7,498.2z"/>
	<circle class="st5" cx="844.5" cy="466.4" r="27.7"/>
	<path class="st8" d="M905.9,535.5c0.1,7.6-2.9,15-5.9,22s-6.9,13.9-9.8,21.1c-0.2,0.6-0.5,1.2-0.7,1.8
		c-5.1,13.2-9.6,26.5-13.5,40.1l-0.3,1h-85.9c3.9-15,7.3-30-2.1-40.3c-0.3-0.3-0.6-0.7-0.9-1c-6.2-7.4-8.9-17.5-16.2-23.8
		c-1.7-1.5-3.6-2.7-4.7-4.7c-0.6-1.2-0.9-2.5-0.9-3.9c0-1.2,0.1-2.4,0.2-3.6c0.7-6.5,1.7-13.3,5.6-18.6c1.8-2.3,3.9-4.3,6.3-5.9
		c5.3-3.8,11.4-6.4,17.7-7.9c7.2-1.6,15.1-1.9,20.9-6.3c1.2-1.1,2.6-2.1,4-3l0.4-0.2c1.4-0.7,3.1-0.5,4.3,0.5c0.8,0.8,1.3,1.9,1.4,3
		c1.1,3.9,2.1,7.8,3.2,11.6c0.4,1.9,1.2,3.7,2.4,5.2c2.8,2.9,8.2,2.6,10.4,6c1.3,2.1,4.8-0.3,6.3-2.3c3.7-4.6,6.8-9.6,9.5-14.9
		c0.9-2.1,2.1-4.1,3.5-5.8c1-1.1,2.4-2,3.9-2.3c0.7-0.2,1.5-0.2,2.2-0.1c2.2,0.4,3.7,2.2,5.2,3.9c8.8,9.8,19.2,18.1,30.7,24.5
		c0.9,0.4,1.7,1,2.2,1.9c0.2,0.5,0.4,1.1,0.4,1.6C905.9,535.2,905.9,535.4,905.9,535.5z"/>
	<path class="st8" d="M835.4,443.6c4.6-1,8.2,5.7,12.9,4.9c2.6-0.4,4.5-3,7.1-2.8c3,0.2,4.2,3.7,5.7,6.2c2.7,4.5,7.8,7,13,6.5
		c1.6-1.8,1.3-4.6,0.5-6.9s-2.1-4.5-2.1-6.9c0-3.2,2-6.8,0.2-9.4c-1.4-2-4.3-2.2-6.5-3.4c-1.7-1-2.8-2.6-4.2-3.9
		c-2.4-2.2-5.4-3.6-8.7-3.9c-2.8-0.1-5.5,0.1-8.2,0.8l-12.7,2.4c-0.7,0.1-1.4,0.3-2,0.8c-0.5,0.7-0.8,1.4-1,2.2
		c-1.2,3.4-5,5-8.1,6.9s-6,5.7-4.3,8.8c1,1.8,3.2,2.9,3.5,5c0.2,1.8-1.3,3.3-2.5,4.6c-5.2,5.7,6.5,8.6,9.3,4.8
		C830.3,455.9,828.8,445,835.4,443.6z"/>
	<path class="st8" d="M918.9,621.5h-23.4c0.4-9.6-3.5-19.3-4-29.1c-0.2-3.7,0.1-7.4-0.6-11c-0.2-0.9-0.4-1.9-0.8-2.8
		c-0.6-1.8-1.3-3.7-1.9-5.5c-1.9-6.2-1.8-12.8-1.7-19.3c0.1-7.2,0.2-14.3,0.3-21.4c0-1.9-0.5-4.6,1.1-5.4c3.8-1.8,7.8,1.7,11.3,4
		c2.1,1.4,4.5,2.5,6.5,4c1.2,0.8,2.3,1.9,3.1,3.1c1,1.7,1.7,3.5,2.1,5.4c2.8,10.8,5.3,21.7,7.4,32.7c1,4.8,1.7,9.6,2,14.5
		C921,601,918.9,611.3,918.9,621.5z"/>
	<path class="st8" d="M773.6,610.4c-1,2.4-2.1,5-1.9,7.7c0.1,1.2,0.4,2.4,0.8,3.5h-21.2c-1.1-3.6-1.9-7.3-2.4-11
		c-1-7.2-0.5-14.6,0.5-21.9c0.6-5.6,1.9-11.2,3.7-16.6c2.5-6.9,6.3-13.1,9.7-19.6c0.8-1.5,1.5-3.2,2.3-4.7c1.8-3.3,4.1-5.7,8.7-3.5
		c11.4,5.5,16.3,24.7,13.1,35.9c0,0,0,0.1,0,0.1c-0.9,2.8-2,5.6-3.4,8.3C780,595.7,776.7,603,773.6,610.4z"/>
	<path class="st0" d="M588,431c2.3,0.8,4.2,2.4,5.3,4.5c0.9,1.9,0.9,4.1,1.5,6.1c1.3,4.2,5.2,7,7.7,10.7c3.3,5,3.7,11.4,3.5,17.4
		s-1,12.1,0.5,18c0.7,2.8,1.9,5.5,2.4,8.4c0.6,3.5,0.1,7.2,1,10.6c0.8,3.1,2.6,5.9,4.5,8.5l7.8,11.4c-3.5-0.8-6.9-1.9-10.3-3.1
		c1,3.3,3,6.2,5.5,8.4l-5.6-6.8c-1.1-1.6-2.6-2.9-4.2-4c-2.1-1.2-4.5-1.3-6.8-1.8c-4.5-0.9-8.9-3.2-11.1-7.2c-2.9-5.3-1-12-2.7-17.9
		c-1.2-4.3-4.1-7.8-6.2-11.8c-4.6-8.9-4.3-19.5-5.8-29.4c-0.6-4.2-1.6-8.4-1.6-12.7c0-3.2,0.3-9.1,3.6-10.7
		C580,428.2,585.3,429.9,588,431z"/>
	<path class="st9" d="M591.4,502.5c0.5,5.2,1.6,11.4,6.3,13.6c2.7,1.2,5.8,0.8,8.7,1.3c5.5,0.9,10,5.1,12.6,10.1s3.4,10.6,4,16.2
		c0.8,7,1,14.5-2.8,20.4c-3.1,4.8-8.4,7.6-13.9,9.1c-11.1,2.9-23,0.7-32.4-6c-4.5-3.3-8.3-7.5-11.9-11.8
		c-7.9-9.2-15.9-19.3-17.5-31.4c-0.2-1.4-0.2-3,1-3.8c0.8-0.4,1.7-0.6,2.5-0.5l7.6,0.1c1.9,0,4.1,0,5.4-1.5s1.2-3.3,1.2-5
		c-0.2-7.3-0.4-14.7-0.6-22c-0.1-0.8,0.1-1.6,0.5-2.2c0.5-0.4,1.1-0.7,1.8-0.8c4.2-0.7,8.6,0,12.7-1.1c3.9-1.1,10-5.5,12.9-1
		C591.9,490,591,498.1,591.4,502.5z"/>
	<path class="st6" d="M591.4,502.5c0.5,5.2,1.6,11.4,6.3,13.6c2.7,1.2,5.8,0.8,8.7,1.3c5.5,0.9,10,5.1,12.6,10.1s3.4,10.6,4,16.2
		c0.8,7,1,14.5-2.8,20.4c-3.1,4.8-8.4,7.6-13.9,9.1c-11.1,2.9-23,0.7-32.4-6c-4.5-3.3-8.3-7.5-11.9-11.8
		c-7.9-9.2-15.9-19.3-17.5-31.4c-0.2-1.4-0.2-3,1-3.8c0.8-0.4,1.7-0.6,2.5-0.5l7.6,0.1c1.9,0,4.1,0,5.4-1.5s1.2-3.3,1.2-5
		c-0.2-7.3-0.4-14.7-0.6-22c-0.1-0.8,0.1-1.6,0.5-2.2c0.5-0.4,1.1-0.7,1.8-0.8c4.2-0.7,8.6,0,12.7-1.1c3.9-1.1,10-5.5,12.9-1
		C591.9,490,591,498.1,591.4,502.5z"/>
	<circle class="st9" cx="572.3" cy="472" r="29"/>
	<path class="st3" d="M636.9,596.4c-0.2,1.2-0.5,2.4-0.8,3.5c-0.9,2.7-2,5.3-3.2,7.9c-0.5,1.1-0.9,2.1-1.3,3.2
		c-0.3,0.9-0.5,1.7-0.8,2.6s-0.5,2.1-0.7,3.1c-0.3,1.5-0.5,3.1-0.6,4.7h-75.8c0.3-3.8,0.2-7.7-0.4-11.5c-1-5.2-2.6-10.3-4.7-15.2
		c-4.8-12.4-10.2-25-13.2-37.9c0,0,0,0,0,0c-2.1-8.4-2.7-17.1-1.8-25.6c0.1-0.5,0.1-1,0.2-1.5c0.2-1.3,0.4-2.6,0.7-3.9
		c0.7-3.6,2.4-7,4.8-9.8c3.4-3.7,9.2-5.5,13.6-3.1c2.7,1.4,4.3,3.9,5.6,6.7c0.8,1.8,1.5,3.6,2.3,5.4c2.7,6.4,6.6,12.2,11.5,17.2
		c0.9,1,1.9,1.9,2.9,2.8s1.9,1.6,2.9,2.4c3.2,2.5,7.1,5.6,11.3,5.7c2.4,0.1,4.9,0,7.4,0c2.2,0,4.4-0.1,6.6,0
		c4.7,0.1,10-1.2,12.3-5.3c1.5-2.8,1.3-6.2,1-9.4c-0.2-2.5-0.5-5-0.7-7.5c0-0.1,0-0.3,0-0.4c-0.2-1.8-0.3-3.6-0.5-5.4l0,0
		c-0.1-0.9-0.2-1.8-0.2-2.6l0,0l-0.2-1.9c0.8-0.1,1.7-0.2,2.5-0.2c3.8-0.3,7.7-0.2,10.9,1.6c3.1,1.8,5,4.8,6.2,8.2
		c0.8,2.4,1.3,4.9,1.6,7.5c1.1,11.3-0.7,22.8-0.1,34.2C636.6,579.8,638.4,588.3,636.9,596.4z"/>
	<path class="st9" d="M654.2,621.5h-22.9c-0.2-2.6-0.3-5.2-0.4-7.8c-0.1-1.8-0.1-3.6-0.2-5.4c-0.1-4.9-0.1-9.7,0.1-14.5
		c4.5,2.6,9.6,4,14.8,4.2c2.1,2.3,3.8,5,5,7.9c0.7,1.6,1.3,3.2,1.7,4.9c0,0,0,0,0,0.1C653.2,614.4,653.9,617.9,654.2,621.5z"/>
	<path class="st3" d="M652.2,605.9c-8.7,0.1-17.3,1.2-25.7,3.4c-1.1-5.5-0.6-11.1,0-16.7l3.7-38.2c0.3-2.8-0.2-28.8,5.2-24.2
		c2,1.7,4.6,16.9,5.2,19.3c1,3.7,1.7,7.4,2.4,11.2c1.4,7.7,2.3,15.4,3.6,23.1C647,586,650.3,605.9,652.2,605.9z"/>
	<path class="st0" d="M583.3,435.1c0-0.9-0.2-1.8-0.6-2.6c-0.8-1-1.9-1.6-3.1-1.6c-4.2-0.6-8.8,1-12.6-0.9c-2-1-3.5-3-5.5-4.1
		c-4.7-2.7-10.7,0-14.9,3.5c-6.7,5.5-11.5,12.9-13.9,21.2c-1.9,6.4-2.6,13.9-7.9,18c-2.2,1.7-5,2.6-6.7,4.8c-1.2,1.7-1.5,3.9-1.8,6
		c-0.5,4.9-1,9.9,0.3,14.6c1,3.5,2.8,6.7,4,10.2c3.2,10,0.4,21-7.4,28.2c1.9,1.2,4.3,1.6,6.5,1.1c0,1-0.4,2-0.9,2.9
		c6.8-0.2,12.7-6.8,19.4-5.4c5.1,1.1,7.9,6.3,11.7,9.9c4.9,4.6,12.5,6.5,18.6,3.8s9.8-10.5,7.2-16.6c-3-7-12.1-9.8-15.3-16.8
		c-2.5-5.4-0.6-11.7-1.2-17.6c-0.5-5.1-2.6-9.8-4-14.7s-1.8-10.5,1-14.7c2.9-4.5,8.6-6.3,13.7-8
		C581.6,452.6,583.8,446.8,583.3,435.1z"/>
	<path class="st9" d="M576.2,539.5c0.8-4,1.7-8.4,0.2-12.2c-2.7-7.2-11.6-9.5-17.8-14.1c-3.6-2.7-6.3-6.4-7.9-10.5
		c-1.1-2.9-1.3-7,1.5-8.5c1.1-0.5,2.3-0.7,3.4-0.6c9.6,0.2,18.4,5.4,25.7,11.6c4.3,3.6,8.3,7.7,10.5,12.8c1.5,3.7,2,7.6,2.4,11.5
		l1.5,13c1,7.5,1.6,15,1.7,22.5c0,4.3-0.3,8.6-0.8,12.9c-0.4,3-1,6.2-2.7,8.7c-3.3,4.6-9.7,5.7-15.4,5.8c-2.2,0.1-4.3,0-6.4-0.4
		c-9.5-2.1-16.7-15.3-9.5-23.5c3-3.5,7.6-3.6,9.3-8.3C574.3,553.8,574.8,546.2,576.2,539.5z"/>
	<path class="st3" d="M568.5,541.8L576,554c0.4,0.6,0.8,1.4,0.9,2.1c0.2,1.6-1,3-1.9,4.3c-6.4,8.8-4.8,20.9-2.9,31.6
		c-21-6.6-36.3-24.7-39.5-46.5c-0.9-6.4-2.5-16.9,3.2-21.1C549.5,514.5,562.1,531.3,568.5,541.8z"/>
	<path class="st0" d="M606.5,517.3c-2.9-0.5-6,0-8.7-1.3c-4.8-2.2-5.8-8.3-6.3-13.6c0-0.5-0.1-1-0.1-1.6c1.7-1.8,3.6-3.4,5.5-4.8
		c1.8-1,3.7-1.9,5.7-2.5l5.3-1.9c0.5,1.4,0.9,2.8,1.1,4.3c0.6,3.5,0.1,7.2,1,10.6c0.8,3.1,2.6,5.9,4.5,8.5l7.8,11.4
		c-1.4-0.3-2.8-0.7-4.2-1.1C615.3,521.4,611.2,518.1,606.5,517.3z"/>
	<path class="st10" d="M85.7,710.3c0,0,11.1-0.3,14.4-2.7s17-5.2,17.9-1.4s16.6,19,4.1,19.1s-29.1-1.9-32.4-4S85.7,710.3,85.7,710.3
		z"/>
	<path class="st1" d="M122.4,723.9c-12.5,0.1-29.1-2-32.4-4c-2.5-1.5-3.6-7.1-3.9-9.7h-0.4c0,0,0.7,8.9,4,11s19.9,4.1,32.4,4
		c3.6,0,4.9-1.3,4.8-3.2C126.4,723.2,125.1,723.9,122.4,723.9z"/>
	<path class="st10" d="M995,691.8c0,0,19.7-0.6,25.6-4.8c5.9-4.2,30.3-9.3,31.8-2.5s29.6,33.7,7.4,33.9s-51.7-3.5-57.6-7.1
		S995,691.8,995,691.8z"/>
	<path class="st1" d="M1060.2,716c-22.2,0.2-51.7-3.5-57.6-7.1c-4.5-2.8-6.3-12.6-6.9-17.2H995c0,0,1.2,15.9,7.2,19.5
		s35.4,7.2,57.6,7.1c6.4,0,8.6-2.3,8.5-5.7C1067.4,714.7,1065,716,1060.2,716z"/>
	<g>
		<circle class="st11" cx="579.1" cy="130.1" r="20.9"/>
		<g>
			<line class="st12" x1="579.1" y1="113.2" x2="579.1" y2="146.9"/>
			<line class="st12" x1="595.9" y1="130.1" x2="562.3" y2="130.1"/>
		</g>
		<g>
			<line class="st12" x1="590.5" y1="118.4" x2="567.2" y2="141.7"/>
			<line class="st12" x1="591" y1="141.7" x2="568.1" y2="118.8"/>
		</g>
		<g>
			<line class="st13" x1="590.9" y1="117.4" x2="577.6" y2="130.7"/>
			<line class="st13" x1="579.2" y1="127.9" x2="579.2" y2="146.7"/>
			<line class="st13" x1="580.2" y1="130.5" x2="567.3" y2="117.6"/>
		</g>
		<text transform="matrix(0.91 0 0 1 604.9904 147.9293)" class="st14 st15 st16">CLE</text>
		<text transform="matrix(0.91 2.338700e-03 -2.570000e-03 1 473.0903 147.7852)" class="st14 st15 st16">RE</text>
		<text transform="matrix(0.91 0 0 1 535.9264 147.9293)" class="st14 st15 st17">c</text>
		<path class="st18" d="M524,142.1c-1.9-1-4.2-0.4-5.3,1.5l0,0c-1,1.9-1.4,10.7-1.4,10.7s7.1-5,8.1-6.9
			C526.5,145.5,525.9,143.1,524,142.1L524,142.1z M520.8,147.7c-1-0.5-1.3-1.8-0.8-2.8s1.8-1.3,2.8-0.8s1.3,1.8,0.8,2.8l0,0
			C523,147.9,521.8,148.2,520.8,147.7z"/>
	</g>
	<g>
		<g class="st19">
			
				<linearGradient id="SVGID_1_" gradientUnits="userSpaceOnUse" x1="778.6917" y1="361.0826" x2="778.6917" y2="281.2915" gradientTransform="matrix(0.9098 -0.415 0.415 0.9098 -269.6008 352.4061)">
				<stop  offset="0" style="stop-color:#808080;stop-opacity:0.25"/>
				<stop  offset="0.54" style="stop-color:#808080;stop-opacity:0.12"/>
				<stop  offset="1" style="stop-color:#808080;stop-opacity:0.1"/>
			</linearGradient>
			<polygon class="st20" points="529.3,297.2 581.8,273.2 614.9,345.8 562.4,369.7 			"/>
		</g>
		
			<rect x="543.9" y="282.2" transform="matrix(0.9098 -0.415 0.415 0.9098 -81.7115 266.3626)" class="st21" width="56.2" height="78"/>
		
			<linearGradient id="SVGID_2_" gradientUnits="userSpaceOnUse" x1="778.8015" y1="286.6534" x2="778.8015" y2="279.8952" gradientTransform="matrix(0.9098 -0.415 0.415 0.9098 -269.6127 352.4021)">
			<stop  offset="0" style="stop-color:#808080;stop-opacity:0.25"/>
			<stop  offset="0.54" style="stop-color:#808080;stop-opacity:0.12"/>
			<stop  offset="1" style="stop-color:#808080;stop-opacity:0.1"/>
		</linearGradient>
		<polygon class="st22" points="542.4,289.6 567.7,278.1 570.5,284.2 545.2,295.8 		"/>
		
			<linearGradient id="SVGID_3_" gradientUnits="userSpaceOnUse" x1="778.804" y1="281.2724" x2="778.804" y2="273.2859" gradientTransform="matrix(0.9098 -0.415 0.415 0.9098 -269.6128 352.4066)">
			<stop  offset="0" style="stop-color:#808080;stop-opacity:0.25"/>
			<stop  offset="0.54" style="stop-color:#808080;stop-opacity:0.12"/>
			<stop  offset="1" style="stop-color:#808080;stop-opacity:0.1"/>
		</linearGradient>
		<path class="st23" d="M552.3,277.8c-2,0.9-2.8,3.2-1.9,5.3c0.9,2,3.2,2.9,5.2,2s2.8-3.2,1.9-5.3
			C556.6,277.7,554.3,276.9,552.3,277.8z M554.9,283.6c-1.1,0.6-2.5,0.1-3.1-1.1c-0.6-1.2-0.1-2.5,1.1-3.1c1.1-0.6,2.5-0.1,3.1,1.1
			l0,0C556.5,281.7,556.1,283,554.9,283.6L554.9,283.6L554.9,283.6z"/>
		
			<rect x="542.8" y="283.6" transform="matrix(0.9098 -0.415 0.415 0.9098 -68.8654 256.7855)" class="st3" width="27.3" height="6.5"/>
		<path class="st3" d="M552.4,278.1c-1.9,0.9-2.8,3.1-1.9,5.1c0.9,1.9,3.1,2.8,5.1,1.9s2.8-3.1,1.9-5.1l0,0
			C556.6,278.1,554.3,277.2,552.4,278.1z M554.9,283.6c-1.1,0.5-2.4,0-2.9-1.1s0-2.4,1.1-2.9c1.1-0.5,2.4,0,2.9,1.1
			S556,283.1,554.9,283.6L554.9,283.6z"/>
		
			<linearGradient id="SVGID_4_" gradientUnits="userSpaceOnUse" x1="759.2499" y1="306.6157" x2="759.2499" y2="294.5745" gradientTransform="matrix(0.9098 -0.415 0.415 0.9098 -269.6078 352.4099)">
			<stop  offset="0" style="stop-color:#808080;stop-opacity:0.25"/>
			<stop  offset="0.54" style="stop-color:#808080;stop-opacity:0.12"/>
			<stop  offset="1" style="stop-color:#808080;stop-opacity:0.1"/>
		</linearGradient>
		<polygon class="st24" points="537.9,307.8 548.8,302.8 553.8,313.8 542.9,318.8 		"/>
		
			<linearGradient id="SVGID_5_" gradientUnits="userSpaceOnUse" x1="759.2934" y1="330.4761" x2="759.2934" y2="318.4348" gradientTransform="matrix(0.9098 -0.415 0.415 0.9098 -269.604 352.4099)">
			<stop  offset="0" style="stop-color:#808080;stop-opacity:0.25"/>
			<stop  offset="0.54" style="stop-color:#808080;stop-opacity:0.12"/>
			<stop  offset="1" style="stop-color:#808080;stop-opacity:0.1"/>
		</linearGradient>
		<polygon class="st25" points="547.8,329.5 558.8,324.5 563.8,335.5 552.8,340.5 		"/>
		
			<rect x="540.3" y="305.2" transform="matrix(0.9098 -0.415 0.415 0.9098 -79.74 254.5948)" class="st26" width="11.2" height="11.2"/>
		
			<rect x="550.1" y="326.7" transform="matrix(0.9098 -0.415 0.415 0.9098 -87.7814 260.6001)" class="st3" width="11.2" height="11.2"/>
		
			<rect x="556.4" y="300.3" transform="matrix(0.9098 -0.415 0.415 0.9098 -73.9799 261.1955)" class="st27" width="15.3" height="1.1"/>
		
			<rect x="556.6" y="299.7" transform="matrix(0.9098 -0.415 0.415 0.9098 -73.2607 263.3008)" class="st27" width="25.3" height="1.1"/>
		
			<rect x="557.3" y="301.5" transform="matrix(0.9098 -0.415 0.415 0.9098 -74.0365 263.38)" class="st27" width="23.5" height="1.1"/>
		
			<rect x="566.2" y="321.8" transform="matrix(0.9098 -0.415 0.415 0.9098 -82.0214 267.2007)" class="st27" width="15.3" height="1.1"/>
		
			<rect x="566.4" y="321.2" transform="matrix(0.9098 -0.415 0.415 0.9098 -81.302 269.3061)" class="st27" width="25.3" height="1.1"/>
		
			<rect x="567.1" y="323" transform="matrix(0.9098 -0.415 0.415 0.9098 -82.078 269.3852)" class="st27" width="23.5" height="1.1"/>
		
			<linearGradient id="SVGID_6_" gradientUnits="userSpaceOnUse" x1="759.2663" y1="303.477" x2="759.2663" y2="297.5664" gradientTransform="matrix(0.9098 -0.415 0.415 0.9098 -269.6028 352.4066)">
			<stop  offset="0" style="stop-color:#808080;stop-opacity:0.25"/>
			<stop  offset="0.54" style="stop-color:#808080;stop-opacity:0.12"/>
			<stop  offset="1" style="stop-color:#808080;stop-opacity:0.1"/>
		</linearGradient>
		<polygon class="st28" points="543.3,311.2 545.9,312.1 546.8,307.1 548,307.4 546.6,313.6 542.7,311.9 		"/>
		<polygon class="st21" points="543.6,311.2 545.9,311.9 546.6,307.5 547.7,307.8 546.5,313.2 543.1,311.7 		"/>
		<polygon class="st21" points="553.5,332.8 555.8,333.6 556.5,329.2 557.6,329.5 556.4,334.9 552.9,333.4 		"/>
		
			<rect x="565.5" y="340.2" transform="matrix(0.9098 -0.415 0.415 0.9098 -91.0423 273.3297)" class="st27" width="35.7" height="11.9"/>
		<path class="st3" d="M592.4,341.9c-1.2-0.4-2.5-0.3-2.9,1.1c-0.1,0.5-0.1,1.2-0.7,1.5c-0.8,0.4-1.7-0.4-2.3-0.7
			c-1.2-0.6-2.5-0.2-3.2,1c-0.4,0.6-0.5,1.3-0.6,1.9c-0.1,0.3-0.1,0.7-0.2,0.9c-0.2,0.5-1,0.5-1.5,0.5c-0.1,0-0.2,0-0.3,0
			c0.4-0.5,0.6-1.2,0.5-1.8c0-1.1-0.7-2.2-1.9-2.1c-1.1,0.1-1.8,1.2-1.7,2.2c0.1,0.9,0.7,1.6,1.4,2c-0.4,0.2-0.8,0.3-1.1,0.5
			c-0.2,0.1-0.3,0.2-0.5,0.3c-1.1-0.5-2.4-0.6-3.4-0.1c-0.5,0.3-0.1,1,0.3,0.7c0.7-0.4,1.5-0.3,2.3,0h0.1c-0.1,0.1-0.1,0.2-0.2,0.3
			c-0.4,0.8,0,2.1,1,2.2c1.5,0.1,1.5-1.8,0.7-2.6l-0.1-0.1c0.3-0.2,0.7-0.3,1-0.4s0.5-0.3,0.8-0.4h0.1c1.1,0.3,2.9,0.3,3.3-1
			c0.3-1.2,0.4-3.7,2.2-3.4c0.8,0.1,1.4,0.7,2.1,0.9c0.6,0.2,1.4,0.2,1.9-0.3c0.4-0.4,0.5-1,0.7-1.5c0.1-0.3,0.1-0.6,0.4-0.8
			c0.4-0.4,1.1-0.1,1.5,0C592.7,342.9,592.9,342.1,592.4,341.9z M577.9,351.5c-0.2,0.2-0.5,0.1-0.6-0.2c-0.2-0.3-0.1-0.6,0.1-0.9
			l0.1-0.1C578,350.6,578.4,351,577.9,351.5L577.9,351.5z M578.8,345.4c0.5-0.5,1.2-0.4,1.5,0.3c0.3,0.6,0.2,1.6-0.3,2.1
			c-0.1,0.1-0.1,0.1-0.2,0.2c-0.3-0.1-0.6-0.3-0.8-0.5C578.4,347,578.1,346,578.8,345.4L578.8,345.4z"/>
		
			<linearGradient id="SVGID_7_" gradientUnits="userSpaceOnUse" x1="727.7188" y1="272.1569" x2="727.7188" y2="215.145" gradientTransform="matrix(1 0 0 1 -157.12 67.08)">
			<stop  offset="0" style="stop-color:#808080;stop-opacity:0.25"/>
			<stop  offset="0.54" style="stop-color:#808080;stop-opacity:0.12"/>
			<stop  offset="1" style="stop-color:#808080;stop-opacity:0.1"/>
		</linearGradient>
		<path class="st29" d="M599.2,298.2l-9.1,3.5c-1.7-0.1-5.3-0.6-8.9-2.3c-4-1.9-8.5-1.9-12.4,0.1c-8.9,0.2-13.8-0.9-16.4-2l0.7-1.4
			l-9.2-3.6l-23-10.3v42.3l8.1,3.6l4.3-10.4l9.5,4.4l1.8-4.6l6.2,4.6l0.4,0.4l-0.6,0.6c-1.1,1.2-1.1,3,0,4.2l0,0
			c1.1,1.1,2.8,1.2,3.9,0.1l0.1-0.1l-0.3,0.3c-1.1,1.2-1.1,3,0,4.2l0,0c1.1,1.1,2.8,1.2,3.9,0.1l0.1-0.1l1.8-1.9l0,0l-1.3,1.3
			c-1.1,1.2-1.1,3,0,4.2l0,0c1.1,1.1,2.8,1.2,3.9,0.1l0.1-0.1l1.8-1.9l0,0l-0.8,0.8c-0.8,0.8-0.8,2.1,0,2.9c0.7,0.8,2,0.8,2.7,0.1
			c0,0,0.1,0,0.1-0.1l1.2-1.3c2.1,1.5,3.8,2.6,4.6,2.9c3.4,1.2,3.4-1.2,3.4-1.2c4.6,2.4,6.9-2.4,6.9-2.4c5.8,2.4,5.8-3.6,5.8-3.6
			c1.4,1,2.5,0.5,3.2-0.3c1-1.2,1.1-2.9,0.4-4.2l5.5-5.1l2.4,4.9l9.5-4.4l4.3,9.6l6.4-2.8v-41.9L599.2,298.2z"/>
		<polygon class="st30" points="597.7,320.4 587.6,329.3 579.8,314.8 597.7,310.3 		"/>
		<path class="st31" d="M549.8,297c0,0,3.2,4.5,22.3,3.3l11.1,16.7l7.5,8.4c1.2,1.3,1.2,3.3,0.1,4.7c-0.7,0.8-1.7,1.2-3.1,0.3
			c0,0,0,5.6-5.6,3.3c0,0-2.2,4.5-6.7,2.2c0,0,0,2.2-3.3,1.1s-21.2-15.6-21.2-15.6l-7.8-5.6L549.8,297z"/>
		<path class="st30" d="M589.9,302.5c0,0-4.8,0-9.6-2.2c-4.3-2-9.4-1.7-13.4,0.9c-3.3,2.1-6.1,5.6-6,11.3c0,0,4.3,4.5,8.9-4.5h3.3
			c0,0,3.2,11.1,12.3,10s11.1-2.2,11.1-2.2L589.9,302.5z"/>
		<path class="st30" d="M560.3,324.2l0.4,0.4c1,1,1,2.6,0,3.5l-2.6,2.6c-1,1-2.6,1-3.5,0l-0.4-0.4c-1-1-1-2.6,0-3.5l2.6-2.6
			C557.7,323.2,559.3,323.2,560.3,324.2z"/>
		<path class="st30" d="M556.7,320l0.4,0.4c1,1,1,2.6,0,3.5l-2.6,2.6c-1,1-2.6,1-3.5,0l-0.4-0.4c-1-1-1-2.6,0-3.5l2.6-2.6
			C554.1,319,555.7,319,556.7,320z"/>
		<path class="st30" d="M565.3,327l0.4,0.4c1,1,1,2.6,0,3.5l-3.1,3.1c-1,1-2.6,1-3.5,0l-0.4-0.4c-1-1-1-2.6,0-3.5l3.1-3.1
			C562.7,326,564.3,326,565.3,327z"/>
		<path class="st30" d="M568,330.9l0.3,0.3c0.7,0.7,0.7,1.8,0,2.5l-2,2c-0.7,0.7-1.8,0.7-2.5,0l-0.3-0.3c-0.7-0.7-0.7-1.8,0-2.5l2-2
			C566.2,330.3,567.3,330.3,568,330.9z"/>
		<polygon class="st21" points="608.8,322.6 598.8,327 588.7,302.5 597.7,299.2 		"/>
		<polygon class="st21" points="533.1,317 543.1,321.5 553.1,297 544.2,293.6 		"/>
		<polygon class="st32" points="521.9,283.6 544.2,293.6 529.7,327 521.9,323.7 		"/>
		<polygon class="st33" points="619.9,289.2 597.7,299.2 612.1,332.6 619.9,329.3 		"/>
	</g>
</g>
</svg>
