<?xml version="1.0" encoding="utf-8"?>
<!-- Generator: Adobe Illustrator 24.1.0, SVG Export Plug-In . SVG Version: 6.00 Build 0)  -->
<svg version="1.1" id="_x31_96ecc45-c3c6-4b7d-8685-374129418fe3"
	 xmlns="http://www.w3.org/2000/svg" xmlns:xlink="http://www.w3.org/1999/xlink" x="0px" y="0px" viewBox="0 0 885 857"
	 style="enable-background:new 0 0 885 857;" xml:space="preserve">
<style type="text/css">
	.st0{fill:#6C63FF;}
	.st1{fill:#A0616A;}
	.st2{opacity:0.1;enable-background:new    ;}
	.st3{fill:#F2F2F2;}
	.st4{fill:#3C354C;}
	.st5{fill:#656380;}
	.st6{opacity:0.2;enable-background:new    ;}
	.st7{fill:#3F3D56;}
	.st8{fill:#CBCEDA;}
	.st9{opacity:0.2;fill:#6C63FF;enable-background:new    ;}
	.st10{fill:#FFC1C7;}
	.st11{opacity:0.5;}
	.st12{fill:url(#SVGID_1_);}
	.st13{fill:#FFFFFF;}
	.st14{fill:url(#SVGID_2_);}
	.st15{fill:url(#SVGID_3_);}
	.st16{fill:url(#SVGID_4_);}
	.st17{fill:url(#SVGID_5_);}
	.st18{fill:#69F0AE;}
	.st19{fill:#E0E0E0;}
	.st20{fill:url(#SVGID_6_);}
	.st21{fill:url(#SVGID_7_);}
	.st22{fill:#BE7C5E;}
	.st23{fill:#FDA57D;}
	.st24{fill:#333333;}
	.st25{fill:#4D8AF0;}
	.st26{fill:#8CB11E;stroke:#000000;stroke-width:4;stroke-miterlimit:10;}
	.st27{fill:#8CB11E;stroke:#000000;stroke-width:0.5;stroke-miterlimit:10;}
	.st28{font-family:'BebasNeue-Regular';}
	.st29{font-size:55px;}
	.st30{letter-spacing:2.2;}
	.st31{letter-spacing:9.9;}
	.st32{fill:#8CB11E;}
</style>
<circle class="st0" cx="154.6" cy="255" r="3.3"/>
<circle class="st0" cx="163.8" cy="255" r="3.3"/>
<circle class="st0" cx="173" cy="255" r="3.3"/>
<path class="st1" d="M260.3,471c-0.4,2.4-2.8,3.9-5,4.8s-4.7,1.7-6.1,3.6c-1.9,2.6-1.1,6.4,0.7,9.2c2,3.1,5.1,5.5,8,7.7
	c1.3,1.1,2.8,2,4.4,2.5c1.2,0.3,2.5,0.4,3.7,0.4c4,0,8-0.4,12-1.1c5.1-0.9,10.5-2.8,13.2-7.2c2.2-3.6,2.1-8.1,1.8-12.3
	c-2.4-0.2-4.5-1.5-6.6-2.8c-2.4-1.5-5-3.2-5.8-5.9c-0.8-2.8,0.5-6.4-1.5-8.6c-1.3-1.5-3.6-1.7-5.5-1.7c-2.7-0.1-5.4-0.1-8.1-0.1
	c-1.9,0-6-0.8-7.5,0.5C255.2,462.3,260.8,468,260.3,471z"/>
<path class="st2" d="M260.3,471c-0.4,2.4-2.8,3.9-5,4.8s-4.7,1.7-6.1,3.6c-1.9,2.6-1.1,6.4,0.7,9.2c2,3.1,5.1,5.5,8,7.7
	c1.3,1.1,2.8,2,4.4,2.5c1.2,0.3,2.5,0.4,3.7,0.4c4,0,8-0.4,12-1.1c5.1-0.9,10.5-2.8,13.2-7.2c2.2-3.6,2.1-8.1,1.8-12.3
	c-2.4-0.2-4.5-1.5-6.6-2.8c-2.4-1.5-5-3.2-5.8-5.9c-0.8-2.8,0.5-6.4-1.5-8.6c-1.3-1.5-3.6-1.7-5.5-1.7c-2.7-0.1-5.4-0.1-8.1-0.1
	c-1.9,0-6-0.8-7.5,0.5C255.2,462.3,260.8,468,260.3,471z"/>
<circle class="st1" cx="269.5" cy="450.3" r="19.3"/>
<path class="st3" d="M310,497.3c-0.1,1.2-0.5,2.3-1.1,3.3c-0.2,0.3-0.4,0.5-0.6,0.8c-1.1,1.2-2.6,2-4,2.8c-4,2.4-8.4,5.5-9.1,10.1
	c-0.2,1.4-0.6,2.8-1,4.2c-0.9,3.1-2.1,6.2-2.8,9.4c-0.4,1.8-0.6,3.7-0.6,5.6c0,0.6,0.1,1.2,0.2,1.7c0.6,4.4,2.9,8.4,5.6,12.2
	c0.3,0.4,0.6,0.8,0.9,1.2l0.2,0.3h-63.1c0.1-0.4,0.2-0.8,0.3-1.2c0-0.1,0-0.1,0-0.2c0.6-2.5,1.2-5,1.6-7.6c0.4-2.3,0.6-4.5,0.6-6.8
	c0-2,0.4-4.2,2.1-5.3c0.1-0.4,0.2-0.8,0.3-1.2c1.5-6,1.4-12.2-0.1-18.2c-0.1-0.4-0.2-0.7-0.3-1.1c0-0.2-0.1-0.3-0.1-0.5
	c-0.6-1.8-1-3.5-1.4-5.3c-0.4-2.2-0.5-4.5-1.6-6.3s-3.1-2.9-4.9-4.2c-0.9-0.6-1.7-1.3-2.3-2.1l0,0c-0.7-0.8-1.2-1.9-1.3-3
	c0-0.3,0-0.7,0.1-1c0.3-1.4,1-2.6,2-3.6c4-4.4,10.1-6.3,16.2-6.3l0,0c0.9,0,1.9,0,2.8,0.1c1.1,0,2.1,0.3,3.1,0.7
	c0.6,0.3,1.1,0.7,1.6,1.3c0.6,0.7,1,1.6,1.3,2.5c0.2,0.7,0.4,1.5,0.5,2.2c0.4,2.4,0.4,4.9,1.7,6.9c2.2,3.7,7.4,4.4,11.6,3.6
	c7.7-1.5,14.2-6.3,18-13.2c0.4-0.8,0.8-1.6,1.3-2.4c0.3-0.4,0.6-0.7,0.9-1.1c5.9,1.1,11.4,3.6,16.1,7.3c1.5,1.1,2.8,2.4,3.8,4
	C310.1,489.7,310.5,493.6,310,497.3z"/>
<path class="st1" d="M311.9,537.1c-0.5,1.8-1.4,3.6-2.4,5.2c-0.7,1.4-1.7,2.6-2.8,3.6c-2.3,1.8-5.6,1.8-8.6,1.6h-0.2l-1.5-0.1
	l-8.5-0.5c-2.3-0.1-4.5-0.3-6.7-0.7c-0.6-0.1-1.2-0.3-1.8-0.4c-3.3-0.9-6.5-2.2-9.9-2.4c-1-0.1-2,0-3,0h-0.3c-0.7,0-1.3,0-2-0.1
	c-1.1-0.2-2.1-0.5-3.2-0.6c-2.8-0.1-5.3,1.6-7.7,3.1l-0.7,0.4c-1.7,1.1-3.6,2-5.5,2.7h-11.4c-0.2-0.1-0.4-0.3-0.5-0.5
	c-0.2-0.2-0.4-0.5-0.5-0.7c0-0.1-0.1-0.1-0.1-0.2c-0.8-1.6-0.8-3.5,0-5.1c0.4-0.9,1-1.8,1.7-2.5c0.7-0.8,1.6-1.6,2.4-2.3
	c4.4-3.7,9.6-6.8,15.2-7.9c0.4-0.1,0.8-0.1,1.2-0.2c2.8-0.3,5.7-0.4,8.6-0.3l2.7,0.1l11.2,0.2h0.3c4.5,0.1,9.3,0.1,13.4-1.7
	c0.5-0.2,1-0.5,1.5-0.8c0.4-0.2,0.8-0.5,1-0.9c0.3-0.5,0.4-1.1,0.3-1.7l0-5.9l-0.1-11.4l0,0c0-2.8,0-5.6-0.1-8.4
	c-0.2-1.8,0.4-3.5,1.6-4.8c1.6-2.1,5.6-9.4,8.5-9.5c0.5,0,1,0.1,1.4,0.4l0,0c2.4,1.6,2.4,7.7,2.5,9.8c0.1,2.3,0.2,4.5,0.3,6.8
	c0.5,9.3,1.6,18.5,3.3,27.7C312,531.7,312.6,534.5,311.9,537.1z"/>
<path class="st2" d="M311.9,537.1c-0.5,1.8-1.4,3.6-2.4,5.2c-0.7,1.4-1.7,2.6-2.8,3.6c-2.3,1.8-5.6,1.8-8.6,1.6h-0.2l-1.5-0.1
	l-8.5-0.5c-2.3-0.1-4.5-0.3-6.7-0.7c-0.6-0.1-1.2-0.3-1.8-0.4c-3.3-0.9-6.5-2.2-9.9-2.4c-1-0.1-2,0-3,0h-0.3c-0.7,0-1.3,0-2-0.1
	c-1.1-0.2-2.1-0.5-3.2-0.6c-2.8-0.1-5.3,1.6-7.7,3.1l-0.7,0.4c-1.7,1.1-3.6,2-5.5,2.7h-11.4c-0.2-0.1-0.4-0.3-0.5-0.5
	c-0.2-0.2-0.4-0.5-0.5-0.7c0-0.1-0.1-0.1-0.1-0.2c-0.8-1.6-0.8-3.5,0-5.1c0.4-0.9,1-1.8,1.7-2.5c0.7-0.8,1.6-1.6,2.4-2.3
	c4.4-3.7,9.6-6.8,15.2-7.9c0.4-0.1,0.8-0.1,1.2-0.2c2.8-0.3,5.7-0.4,8.6-0.3l2.7,0.1l11.2,0.2h0.3c4.5,0.1,9.3,0.1,13.4-1.7
	c0.5-0.2,1-0.5,1.5-0.8c0.4-0.2,0.8-0.5,1-0.9c0.3-0.5,0.4-1.1,0.3-1.7l0-5.9l-0.1-11.4l0,0c0-2.8,0-5.6-0.1-8.4
	c-0.2-1.8,0.4-3.5,1.6-4.8c1.6-2.1,5.6-9.4,8.5-9.5c0.5,0,1,0.1,1.4,0.4l0,0c2.4,1.6,2.4,7.7,2.5,9.8c0.1,2.3,0.2,4.5,0.3,6.8
	c0.5,9.3,1.6,18.5,3.3,27.7C312,531.7,312.6,534.5,311.9,537.1z"/>
<path class="st4" d="M256.8,419.6c-1.7,0.3-3.5,0.7-4.4,2.1c-0.7,1.1-0.7,2.5-0.9,3.8c-0.4,2.1-1.6,3.9-3.2,5.2
	c-1.4,1-3.1,1.6-4.5,2.6c-1.4,1-2.7,2.5-2.5,4.2c0.2,1.5,1.4,2.6,1.9,4c1,2.6-0.2,5.4-1.3,8s-2.2,5.5-0.9,8c1.4,2.6,4.9,3.6,5.9,6.3
	c1.2,3.3-2,6.8-1.6,10.3c0.4,2.9,3.2,5,6.1,5.4c1.4,0.2,2.9,0.1,4-0.9s1.4-2.4,1.4-3.8c0.2-5.4-2.9-10.3-3.8-15.6
	c-0.3-1.7-0.3-3.6,0.5-5.2c0.5-1,1.3-1.8,1.8-2.8c0.9-2.2-0.1-4.8,0.8-6.9c0.5-0.9,1.2-1.8,1.9-2.6c0.6-0.9,1-2.1,0.5-3
	c1.7,1.1,3.1,2.6,3.9,4.5c1.2-0.3,1.2-2.9,2.4-2.5c0.3,0.1,0.5,0.5,0.8,0.8c0.9,1,2.4,1.4,3.7,1c1.3-0.5,2.4-1.3,3.2-2.3l2.1,2.6
	c0.4-0.9,1.3-1.5,2.3-1.5c1,0.1,1.9,0.4,2.7,0.9c4,2.4,6.9,7.2,5.4,11.6c-0.7,1.9-2,3.4-2.9,5.2c-0.9,1.8-1.1,4.1,0.3,5.5
	c0.3,0.3,0.7,0.5,0.9,0.8c1,1.2,0.4,3.1,0.7,4.6c0.5,2.8,3.9,4,6.7,4.6c2,0.4,4.3,0.8,5.7-0.7c1.5-1.6,0.8-4.2-0.1-6.2
	c-0.9-2-2-4.3-1-6.2c1-2,3.9-2.6,4.9-4.7c1.3-2.6-1-5.4-1.9-8.2c-1.3-3.8,0.1-8-0.9-11.9c-0.6-2-1.6-3.8-2.9-5.4
	c-3.1-4.1-6.8-7.9-11.4-10.3c-4.3-2.3-8.7-2.6-13.5-2.1C265.4,419.3,261.1,419,256.8,419.6z"/>
<path class="st3" d="M294.4,507.3c-0.4-0.2-0.7-0.6-0.8-1c-1.5-4.1-2.8-8.3-4.1-12.4c-0.3-0.7-0.4-1.5-0.3-2.3
	c0.3-1,0.9-1.8,1.8-2.4c2.2-1.8,4.6-3.2,7.2-4.2c1.9-0.7,4.7-2.1,6.6-0.9c2.3,1.5-0.2,5.3-1,7.3c-1.2,2.7-2.5,5.4-4,7.9
	C299.4,500,295,507.5,294.4,507.3z"/>
<path class="st1" d="M298.2,547.5c-0.2,0.3-0.4,0.6-0.6,0.9c-0.1,0.1-0.2,0.2-0.2,0.2c-0.1,0.1-0.2,0.2-0.3,0.3h-11.5
	c-1.9-0.7-3.7-1.6-5.5-2.7l-0.7-0.4c-2.4-1.5-4.9-3.2-7.7-3.1c-1.1,0.1-2.2,0.4-3.2,0.6c-0.7,0.1-1.3,0.1-2,0.1h-0.3c-1,0-2,0-3,0
	c-3.4,0.2-6.6,1.5-9.9,2.4c-0.6,0.2-1.2,0.3-1.8,0.4c-2.2,0.4-4.5,0.6-6.7,0.7l-10,0.6h-0.2c-3,0.2-6.2,0.2-8.6-1.6
	c-1.1-1-2.1-2.2-2.8-3.6c-1.1-1.6-1.9-3.3-2.4-5.2c-0.7-2.6-0.1-5.4,0.4-8.1c2.1-11.4,3.3-22.9,3.6-34.5c0.1-2.1,0.1-8.2,2.5-9.8
	c0.3-0.2,0.6-0.3,0.9-0.4l0,0c0.2,0,0.3,0,0.5,0c2.8,0.1,6.8,7.4,8.5,9.5c1.2,1.3,1.8,3,1.6,4.8c0,2.7,0,5.4-0.1,8.1
	c0,0.1,0,0.3,0,0.4c0,5.8-0.1,11.6-0.1,17.3c-0.1,0.6,0,1.2,0.3,1.7c0.1,0.2,0.2,0.3,0.3,0.4c0.2,0.2,0.5,0.4,0.7,0.5
	c4.4,2.6,9.8,2.6,14.9,2.5h0.3l11.2-0.2l2.7-0.1c2.9-0.1,5.7,0,8.6,0.3c0.4,0.1,0.8,0.1,1.2,0.2c4.4,0.9,8.5,2.8,12.1,5.4
	c1.1,0.8,2.2,1.6,3.2,2.5c1.6,1.3,3.2,2.8,4.1,4.8C298.9,544,298.9,545.9,298.2,547.5z"/>
<path class="st3" d="M239,507.3c0.4-0.2,0.7-0.6,0.8-1c1.5-4.1,2.8-8.3,4.1-12.4c0.3-0.7,0.4-1.5,0.3-2.3c-0.3-1-0.9-1.8-1.8-2.4
	c-2.2-1.8-4.6-3.2-7.2-4.2c-1.9-0.7-4.7-2.1-6.6-0.9c-2.3,1.5,0.2,5.3,1,7.3c1.2,2.7,2.5,5.4,4,7.9C234,500,238.4,507.5,239,507.3z"
	/>
<path class="st4" d="M595.9,432.4c3.9-1,7,5.5,10.9,4.8c2.2-0.4,3.8-3,6-2.8c2.5,0.2,3.6,3.6,4.8,6.1c2.2,4.3,6.7,6.9,11,6.4
	c1.4-1.8,1.1-4.6,0.4-6.8c-0.7-2.2-1.7-4.4-1.8-6.8c0-3.2,1.7-6.7,0.1-9.2c-1.2-2-3.7-2.1-5.5-3.4c-1.4-0.9-2.4-2.5-3.6-3.8
	c-1.9-2.1-4.5-3.5-7.3-3.9c-2.3-0.3-4.7,0.2-7,0.7l-10.8,2.3c-0.6,0.1-1.2,0.3-1.7,0.8c-0.4,0.7-0.7,1.4-0.9,2.2
	c-1,3.4-4.2,4.9-6.8,6.8s-5.1,5.5-3.7,8.7c0.8,1.8,2.7,2.9,2.9,4.9c0.2,1.8-1.1,3.2-2.2,4.6c-4.5,5.6,5.5,8.5,7.9,4.7
	C591.6,444.5,590.3,433.8,595.9,432.4z"/>
<path class="st1" d="M590.2,467.5c-0.9,1.2-2.2,2.2-2.9,3.6c-0.9,1.9-1.1,4.1-0.4,6.2c0.7,2,1.6,3.9,2.8,5.7c1.4,2.4,3,4.6,4.9,6.6
	c1.9,2,4.5,3.3,7.3,3.6c2.9,0.2,5.8-1,8.4-2.3c1.1-0.5,2.2-1.1,3-2c0.6-0.8,1.1-1.7,1.5-2.7l2.3-5.5c0.6-1.3,1.1-2.7,1.3-4.2
	c0.2-2.3-0.6-4.5-1.3-6.7l-4.2-11.5c-0.2-0.7-0.5-1.3-1-1.7c-0.5-0.3-1-0.6-1.5-0.7c-2.7-0.7-5.4-1.1-8.1-1.3
	c-2-0.1-6.6-0.9-8.4,0.3c-1.6,1.1-0.9,3.8-1.1,5.5C592.5,463,591.7,465.4,590.2,467.5z"/>
<path class="st2" d="M590.2,467.5c-0.9,1.2-2.2,2.2-2.9,3.6c-0.9,1.9-1.1,4.1-0.4,6.2c0.7,2,1.6,3.9,2.8,5.7c1.4,2.4,3,4.6,4.9,6.6
	c1.9,2,4.5,3.3,7.3,3.6c2.9,0.2,5.8-1,8.4-2.3c1.1-0.5,2.2-1.1,3-2c0.6-0.8,1.1-1.7,1.5-2.7l2.3-5.5c0.6-1.3,1.1-2.7,1.3-4.2
	c0.2-2.3-0.6-4.5-1.3-6.7l-4.2-11.5c-0.2-0.7-0.5-1.3-1-1.7c-0.5-0.3-1-0.6-1.5-0.7c-2.7-0.7-5.4-1.1-8.1-1.3
	c-2-0.1-6.6-0.9-8.4,0.3c-1.6,1.1-0.9,3.8-1.1,5.5C592.5,463,591.7,465.4,590.2,467.5z"/>
<circle class="st1" cx="603.9" cy="446.5" r="18.3"/>
<path class="st4" d="M597.9,431.5c3.1-0.7,5.4,3.7,8.5,3.2c1.7-0.3,3-2,4.7-1.9c1.9,0.1,2.8,2.4,3.8,4.1c1.8,2.9,5.1,4.6,8.6,4.3
	c1.1-1.2,0.9-3.1,0.3-4.6s-1.4-3-1.4-4.6c0-2.1,1.3-4.5,0.1-6.2c-0.9-1.3-2.9-1.4-4.3-2.3c-1.1-0.7-1.9-1.7-2.8-2.6
	c-1.6-1.5-3.6-2.4-5.7-2.6c-1.8-0.1-3.7,0.1-5.4,0.5l-8.4,1.6c-0.5,0-0.9,0.2-1.3,0.5c-0.3,0.4-0.6,0.9-0.7,1.5
	c-0.8,2.3-3.3,3.3-5.3,4.6c-2,1.3-4,3.7-2.8,5.8c0.7,1.2,2.1,1.9,2.3,3.3c0.1,1.2-0.9,2.2-1.7,3.1c-3.5,3.7,4.3,5.7,6.2,3.2
	C594.5,439.6,593.5,432.4,597.9,431.5z"/>
<path class="st4" d="M652.9,548.9h-15.4c0.3-6.3-2.3-12.7-2.6-19.2c-0.1-2.4,0.1-4.9-0.4-7.3c-0.1-0.6-0.3-1.2-0.5-1.8
	c-0.4-1.2-0.9-2.4-1.2-3.6c-1.2-4.1-1.2-8.4-1.1-12.7c0.1-4.7,0.1-9.4,0.2-14.1c0-1.2-0.4-3,0.8-3.5c2.5-1.2,5.1,1.1,7.4,2.6
	c1.4,0.9,3,1.6,4.3,2.6c0.8,0.6,1.5,1.2,2.1,2c0.7,1.1,1.1,2.3,1.4,3.6c1.9,7.1,3.5,14.3,4.9,21.6c0.7,3.2,1.1,6.3,1.3,9.6
	C654.4,535.3,653,542.1,652.9,548.9z"/>
<path class="st5" d="M103.4,607.4c0,0,7.3-0.2,9.5-1.8c2.2-1.6,11.2-3.4,11.8-0.9c0.6,2.5,11,12.5,2.7,12.6
	c-8.2,0-19.2-1.3-21.4-2.6C103.9,613.3,103.4,607.4,103.4,607.4z"/>
<path class="st6" d="M127.6,616.4c-8.3,0.1-19.2-1.3-21.4-2.6c-1.7-1-2.3-4.7-2.6-6.4h-0.2c0,0,0.5,5.9,2.6,7.3
	c2.2,1.4,13.1,2.7,21.4,2.6c2.4,0,3.2-0.9,3.2-2.1C130.2,615.9,129.3,616.4,127.6,616.4z"/>
<path class="st5" d="M703.1,595.2c0,0,13-0.4,16.9-3.2s20-6.1,21-1.6c1,4.5,19.5,22.3,4.9,22.4c-14.7,0.1-34.1-2.3-38-4.7
	C704,605.7,703.1,595.2,703.1,595.2z"/>
<path class="st6" d="M746.1,611.2c-14.7,0.1-34.1-2.3-38-4.7c-3-1.8-4.2-8.3-4.6-11.3h-0.4c0,0,0.8,10.5,4.7,12.9
	c3.9,2.4,23.3,4.8,38,4.7c4.2,0,5.7-1.5,5.6-3.8C750.9,610.3,749.3,611.2,746.1,611.2z"/>
<g>
	<ellipse class="st7" cx="432.3" cy="611.2" rx="339" ry="18.1"/>
	<ellipse class="st6" cx="431.6" cy="605.6" rx="303.4" ry="14.5"/>
	<path class="st7" d="M720.5,253.2v348.6c0,2.6-2.1,4.8-4.8,4.8c0,0,0,0,0,0h-567c-2.6,0-4.7-2.1-4.7-4.7c0,0,0,0,0,0V253.2
		c0-2.6,2.1-4.8,4.7-4.8c0,0,0,0,0,0h567C718.3,248.4,720.5,250.5,720.5,253.2C720.5,253.2,720.5,253.2,720.5,253.2z"/>
	<path class="st8" d="M720.5,251.6v10.7H144v-10.7c0-1.8,1.4-3.2,3.2-3.2h570.1C719.1,248.4,720.5,249.8,720.5,251.6
		C720.5,251.6,720.5,251.6,720.5,251.6z"/>
	<rect x="345.7" y="296.9" class="st9" width="175.5" height="9.2"/>
	<rect x="198.8" y="390.6" class="st9" width="135.2" height="158.3"/>
	<rect x="364.3" y="390.6" class="st9" width="135.2" height="158.3"/>
	<rect x="529.9" y="390.6" class="st9" width="135.2" height="158.3"/>
	<path class="st4" d="M644.4,492.2c0,5-1.9,9.9-3.9,14.5s-4.5,9.2-6.5,13.9c-0.2,0.4-0.3,0.8-0.5,1.2c-3.4,8.7-6.3,17.5-8.9,26.4
		l-0.2,0.7h-56.7c2.6-9.9,4.8-19.8-1.4-26.6c-0.2-0.2-0.4-0.4-0.6-0.7c-4.1-4.9-5.9-11.6-10.7-15.7c-1.1-1-2.4-1.8-3.1-3.1
		c-0.4-0.8-0.6-1.7-0.6-2.6c0-0.8,0-1.6,0.1-2.3c0.5-4.3,1.1-8.8,3.7-12.2c1.2-1.5,2.6-2.8,4.2-3.9c3.5-2.5,7.5-4.2,11.7-5.2
		c4.7-1.1,9.9-1.2,13.8-4.2c0.8-0.7,1.7-1.4,2.6-2l0.3-0.1c0.9-0.4,2-0.3,2.8,0.3c0.5,0.6,0.8,1.2,0.9,2c0.7,2.6,1.4,5.1,2.1,7.7
		c0.2,1.3,0.8,2.5,1.6,3.5c1.9,1.9,5.4,1.7,6.9,4c0.9,1.4,3.2-0.2,4.2-1.5c2.4-3.1,4.5-6.4,6.2-9.9c0.6-1.4,1.4-2.7,2.3-3.8
		c0.7-0.8,1.6-1.3,2.5-1.5c0.5-0.1,1-0.1,1.5,0c1.4,0.3,2.5,1.5,3.4,2.5c5.8,6.5,12.7,11.9,20.3,16.1c0.6,0.3,1.1,0.7,1.5,1.2
		c0.2,0.3,0.2,0.7,0.3,1.1C644.4,491.9,644.4,492,644.4,492.2z"/>
	<path class="st4" d="M557.1,541.5c-0.7,1.6-1.4,3.3-1.3,5.1c0.1,0.8,0.2,1.6,0.5,2.3h-14c-0.7-2.4-1.2-4.8-1.6-7.3
		c-0.7-4.8-0.3-9.6,0.3-14.4c0.4-3.7,1.2-7.4,2.4-10.9c1.6-4.5,4.2-8.7,6.4-12.9c0.5-1,1-2.1,1.5-3.1c1.2-2.2,2.7-3.8,5.7-2.3
		c7.5,3.6,10.7,16.3,8.6,23.7c0,0,0,0,0,0.1c-0.6,1.9-1.3,3.7-2.2,5.5C561.3,531.9,559.2,536.7,557.1,541.5z"/>
	<path class="st7" d="M434.7,423.2c1.5,0.5,2.7,1.6,3.5,3c0.6,1.2,0.6,2.7,1,4c0.9,2.8,3.5,4.6,5.1,7.1c2.2,3.3,2.4,7.5,2.3,11.5
		c-0.2,4-0.7,8,0.3,11.8c0.5,1.9,1.3,3.7,1.6,5.6c0.4,2.3,0.1,4.7,0.7,7c0.5,2.1,1.7,3.9,2.9,5.6l5.1,7.5c-2.3-0.5-4.6-1.2-6.8-2
		c0.7,2.1,2,4.1,3.7,5.5l-3.7-4.5c-0.8-1-1.7-1.9-2.8-2.6c-1.4-0.8-3-0.9-4.5-1.2c-2.9-0.6-5.9-2.1-7.3-4.7
		c-1.9-3.5-0.7-7.9-1.8-11.8c-0.8-2.8-2.7-5.2-4.1-7.8c-3-5.9-2.8-12.8-3.8-19.4c-0.4-2.8-1-5.5-1-8.4c0-2.1,0.2-6,2.4-7.1
		C429.5,421.4,432.9,422.4,434.7,423.2z"/>
	<path class="st10" d="M437,470.4c0.3,3.4,1,7.5,4.2,9c1.8,0.8,3.8,0.5,5.8,0.8c3.6,0.6,6.6,3.4,8.3,6.7s2.3,7,2.6,10.7
		c0.5,4.6,0.7,9.6-1.9,13.4c-2,3.1-5.6,5-9.2,6c-7.4,1.9-15.2,0.5-21.4-4c-3-2.2-5.5-5-7.9-7.8c-5.2-6.1-10.5-12.8-11.6-20.7
		c-0.1-0.9-0.1-2,0.7-2.5c0.5-0.3,1.1-0.4,1.7-0.3l5,0.1c1.3,0,2.7,0,3.6-1c0.9-1,0.8-2.2,0.8-3.3c-0.1-4.8-0.3-9.7-0.4-14.5
		c-0.1-0.5,0-1,0.3-1.5c0.3-0.3,0.7-0.5,1.2-0.5c2.8-0.5,5.7,0,8.4-0.8c2.6-0.7,6.6-3.7,8.5-0.6C437.3,462.1,436.7,467.4,437,470.4z
		"/>
	<path class="st2" d="M437,470.4c0.3,3.4,1,7.5,4.2,9c1.8,0.8,3.8,0.5,5.8,0.8c3.6,0.6,6.6,3.4,8.3,6.7s2.3,7,2.6,10.7
		c0.5,4.6,0.7,9.6-1.9,13.4c-2,3.1-5.6,5-9.2,6c-7.4,1.9-15.2,0.5-21.4-4c-3-2.2-5.5-5-7.9-7.8c-5.2-6.1-10.5-12.8-11.6-20.7
		c-0.1-0.9-0.1-2,0.7-2.5c0.5-0.3,1.1-0.4,1.7-0.3l5,0.1c1.3,0,2.7,0,3.6-1c0.9-1,0.8-2.2,0.8-3.3c-0.1-4.8-0.3-9.7-0.4-14.5
		c-0.1-0.5,0-1,0.3-1.5c0.3-0.3,0.7-0.5,1.2-0.5c2.8-0.5,5.7,0,8.4-0.8c2.6-0.7,6.6-3.7,8.5-0.6C437.3,462.1,436.7,467.4,437,470.4z
		"/>
	<circle class="st10" cx="424.3" cy="450.3" r="19.2"/>
	<path class="st0" d="M467,532.3c-0.1,0.8-0.3,1.6-0.5,2.3c-0.6,1.8-1.3,3.5-2.1,5.2c-0.3,0.7-0.6,1.4-0.8,2.1
		c-0.2,0.6-0.4,1.1-0.5,1.7c-0.1,0.6-0.3,1.4-0.4,2.1c-0.2,1-0.3,2.1-0.4,3.1h-50c0.2-2.5,0.1-5.1-0.3-7.6
		c-0.7-3.5-1.7-6.8-3.1-10.1c-3.2-8.2-6.7-16.5-8.7-25c0,0,0,0,0,0c-1.4-5.5-1.8-11.2-1.2-16.9c0-0.3,0.1-0.7,0.1-1
		c0.1-0.9,0.3-1.7,0.5-2.5c0.5-2.4,1.6-4.6,3.2-6.5c2.2-2.4,6-3.6,8.9-2.1c1.8,0.9,2.8,2.6,3.7,4.4c0.6,1.2,1,2.4,1.5,3.6
		c1.8,4.2,4.4,8.1,7.6,11.3c0.6,0.7,1.3,1.2,1.9,1.8s1.2,1.1,1.9,1.6c2.1,1.6,4.7,3.7,7.4,3.8c1.6,0,3.2,0,4.9,0
		c1.5,0,2.9-0.1,4.4,0c3.1,0.1,6.6-0.8,8.1-3.5c1-1.9,0.9-4.1,0.7-6.2c-0.2-1.6-0.3-3.3-0.5-5c0-0.1,0-0.2,0-0.3
		c-0.1-1.2-0.2-2.4-0.3-3.6l0,0c-0.1-0.6-0.1-1.2-0.2-1.7l0,0l-0.1-1.3c0.5-0.1,1.1-0.1,1.7-0.2c2.5-0.2,5.1-0.2,7.2,1.1
		c2,1.2,3.3,3.1,4.1,5.4c0.5,1.6,0.9,3.3,1,4.9c0.7,7.5-0.5,15,0,22.5C466.8,521.3,467.9,527,467,532.3z"/>
	<path class="st10" d="M478.4,548.9h-15.1c-0.1-1.7-0.2-3.4-0.3-5.2c-0.1-1.2-0.1-2.4-0.1-3.6c-0.1-3.2,0-6.4,0.1-9.6
		c3,1.7,6.3,2.6,9.7,2.8c1.4,1.5,2.5,3.3,3.3,5.2c0.4,1.1,0.8,2.1,1.1,3.2c0,0,0,0,0,0C477.7,544.1,478.2,546.5,478.4,548.9z"/>
	<path class="st0" d="M477.1,538.5c-5.7,0.1-11.4,0.8-17,2.2c-0.7-3.6-0.4-7.3,0-11l2.4-25.2c0.2-1.9-0.2-19,3.4-16
		c1.3,1.1,3,11.1,3.4,12.7c0.6,2.4,1.1,4.9,1.6,7.4c0.9,5.1,1.5,10.2,2.4,15.2C473.6,525.4,475.8,538.6,477.1,538.5z"/>
	<path class="st7" d="M431.6,425.9c0-0.6-0.1-1.2-0.4-1.7c-0.5-0.6-1.2-1-2.1-1.1c-2.8-0.4-5.8,0.7-8.3-0.6c-1.3-0.7-2.3-2-3.6-2.7
		c-3.1-1.8-7,0-9.8,2.3c-4.4,3.6-7.6,8.5-9.2,14c-1.2,4.2-1.7,9.2-5.2,11.9c-1.5,1.1-3.3,1.7-4.4,3.2c-0.8,1.1-1,2.6-1.2,4
		c-0.4,3.2-0.7,6.5,0.2,9.6c0.7,2.3,1.9,4.4,2.6,6.7c2.1,6.6,0.2,13.9-4.9,18.6c1.3,0.8,2.8,1.1,4.3,0.7c0,0.7-0.2,1.3-0.6,1.9
		c4.5-0.1,8.4-4.5,12.8-3.6c3.4,0.7,5.2,4.2,7.7,6.5c3.2,3,8.2,4.3,12.3,2.5s6.5-6.9,4.8-11c-2-4.6-8-6.5-10.1-11.1
		c-1.6-3.6-0.4-7.7-0.8-11.6c-0.3-3.3-1.7-6.4-2.6-9.7c-0.9-3.2-1.2-6.9,0.7-9.7c1.9-3,5.7-4.1,9-5.3
		C430.5,437.5,431.9,433.6,431.6,425.9z"/>
	<path class="st10" d="M426.9,494.8c0.5-2.6,1.1-5.5,0.1-8.1c-1.8-4.8-7.7-6.2-11.7-9.3c-2.4-1.8-4.2-4.2-5.2-6.9
		c-0.7-1.9-0.8-4.6,1-5.6c0.7-0.3,1.5-0.5,2.3-0.4c6.3,0.1,12.1,3.6,17,7.6c2.8,2.4,5.5,5.1,6.9,8.5c1,2.4,1.3,5,1.6,7.6l1,8.6
		c0.7,4.9,1,9.9,1.1,14.8c0,2.8-0.2,5.7-0.5,8.5c-0.3,2-0.7,4.1-1.8,5.7c-2.2,3.1-6.4,3.7-10.2,3.8c-1.4,0.1-2.8,0-4.2-0.3
		c-6.2-1.4-11-10.1-6.3-15.5c2-2.3,5-2.4,6.2-5.5C425.7,504.2,426,499.2,426.9,494.8z"/>
	<path class="st0" d="M421.8,496.3l4.9,8.1c0.3,0.4,0.5,0.9,0.6,1.4c0.1,1-0.7,2-1.3,2.8c-4.2,5.8-3.2,13.8-1.9,20.9
		c-13.8-4.4-23.9-16.3-26-30.7c-0.6-4.2-1.6-11.2,2.1-13.9C409.3,478.3,417.6,489.4,421.8,496.3z"/>
	<path class="st7" d="M446.9,480.2c-1.9-0.3-4,0-5.8-0.8c-3.1-1.4-3.9-5.5-4.2-9c0-0.3,0-0.7-0.1-1c1.1-1.2,2.3-2.2,3.6-3.2
		c1.2-0.7,2.4-1.2,3.7-1.6l3.5-1.2c0.3,0.9,0.6,1.9,0.8,2.8c0.4,2.3,0.1,4.7,0.7,7c0.5,2.1,1.7,3.9,2.9,5.6l5.1,7.5
		c-0.9-0.2-1.9-0.5-2.8-0.7C452.7,482.8,450,480.7,446.9,480.2z"/>
	<g>
		<g class="st11">
			
				<linearGradient id="SVGID_1_" gradientUnits="userSpaceOnUse" x1="629.7147" y1="394.1714" x2="629.7147" y2="473.9056" gradientTransform="matrix(0.9098 -0.415 -0.415 -0.9098 37.3382 1018.9247)">
				<stop  offset="0" style="stop-color:#808080;stop-opacity:0.25"/>
				<stop  offset="0.54" style="stop-color:#808080;stop-opacity:0.12"/>
				<stop  offset="1" style="stop-color:#808080;stop-opacity:0.1"/>
			</linearGradient>
			<polygon class="st12" points="387.3,338.4 439.8,314.4 472.9,387 420.4,410.9 			"/>
		</g>
		
			<rect x="401.9" y="323.4" transform="matrix(0.9098 -0.415 0.415 0.9098 -111.63 211.1433)" class="st13" width="56.2" height="78"/>
		
			<linearGradient id="SVGID_2_" gradientUnits="userSpaceOnUse" x1="629.7976" y1="468.6115" x2="629.7976" y2="475.3697" gradientTransform="matrix(0.9098 -0.415 -0.415 -0.9098 37.3263 1018.9207)">
			<stop  offset="0" style="stop-color:#808080;stop-opacity:0.25"/>
			<stop  offset="0.54" style="stop-color:#808080;stop-opacity:0.12"/>
			<stop  offset="1" style="stop-color:#808080;stop-opacity:0.1"/>
		</linearGradient>
		<polygon class="st14" points="400.4,330.8 425.7,319.3 428.5,325.4 403.2,337 		"/>
		
			<linearGradient id="SVGID_3_" gradientUnits="userSpaceOnUse" x1="629.7994" y1="473.9925" x2="629.7994" y2="481.9789" gradientTransform="matrix(0.9098 -0.415 -0.415 -0.9098 37.3262 1018.9252)">
			<stop  offset="0" style="stop-color:#808080;stop-opacity:0.25"/>
			<stop  offset="0.54" style="stop-color:#808080;stop-opacity:0.12"/>
			<stop  offset="1" style="stop-color:#808080;stop-opacity:0.1"/>
		</linearGradient>
		<path class="st15" d="M410.3,319c-2,0.9-2.8,3.2-1.9,5.3c0.9,2,3.2,2.9,5.2,2c2-0.9,2.8-3.2,1.9-5.3S412.3,318.1,410.3,319z
			 M412.9,324.8c-1.1,0.6-2.5,0.1-3.1-1.1s-0.1-2.5,1.1-3.1c1.1-0.6,2.5-0.1,3.1,1.1c0,0,0,0,0,0
			C414.5,322.9,414.1,324.2,412.9,324.8C412.9,324.8,412.9,324.8,412.9,324.8L412.9,324.8z"/>
		
			<rect x="400.7" y="324.8" transform="matrix(0.9098 -0.415 0.415 0.9098 -98.7497 201.5537)" class="st0" width="27.3" height="6.5"/>
		<path class="st0" d="M410.4,319.3c-1.9,0.9-2.8,3.1-1.9,5.1c0.9,1.9,3.1,2.8,5.1,1.9s2.8-3.1,1.9-5.1c0,0,0,0,0,0
			C414.6,319.3,412.3,318.4,410.4,319.3z M412.9,324.8c-1.1,0.5-2.4,0-2.9-1.1c-0.5-1.1,0-2.4,1.1-2.9c1.1-0.5,2.4,0,2.9,1.1
			C414.5,323,414,324.3,412.9,324.8L412.9,324.8z"/>
		
			<linearGradient id="SVGID_4_" gradientUnits="userSpaceOnUse" x1="610.2664" y1="448.6492" x2="610.2664" y2="460.6904" gradientTransform="matrix(0.9098 -0.415 -0.415 -0.9098 37.3312 1018.9285)">
			<stop  offset="0" style="stop-color:#808080;stop-opacity:0.25"/>
			<stop  offset="0.54" style="stop-color:#808080;stop-opacity:0.12"/>
			<stop  offset="1" style="stop-color:#808080;stop-opacity:0.1"/>
		</linearGradient>
		<polygon class="st16" points="395.9,349 406.8,344 411.8,355 400.9,360 		"/>
		
			<linearGradient id="SVGID_5_" gradientUnits="userSpaceOnUse" x1="610.3039" y1="424.7888" x2="610.3039" y2="436.8301" gradientTransform="matrix(0.9098 -0.415 -0.415 -0.9098 37.335 1018.9285)">
			<stop  offset="0" style="stop-color:#808080;stop-opacity:0.25"/>
			<stop  offset="0.54" style="stop-color:#808080;stop-opacity:0.12"/>
			<stop  offset="1" style="stop-color:#808080;stop-opacity:0.1"/>
		</linearGradient>
		<polygon class="st17" points="405.8,370.7 416.8,365.7 421.8,376.7 410.8,381.7 		"/>
		
			<rect x="398.3" y="346.4" transform="matrix(0.9098 -0.415 0.415 0.9098 -109.6595 199.3537)" class="st18" width="11.2" height="11.2"/>
		
			<rect x="408.1" y="367.9" transform="matrix(0.9098 -0.415 0.415 0.9098 -117.7009 205.3653)" class="st0" width="11.2" height="11.2"/>
		
			<rect x="414.3" y="341.5" transform="matrix(0.9098 -0.415 0.415 0.9098 -103.8843 205.9436)" class="st19" width="15.3" height="1.1"/>
		
			<rect x="414.5" y="340.9" transform="matrix(0.9098 -0.415 0.415 0.9098 -103.1624 208.0452)" class="st19" width="25.3" height="1.1"/>
		
			<rect x="415.2" y="342.7" transform="matrix(0.9098 -0.415 0.415 0.9098 -103.9332 208.1492)" class="st19" width="23.5" height="1.1"/>
		
			<rect x="424.1" y="363" transform="matrix(0.9098 -0.415 0.415 0.9098 -111.9261 211.9555)" class="st19" width="15.3" height="1.1"/>
		
			<rect x="424.3" y="362.4" transform="matrix(0.9098 -0.415 0.415 0.9098 -111.2038 214.0567)" class="st19" width="25.3" height="1.1"/>
		
			<rect x="425" y="364.2" transform="matrix(0.9098 -0.415 0.415 0.9098 -111.975 214.1611)" class="st19" width="23.5" height="1.1"/>
		
			<linearGradient id="SVGID_6_" gradientUnits="userSpaceOnUse" x1="610.2611" y1="451.7879" x2="610.2611" y2="457.6985" gradientTransform="matrix(0.9098 -0.415 -0.415 -0.9098 37.3362 1018.9252)">
			<stop  offset="0" style="stop-color:#808080;stop-opacity:0.25"/>
			<stop  offset="0.54" style="stop-color:#808080;stop-opacity:0.12"/>
			<stop  offset="1" style="stop-color:#808080;stop-opacity:0.1"/>
		</linearGradient>
		<polygon class="st20" points="401.3,352.4 403.9,353.3 404.8,348.3 406,348.6 404.6,354.8 400.7,353.1 		"/>
		<polygon class="st13" points="401.6,352.4 403.9,353.1 404.6,348.7 405.7,349 404.5,354.4 401.1,352.9 		"/>
		<polygon class="st13" points="411.5,374 413.8,374.8 414.5,370.4 415.6,370.7 414.4,376.1 410.9,374.6 		"/>
		
			<rect x="423.5" y="381.4" transform="matrix(0.9098 -0.415 0.415 0.9098 -120.9451 218.1073)" class="st19" width="35.7" height="11.9"/>
		<path class="st0" d="M450.4,383.1c-1.2-0.4-2.5-0.3-2.9,1.1c-0.1,0.5-0.1,1.2-0.7,1.5c-0.8,0.4-1.7-0.4-2.3-0.7
			c-1.2-0.6-2.5-0.2-3.2,1c-0.4,0.6-0.5,1.3-0.6,1.9c-0.1,0.3-0.1,0.7-0.2,0.9c-0.2,0.5-1,0.5-1.5,0.5c-0.1,0-0.2,0-0.3,0
			c0.4-0.5,0.6-1.2,0.5-1.8c0-1.1-0.7-2.2-1.9-2.1c-1.1,0.1-1.8,1.2-1.7,2.2c0.1,0.9,0.7,1.6,1.4,2c-0.4,0.2-0.8,0.3-1.1,0.5
			c-0.2,0.1-0.3,0.2-0.5,0.3c-1.1-0.5-2.4-0.6-3.4-0.1c-0.5,0.3-0.1,1,0.3,0.7c0.7-0.4,1.5-0.3,2.3,0l0.1,0
			c-0.1,0.1-0.1,0.2-0.2,0.3c-0.4,0.8,0,2.1,1,2.2c1.5,0.1,1.5-1.8,0.7-2.6c0,0-0.1-0.1-0.1-0.1c0.3-0.2,0.7-0.3,1-0.4
			c0.3-0.1,0.5-0.3,0.8-0.4l0.1,0c1.1,0.3,2.9,0.3,3.3-1c0.3-1.2,0.4-3.7,2.2-3.4c0.8,0.1,1.4,0.7,2.1,0.9c0.6,0.2,1.4,0.2,1.9-0.3
			c0.4-0.4,0.5-1,0.7-1.5c0.1-0.3,0.1-0.6,0.4-0.8c0.4-0.4,1.1-0.1,1.5,0C450.7,384.1,450.9,383.3,450.4,383.1z M435.9,392.7
			c-0.2,0.2-0.5,0.1-0.6-0.2c-0.2-0.3-0.1-0.6,0.1-0.9c0,0,0.1-0.1,0.1-0.1C436,391.8,436.4,392.2,435.9,392.7L435.9,392.7z
			 M436.8,386.6c0.5-0.5,1.2-0.4,1.5,0.3c0.3,0.6,0.2,1.6-0.3,2.1c-0.1,0.1-0.1,0.1-0.2,0.2c-0.3-0.1-0.6-0.3-0.8-0.5
			C436.4,388.2,436.1,387.2,436.8,386.6L436.8,386.6z"/>
		
			<linearGradient id="SVGID_7_" gradientUnits="userSpaceOnUse" x1="585.8181" y1="454.6328" x2="585.8181" y2="511.6447" gradientTransform="matrix(1 0 0 -1 -157.12 835.08)">
			<stop  offset="0" style="stop-color:#808080;stop-opacity:0.25"/>
			<stop  offset="0.54" style="stop-color:#808080;stop-opacity:0.12"/>
			<stop  offset="1" style="stop-color:#808080;stop-opacity:0.1"/>
		</linearGradient>
		<path class="st21" d="M457.2,339.4l-9.1,3.5c-1.7-0.1-5.3-0.6-8.9-2.3c-4-1.9-8.5-1.9-12.4,0.1c-8.9,0.2-13.8-0.9-16.4-2l0.7-1.4
			l-9.2-3.6l-23-10.3v42.3l8.1,3.6l4.3-10.4l9.5,4.4l1.8-4.6l6.2,4.6l0.4,0.4l-0.6,0.6c-1.1,1.2-1.1,3,0,4.2l0,0
			c1.1,1.1,2.8,1.2,3.9,0.1c0,0,0.1-0.1,0.1-0.1l-0.3,0.3c-1.1,1.2-1.1,3,0,4.2l0,0c1.1,1.1,2.8,1.2,3.9,0.1c0,0,0.1-0.1,0.1-0.1
			l1.8-1.9l0,0l-1.3,1.3c-1.1,1.2-1.1,3,0,4.2l0,0c1.1,1.1,2.8,1.2,3.9,0.1c0,0,0.1-0.1,0.1-0.1l1.8-1.9l0,0l-0.8,0.8
			c-0.8,0.8-0.8,2.1,0,2.9c0.7,0.8,2,0.8,2.7,0.1c0,0,0.1,0,0.1-0.1l1.2-1.3c2.1,1.5,3.8,2.6,4.6,2.9c3.4,1.2,3.4-1.2,3.4-1.2
			c4.6,2.4,6.9-2.4,6.9-2.4c5.8,2.4,5.8-3.6,5.8-3.6c1.4,1,2.5,0.5,3.2-0.3c1-1.2,1.1-2.9,0.4-4.2l5.5-5.1l2.4,4.9l9.5-4.4l4.3,9.6
			l6.4-2.8v-41.9L457.2,339.4z"/>
		<polygon class="st22" points="455.7,361.6 445.6,370.5 437.8,356 455.7,351.5 		"/>
		<path class="st23" d="M407.8,338.2c0,0,3.2,4.5,22.3,3.3l11.1,16.7l7.5,8.4c1.2,1.3,1.2,3.3,0.1,4.7c-0.7,0.8-1.7,1.2-3.1,0.3
			c0,0,0,5.6-5.6,3.3c0,0-2.2,4.5-6.7,2.2c0,0,0,2.2-3.3,1.1c-3.3-1.1-21.2-15.6-21.2-15.6l-7.8-5.6L407.8,338.2z"/>
		<path class="st22" d="M447.9,343.7c0,0-4.8,0-9.6-2.2c-4.3-2-9.4-1.7-13.4,0.9c-3.3,2.1-6.1,5.6-6,11.3c0,0,4.3,4.5,8.9-4.5h3.3
			c0,0,3.2,11.1,12.3,10s11.1-2.2,11.1-2.2L447.9,343.7z"/>
		<path class="st22" d="M418.3,365.4l0.4,0.4c1,1,1,2.6,0,3.5l-2.6,2.6c-1,1-2.6,1-3.5,0l-0.4-0.4c-1-1-1-2.6,0-3.5l2.6-2.6
			C415.7,364.4,417.3,364.4,418.3,365.4z"/>
		<path class="st22" d="M414.7,361.2l0.4,0.4c1,1,1,2.6,0,3.5l-2.6,2.6c-1,1-2.6,1-3.5,0l-0.4-0.4c-1-1-1-2.6,0-3.5l2.6-2.6
			C412.1,360.2,413.7,360.2,414.7,361.2z"/>
		<path class="st22" d="M423.3,368.2l0.4,0.4c1,1,1,2.6,0,3.5l-3.1,3.1c-1,1-2.6,1-3.5,0l-0.4-0.4c-1-1-1-2.6,0-3.5l3.1-3.1
			C420.7,367.2,422.3,367.2,423.3,368.2z"/>
		<path class="st22" d="M426,372.1l0.3,0.3c0.7,0.7,0.7,1.8,0,2.5l-2,2c-0.7,0.7-1.8,0.7-2.5,0l-0.3-0.3c-0.7-0.7-0.7-1.8,0-2.5l2-2
			C424.2,371.5,425.3,371.5,426,372.1z"/>
		<polygon class="st13" points="466.8,363.8 456.8,368.2 446.7,343.7 455.7,340.4 		"/>
		<polygon class="st13" points="391.1,358.2 401.1,362.7 411.1,338.2 402.2,334.8 		"/>
		<polygon class="st24" points="379.9,324.8 402.2,334.8 387.7,368.2 379.9,364.9 		"/>
		<polygon class="st25" points="477.9,330.4 455.7,340.4 470.1,373.8 477.9,370.5 		"/>
	</g>
	<g>
		<circle class="st26" cx="442.8" cy="224.3" r="20.9"/>
		<g>
			<line class="st27" x1="442.8" y1="207.4" x2="442.8" y2="241.1"/>
			<line class="st27" x1="459.6" y1="224.3" x2="426" y2="224.3"/>
		</g>
		<g>
			<line class="st27" x1="454.2" y1="212.6" x2="430.9" y2="235.9"/>
			<line class="st27" x1="454.7" y1="235.9" x2="431.8" y2="213"/>
		</g>
		<g>
			<line class="st26" x1="454.6" y1="211.6" x2="441.3" y2="224.9"/>
			<line class="st26" x1="442.9" y1="222.1" x2="442.9" y2="240.9"/>
			<line class="st26" x1="443.9" y1="224.7" x2="431" y2="211.8"/>
		</g>
		<text transform="matrix(0.91 0 0 1 468.7049 242.1292)" class="st28 st29 st30">CLE</text>
		<text transform="matrix(0.91 2.338700e-03 -2.570000e-03 1 336.7783 241.9855)" class="st28 st29 st30">RE</text>
		<text transform="matrix(0.91 0 0 1 399.6409 242.1292)" class="st28 st29 st31">c</text>
		<path class="st32" d="M387.7,236.3c-1.9-1-4.2-0.4-5.3,1.5l0,0c-1,1.9-1.4,10.7-1.4,10.7s7.1-5,8.1-6.9
			C390.2,239.7,389.6,237.3,387.7,236.3C387.7,236.3,387.7,236.3,387.7,236.3z M384.5,241.9c-1-0.5-1.3-1.8-0.8-2.8
			c0.5-1,1.8-1.3,2.8-0.8c1,0.5,1.3,1.8,0.8,2.8l0,0C386.7,242.1,385.5,242.4,384.5,241.9z"/>
	</g>
</g>
</svg>
