<?xml version="1.0" encoding="utf-8"?>
<!-- Generator: Adobe Illustrator 24.1.0, SVG Export Plug-In . SVG Version: 6.00 Build 0)  -->
<svg version="1.1" id="b783d195-b08f-4839-b9b5-a9b86d08906a"
	 xmlns="http://www.w3.org/2000/svg" xmlns:xlink="http://www.w3.org/1999/xlink" x="0px" y="0px" viewBox="0 0 574.99 764"
	 style="enable-background:new 0 0 574.99 764;" xml:space="preserve">
<style type="text/css">
	.st0{fill:#F2F2F2;}
	.st1{fill:#3F3D56;}
	.st2{fill:#6C63FF;}
	.st3{fill:#A0616A;}
	.st4{fill:#2F2E41;}
	.st5{fill:#575A89;}
</style>
<g>
	<path class="st0" d="M556.94,734.84H1.18V24.17c0,0,590.05-54.39,555.76,0S556.94,734.84,556.94,734.84z"/>
	<polygon class="st1" points="558.12,736.02 0,736.02 0,22.99 332.43,22.99 332.43,25.36 2.37,25.36 2.37,733.65 555.76,733.65 
		555.76,170.13 558.12,170.13 	"/>
	<path class="st1" d="M407.15,208.15c-15.43,0-32.04-3.17-47.13-12.7c-43.78-27.65-85.8-0.3-86.21-0.02l-0.14,0.08
		c-0.39,0.19-26.34,12.64-56.9,12.64c-15.43,0-32.04-3.17-47.13-12.7c-43.78-27.65-85.8-0.3-86.21-0.02l-1.31-1.97
		c0.43-0.29,43.73-28.47,88.79-0.02c43.21,27.29,99.49,1.01,101.66-0.03c2.06-1.33,44.54-27.86,88.71,0.03
		c43.87,27.71,101.15,0.22,101.72-0.06l1.04,2.12C463.66,195.7,437.71,208.15,407.15,208.15z"/>
	<path class="st1" d="M407.15,264.91c-15.43,0-32.04-3.17-47.13-12.7c-43.78-27.65-85.8-0.3-86.21-0.02l-0.14,0.08
		c-0.39,0.19-26.34,12.64-56.9,12.64c-15.43,0-32.04-3.17-47.13-12.7c-43.78-27.65-85.8-0.3-86.21-0.02l-1.31-1.97
		c0.43-0.29,43.73-28.47,88.79-0.02c43.21,27.29,99.49,1.01,101.66-0.03c2.06-1.33,44.54-27.86,88.71,0.03
		c43.87,27.71,101.15,0.22,101.72-0.06l1.04,2.12C463.66,252.46,437.71,264.91,407.15,264.91z"/>
	<path class="st1" d="M407.15,321.67c-15.43,0-32.04-3.17-47.13-12.7c-43.78-27.65-85.8-0.3-86.21-0.02l-0.14,0.08
		c-0.39,0.19-26.34,12.64-56.9,12.64c-15.43,0-32.04-3.17-47.13-12.7c-43.78-27.65-85.8-0.3-86.21-0.02l-1.31-1.97
		c0.43-0.29,43.73-28.47,88.79-0.02c43.21,27.29,99.49,1.01,101.66-0.03c2.06-1.33,44.54-27.86,88.71,0.03
		c43.87,27.71,101.15,0.22,101.72-0.06l1.04,2.12C463.66,309.22,437.71,321.67,407.15,321.67z"/>
	<path class="st1" d="M227.92,378.52c-0.48,0-0.95-0.01-1.44-0.04c-7.74-0.48-14.6-4.88-20.4-13.07
		c-5.75-8.12-11.86-12.19-18.3-12.11c-10.75,0.14-18.81,11.97-18.89,12.09l-0.11,0.14c-0.52,0.57-12.82,13.87-27.44,12.95
		c-7.74-0.48-14.6-4.88-20.4-13.07c-5.75-8.12-11.91-12.19-18.3-12.11c-10.75,0.14-18.81,11.97-18.89,12.09l-1.96-1.32
		c0.36-0.53,8.85-12.98,20.82-13.14c7.25-0.13,14.03,4.32,20.26,13.11c5.36,7.57,11.63,11.64,18.61,12.07
		c13.03,0.8,24.61-11.19,25.5-12.13c0.82-1.2,9.16-12.91,20.77-13.05c0.07,0,0.15,0,0.22,0c7.14,0,13.88,4.41,20.04,13.11
		c5.36,7.57,11.63,11.64,18.61,12.07c13.5,0.85,25.44-12.06,25.56-12.19l1.75,1.6C253.42,366.07,241.89,378.52,227.92,378.52z"/>
	<polygon class="st1" points="334.64,603.58 223.49,603.58 223.49,527.9 308.62,527.9 308.62,530.27 225.85,530.27 225.85,601.22 
		332.27,601.22 332.27,565.74 334.64,565.74 	"/>
	<path class="st2" d="M69.77,104.58c-7.84,0-14.19-6.35-14.19-14.19S61.93,76.2,69.77,76.2c7.84,0,14.19,6.35,14.19,14.19l0,0
		C83.95,98.23,77.6,104.57,69.77,104.58z M69.77,78.57c-6.53,0-11.82,5.29-11.82,11.82c0,6.53,5.29,11.82,11.82,11.82
		c6.53,0,11.82-5.29,11.82-11.82v0C81.58,83.87,76.29,78.58,69.77,78.57L69.77,78.57z"/>
	<polygon class="st2" points="308.09,577.8 279.96,538.96 287.62,533.41 309.15,563.14 391.55,478.49 398.33,485.09 	"/>
	<path class="st3" d="M413.27,269.54c0,0,14.19,36.66-11.82,36.66s40.2,36.66,66.22,15.37s10.64-22.47,10.64-22.47
		s-34.29,3.55-33.11-27.2L413.27,269.54z"/>
	<circle class="st4" cx="429.26" cy="234.94" r="46.09"/>
	<path class="st4" d="M406.18,422.07l-44.93,115.88c0,0-22.47,35.47-14.19,70.95s27.2,99.33,27.2,99.33s21.28-8.28,20.1-23.65
		s9.46-69.77-8.28-89.87l62.67-88.68l2.36,93.41c0,0-4.73,42.57-3.55,61.49s3.55,50.85,3.55,50.85l14.19-2.36
		c0,0,24.83-87.5,22.47-115.88c0,0,44.93-138.35,0-171.46L406.18,422.07z"/>
	<path class="st4" d="M377.8,702.32c0,0-10.64,0-9.46,9.46s-9.46,55.58,13.01,52.03s24.83-26.01,24.83-41.39s1.18-16.55,3.55-20.1
		s9.46-34.29,0-33.11s-20.1,7.09-20.1,7.09S393.17,702.32,377.8,702.32z"/>
	<path class="st4" d="M458.2,702.32c0,0-16.55-2.36-15.37,3.55s-2.36,30.74,0,33.11s7.09,7.09,7.09,10.64s1.18,15.37,21.28,11.82
		s15.37-21.28,14.19-23.65s-15.37-14.19-14.19-21.28S465.3,697.59,458.2,702.32z"/>
	<circle class="st3" cx="429.83" cy="254.16" r="31.93"/>
	<path class="st5" d="M459.98,296.14c0,0,10.22,20.21-20.86,20.56c-9.76,0.11-19.07-8.28-25.25-15.83c-2.18-2.67-3.1,2.81-7.09,2.36
		c-10.64-1.18-39.61,0.59-39.61,19.51s33.11,91.05,30.74,98.14s-14.19,5.91,0,10.64s42.57-7.09,61.49,2.36s36.66-14.19,36.66-14.19
		l28.38-101.69C524.42,318.02,481.26,291.41,459.98,296.14z"/>
	<path class="st3" d="M377.8,487.11c0,0-29.56,23.65-16.55,31.93s28.38-31.93,28.38-31.93H377.8z"/>
	<path class="st3" d="M491.31,401.97c0,0-39.02,15.37-26.01,23.65s26.01-14.19,26.01-14.19V401.97z"/>
	<path class="st5" d="M378.98,310.92L378.98,310.92c-8.9,3.2-14.89,11.57-15.04,21.03l-1.51,90.12c0,0-7.09,73.31,10.64,73.31
		s30.74,5.91,33.11,0s-8.28-59.12-8.28-59.12L378.98,310.92z"/>
	<path class="st5" d="M501.96,314.47l22.47,3.55c0,0,62.67,30.74,48.48,52.03s-74.5,52.03-74.5,52.03s-22.47-10.64-15.37-17.74
		s39.02-31.93,39.02-31.93l-27.2-24.83L501.96,314.47z"/>
	<polygon class="st4" points="459.68,229.61 436.29,217.36 403.99,222.37 397.3,251.89 413.94,251.25 418.59,240.41 418.59,251.07 
		426.27,250.78 430.72,233.51 433.51,251.89 460.79,251.33 	"/>
	<circle class="st4" cx="431.68" cy="182.38" r="18.6"/>
	<path class="st4" d="M408.23,176.72c0-9.18,6.7-16.99,15.77-18.39c-10.15-1.55-19.64,5.42-21.2,15.57s5.42,19.64,15.57,21.2
		c1.86,0.29,3.76,0.29,5.63,0C414.93,193.7,408.23,185.9,408.23,176.72z"/>
	<path class="st1" d="M69.51,695.06c6.71,24.79,29.68,40.14,29.68,40.14s12.1-24.84,5.39-49.63S74.9,645.43,74.9,645.43
		S62.8,670.27,69.51,695.06z"/>
	<path class="st2" d="M79.37,689.74c18.4,17.91,20.65,45.45,20.65,45.45s-27.59-1.51-45.99-19.42s-20.65-45.45-20.65-45.45
		S60.96,671.82,79.37,689.74z"/>
</g>
</svg>
