<?xml version="1.0" encoding="utf-8"?>
<!-- Generator: Adobe Illustrator 24.1.0, SVG Export Plug-In . SVG Version: 6.00 Build 0)  -->
<svg version="1.1" id="Layer_1" xmlns="http://www.w3.org/2000/svg" xmlns:xlink="http://www.w3.org/1999/xlink" x="0px" y="0px"
	 viewBox="0 0 1024 768" style="enable-background:new 0 0 1024 768;" xml:space="preserve">
<style type="text/css">
	.st0{fill:#F2F2F2;}
	.st1{fill:none;stroke:#3F3D56;stroke-width:4;stroke-miterlimit:10;}
	.st2{fill:#6C63FF;}
	.st3{opacity:0.1;enable-background:new    ;}
</style>
<g>
	<path class="st0" d="M238.8,529.4l-6.3-3.9c-0.6-0.4-1.2-0.8-1.8-1.2c32.6-5.6,54.4-36.6,48.8-69.1c-3.9-22.8-20.6-41.2-42.8-47.5
		l0.3,24.7l-13.5-26.8h-0.2c-33-1.5-61,24-62.6,57c-0.1,1.1,0,2.3,0,3.4c-4.7-5.4-9-11.1-11.8-17.5c-5.7-12.8-5.8-27.3-5.4-44.9
		c0.9-34.9,2.4-70.1,4.4-105.1c29.2-3.3,51.8-27.3,53.2-56.6c0.1-1.8,0-3.6,0-5.4c0-0.5,0-0.9-0.1-1.3c-0.1-1.7-0.3-3.5-0.6-5.2
		c0-0.3-0.1-0.5-0.1-0.8c-0.2-1.4-0.5-2.9-0.9-4.3c-0.1-0.5-0.3-1-0.4-1.6c-0.4-1.5-0.9-3-1.4-4.5c-0.2-0.5-0.4-1-0.6-1.5
		c-0.4-1.1-0.9-2.2-1.4-3.2c-0.3-0.6-0.5-1.1-0.8-1.7c-0.1-0.1-0.1-0.3-0.2-0.4l0,0c-13-25.7-42.6-38.5-70.3-30.4l0.4,32.1
		l-13.4-26.5c-22.6,13-34.2,39.1-28.6,64.5h-0.1c0.1,0.4,0.2,0.8,0.3,1.3c0.2,0.8,0.4,1.6,0.6,2.4c0.3,1,0.6,2,0.9,3
		c0.2,0.7,0.5,1.5,0.8,2.2c0.4,1.1,0.9,2.1,1.3,3.1c0.3,0.6,0.5,1.2,0.8,1.8c0.8,1.5,1.6,3.1,2.5,4.5c0.3,0.5,0.7,1,1,1.5
		c0.6,1,1.3,2,2,2.9c0.4,0.6,0.9,1.2,1.3,1.7c0.7,0.8,1.3,1.6,2,2.4c0.5,0.6,1,1.1,1.5,1.7c0.7,0.8,1.5,1.5,2.3,2.3
		c0.5,0.5,1,1,1.6,1.5c0.9,0.8,1.8,1.5,2.7,2.3c0.5,0.4,0.9,0.8,1.4,1.1c1.4,1,2.9,2,4.4,3c0.3,0.2,0.6,0.3,0.9,0.5
		c1.3,0.7,2.6,1.5,3.9,2.1c0.6,0.3,1.2,0.5,1.7,0.8c1.1,0.5,2.2,1,3.3,1.4l2,0.7c1.1,0.4,2.2,0.7,3.3,1c0.7,0.2,1.3,0.4,2,0.5
		c1.2,0.3,2.5,0.5,3.7,0.8l0.2,0c-0.8,14.8-1.6,29.6-2.2,44.4c-14.5-29.7-50.3-42.1-80-27.6c-1,0.5-2.1,1-3.1,1.6l10.6,29
		l-21.8-20.9c-11.7,10.7-18.7,25.5-19.4,41.4c-0.3,5.5,0.2,11.1,1.5,16.5c7.5,32.2,39.7,52.1,71.9,44.6c16.1-3.8,29.9-14,38.1-28.3
		c0,1.5-0.1,3-0.1,4.5c-0.4,15.5-0.9,34.9,6.8,52.1c5.3,11.7,13.7,21.2,22,29.7c5.4,5.5,11.1,10.9,16.8,16.1
		c5.7,7.6,13.1,13.8,21.6,18c9.5,7.3,19.3,14.2,29.5,20.5l6.3,3.9c5.7,3.5,11.5,7.2,17.3,10.9c-1-0.1-2-0.2-3-0.3
		c-26-1.2-49.9,14.6-58.9,39l37.4,30.4l-41.1-9.5c0.1,33.1,26.9,59.8,60,59.8c9,0,17.8-2,25.9-5.9l-2.8,3.5
		c-1.8,2.3-3.7,4.6-5.5,6.8c-24.3,30.8-31.1,60.1-19.1,82.4l14.7-7.9c-11.7-21.7,5.9-49.5,17.5-64.2c1.8-2.2,3.5-4.5,5.4-6.7
		c15.5-19.3,33.2-41.2,32.7-68.1C309.7,573.3,270.5,548.9,238.8,529.4z"/>
	<path class="st1" d="M191.4,760.9c6.6-12.3-0.9-27.3-9.6-38.3c-8.7-11-19.2-22.4-19-36.3c0.3-20.1,21.6-31.9,38.6-42.5
		c12.6-7.9,24.3-17.3,34.7-27.9c4.2-4.3,8.2-8.8,10.7-14.3c3.5-7.8,3.4-16.8,3.2-25.4c-0.7-28.6-2.2-57.2-4.2-85.8"/>
	<path class="st2" d="M278.1,488.9c-0.5-10.7-6.4-20.3-15.6-25.6l-7,13.9l0.2-16.8c-16.6-4.9-34,4.6-38.9,21.2
		c-4.9,16.6,4.6,34,21.2,38.9c16.6,4.9,34-4.6,38.9-21.2C277.9,495.9,278.3,492.4,278.1,488.9L278.1,488.9z"/>
	<path class="st2" d="M222.4,700.6c-7.9,15.4-26.8,21.5-42.2,13.6c-15.4-7.9-21.5-26.8-13.6-42.2c7.9-15.4,26.8-21.5,42.2-13.6
		c7,3.6,12.4,9.6,15.1,17l-19.5,15.9l21.5-5C225.8,691.3,224.6,696.2,222.4,700.6z"/>
	<path class="st2" d="M206.9,639.9c-17.3,0.7-31.9-12.8-32.5-30.1c-0.6-14.4,8.8-27.3,22.6-31.3l-0.2,12.9l7.1-14h0.1
		c17.2-1.7,32.6,10.9,34.2,28.1c1.7,17.2-10.9,32.6-28.1,34.2C209.1,639.8,208,639.9,206.9,639.9L206.9,639.9z"/>
	<path class="st2" d="M282.9,589.3c-17.3,0.9-32-12.4-32.9-29.6c-0.9-17.3,12.4-32,29.6-32.9c6-0.3,11.9,1.1,17.1,4l-5.5,15.2
		l11.4-10.9c6.1,5.6,9.7,13.3,10.1,21.6c0.1,2.9-0.1,5.8-0.8,8.6C308.6,578.8,296.8,588.6,282.9,589.3z"/>
	<path class="st3" d="M273.9,497.2c-7.2,0.8-14.2,3-21.5,3.5c-7.3,0.5-15.2-1.3-19.8-6.9c-2.5-3-3.8-6.9-5.8-10.2
		c-2-3.1-4.7-5.6-7.9-7.4c-8,15.4-2,34.3,13.4,42.3c15.4,8,34.3,2,42.3-13.4c1.3-2.6,2.3-5.3,2.9-8.1
		C276.3,497,275.1,497.1,273.9,497.2z"/>
	<path class="st3" d="M282.9,589.3c-17.3,0.8-31.9-12.6-32.7-29.9c-0.2-5.1,0.8-10.1,2.9-14.7c2.5,1.7,4.6,3.8,6.3,6.3
		c2.2,3.4,3.6,7.3,6.3,10.3c4.9,5.7,13.2,7.6,20.7,7.3c7.5-0.3,14.8-2.5,22.4-3.2c1-0.1,2.1-0.2,3.1-0.2
		C308.7,578.8,296.8,588.7,282.9,589.3z"/>
	<path class="st3" d="M206.9,639.9c-17.3,0.8-32-12.6-32.8-29.8c-0.2-4.9,0.7-9.8,2.7-14.2c2.6,1.7,4.8,3.9,6.6,6.4
		c2.4,3.4,3.9,7.4,6.8,10.5c5.3,5.9,14.2,8,22.2,7.8c7.7-0.2,15.2-2.1,22.9-2.7C231.4,630.4,220.1,639.2,206.9,639.9z"/>
	<path class="st3" d="M222.4,700.6c-8.2,15.2-27.2,21-42.4,12.8c-13.7-7.4-19.9-23.7-14.6-38.3c2.6,1.7,4.9,3.8,6.9,6.1
		c3,3.6,4.9,7.7,8.4,11.1c6.4,6.3,16.7,8.9,25.9,9.1C211.8,701.5,217.1,701.2,222.4,700.6z"/>
</g>
<g>
	<path class="st0" d="M722.6,619.8c-0.4,26.9,17.2,48.8,32.7,68.1c1.8,2.2,3.6,4.5,5.4,6.7c11.6,14.6,29.2,42.4,17.5,64.2l14.7,7.9
		c12.1-22.3,5.3-51.6-19.1-82.4c-1.8-2.3-3.6-4.5-5.4-6.8l-2.8-3.5c8.1,3.9,16.9,5.9,25.9,5.9c33.1,0.1,59.9-26.7,60-59.8l-41.1,9.5
		l37.4-30.4c-9.1-24.4-32.9-40.2-58.9-39c-1,0-2,0.2-3,0.3c5.7-3.8,11.6-7.4,17.3-10.9l6.3-3.9c10.2-6.3,20-13.2,29.5-20.5
		c8.5-4.2,15.9-10.4,21.6-18c5.8-5.2,11.4-10.6,16.8-16.1c8.3-8.5,16.8-18,22-29.7c7.8-17.3,7.2-36.6,6.8-52.1c0-1.5-0.1-3-0.1-4.5
		c8.3,14.3,22.1,24.5,38.1,28.3c32.2,7.5,64.4-12.4,71.9-44.6c1.3-5.4,1.8-10.9,1.5-16.5c-0.7-15.8-7.7-30.7-19.4-41.4l-21.8,20.9
		l10.6-29c-1-0.6-2-1.1-3.1-1.6c-29.7-14.5-65.5-2.1-80,27.6c-0.6-14.8-1.4-29.6-2.2-44.4l0.2,0c1.3-0.2,2.5-0.5,3.7-0.8
		c0.7-0.2,1.3-0.4,2-0.5c1.1-0.3,2.2-0.6,3.3-1l2-0.7c1.1-0.4,2.2-0.9,3.3-1.4c0.6-0.3,1.2-0.5,1.7-0.8c1.3-0.6,2.6-1.4,3.9-2.1
		c0.3-0.2,0.6-0.3,0.9-0.5c1.5-1,3-2,4.4-3c0.5-0.4,0.9-0.7,1.4-1.1c0.9-0.7,1.9-1.5,2.7-2.3c0.6-0.5,1-1,1.6-1.5
		c0.8-0.7,1.5-1.5,2.3-2.3c0.5-0.5,1-1.1,1.5-1.7c0.7-0.8,1.3-1.6,2-2.4c0.5-0.6,0.9-1.1,1.3-1.7c0.7-0.9,1.4-1.9,2-2.9
		c0.3-0.5,0.7-1,1-1.5c0.9-1.5,1.7-3,2.5-4.5c0.3-0.6,0.5-1.2,0.8-1.8c0.5-1,0.9-2.1,1.3-3.1c0.3-0.7,0.5-1.5,0.8-2.2
		c0.3-1,0.6-2,0.9-3c0.2-0.8,0.4-1.6,0.6-2.4c0.1-0.4,0.2-0.8,0.3-1.3h-0.1c5.6-25.4-6-51.6-28.5-64.5l-13.4,26.5l0.4-32.1
		c-27.7-8.1-57.2,4.6-70.3,30.4l0,0c-0.1,0.1-0.1,0.3-0.2,0.4c-0.3,0.6-0.5,1.1-0.8,1.7c-0.5,1.1-1,2.1-1.4,3.2
		c-0.2,0.5-0.4,1-0.6,1.5c-0.5,1.5-1,3-1.4,4.5c-0.1,0.5-0.3,1-0.4,1.6c-0.3,1.4-0.6,2.8-0.9,4.3c0,0.3-0.1,0.5-0.1,0.8
		c-0.3,1.7-0.4,3.4-0.5,5.2c-0.1,0.4-0.1,0.9-0.1,1.3c-0.1,1.8-0.1,3.6,0,5.4c1.4,29.4,23.9,53.4,53.2,56.6
		c2,35.1,3.5,70.2,4.4,105.1c0.5,17.6,0.3,32.1-5.4,44.9c-2.8,6.3-7.1,12.1-11.8,17.5c0-1.1,0.1-2.2,0-3.4
		c-1.5-33-29.6-58.5-62.6-57h-0.2l-13.6,26.8l0.3-24.7c-22.2,6.2-38.9,24.7-42.8,47.5c-5.6,32.6,16.3,63.5,48.8,69.1
		c-0.6,0.4-1.2,0.8-1.8,1.2l-6.3,3.9C762.6,554.9,723.3,579.3,722.6,619.8z"/>
	<path class="st1" d="M787.2,496.4c-2.1,28.6-3.5,57.2-4.2,85.8c-0.2,8.6-0.3,17.5,3.2,25.4c2.4,5.5,6.5,10,10.7,14.3
		c10.4,10.6,22.1,20,34.7,27.9c17,10.6,38.3,22.5,38.6,42.5c0.2,14-10.3,25.4-19,36.3c-8.7,11-16.2,26-9.6,38.3"/>
	<path class="st2" d="M754.9,494.9c-0.2,3.5,0.3,7,1.3,10.4c4.9,16.6,22.3,26.1,38.9,21.2c16.6-4.9,26.1-22.3,21.2-38.9
		c-4.9-16.6-22.3-26.1-38.9-21.2l0.2,16.8l-7-13.9C761.3,474.5,755.4,484.2,754.9,494.9L754.9,494.9z"/>
	<path class="st2" d="M807.2,692.3l21.5,5l-19.5-15.9c2.7-7.3,8.1-13.4,15.1-17c15.4-7.9,34.3-1.8,42.2,13.6
		c7.9,15.4,1.8,34.3-13.6,42.2c-15.4,7.9-34.3,1.8-42.2-13.6C808.4,702.2,807.2,697.3,807.2,692.3z"/>
	<path class="st2" d="M826.1,645.9c-1.1,0-2.1,0-3.2-0.1c-17.2-1.7-29.8-17-28.1-34.2c1.7-17.2,17-29.8,34.2-28.1h0.1l7.1,14
		l-0.2-12.9c13.9,4,23.2,16.9,22.6,31.3C857.9,633.1,843.4,646.6,826.1,645.9L826.1,645.9z"/>
	<path class="st2" d="M721.2,571.2c-0.7-2.8-0.9-5.7-0.8-8.6c0.4-8.3,4-16,10.1-21.6l11.4,10.9l-5.5-15.2c5.2-2.9,11.1-4.3,17.1-4
		c17.3,0.9,30.5,15.7,29.6,32.9c-0.9,17.3-15.7,30.5-32.9,29.6C736.2,594.6,724.4,584.8,721.2,571.2z"/>
	<path class="st3" d="M755.5,502.9c0.6,2.8,1.6,5.6,2.9,8.1c8,15.4,26.9,21.3,42.3,13.4c15.4-8,21.3-26.9,13.4-42.3
		c-3.2,1.8-5.9,4.3-7.9,7.4c-2,3.3-3.3,7.2-5.8,10.2c-4.6,5.7-12.5,7.4-19.8,6.9c-7.3-0.5-14.3-2.7-21.5-3.5
		C757.9,503.1,756.7,503,755.5,502.9z"/>
	<path class="st3" d="M721.1,571.2c1.1,0,2.1,0.1,3.1,0.2c7.5,0.7,14.8,2.8,22.4,3.2c7.5,0.3,15.9-1.5,20.7-7.3
		c2.7-3.1,4-7,6.3-10.3c1.7-2.5,3.8-4.6,6.3-6.3c2.2,4.6,3.2,9.7,2.9,14.7c-0.8,17.3-15.4,30.7-32.7,29.9
		C736.2,594.7,724.3,584.8,721.1,571.2z"/>
	<path class="st3" d="M797.7,623.8c7.7,0.6,15.2,2.5,22.9,2.7c8,0.2,16.9-1.9,22.2-7.8c2.8-3.2,4.4-7.1,6.8-10.5
		c1.8-2.5,4-4.7,6.6-6.4c2,4.5,2.9,9.3,2.7,14.2c-0.8,17.3-15.5,30.6-32.8,29.8C812.9,645.2,801.6,636.4,797.7,623.8z"/>
	<path class="st3" d="M826.6,707.5c9.2-0.2,19.5-2.8,25.9-9.1c3.4-3.4,5.4-7.5,8.4-11.1c2-2.4,4.3-4.4,6.9-6.1
		c5.3,14.6-0.9,30.9-14.6,38.3c-15.2,8.2-34.2,2.5-42.4-12.8C816,707.2,821.3,707.5,826.6,707.5z"/>
</g>
<g>
	<path class="st0" d="M464.8,629.8l-3.6-2.2c-0.3-0.2-0.7-0.4-1-0.7c18.6-3.2,31.1-20.8,27.9-39.4c-2.2-13-11.7-23.5-24.4-27.1
		l0.2,14.1l-7.7-15.3H456c-18.8-0.9-34.8,13.7-35.7,32.5c0,0.7,0,1.3,0,1.9c-2.7-3.1-5.1-6.4-6.7-10c-3.3-7.3-3.3-15.6-3.1-25.6
		c0.5-19.9,1.4-40,2.5-60c16.7-1.9,29.5-15.5,30.3-32.3c0-1,0-2.1,0-3.1c0-0.3,0-0.5,0-0.8c-0.1-1-0.2-2-0.3-2.9
		c0-0.2-0.1-0.3-0.1-0.5c-0.1-0.8-0.3-1.6-0.5-2.4c-0.1-0.3-0.1-0.6-0.2-0.9c-0.2-0.9-0.5-1.7-0.8-2.6c-0.1-0.3-0.2-0.6-0.3-0.8
		c-0.2-0.6-0.5-1.2-0.8-1.8c-0.1-0.3-0.3-0.6-0.4-1c0-0.1-0.1-0.2-0.1-0.2l0,0c-7.4-14.7-24.3-22-40.1-17.3l0.2,18.3l-7.6-15.1
		c-12.9,7.4-19.5,22.3-16.3,36.8h-0.1c0.1,0.2,0.1,0.5,0.2,0.7c0.1,0.5,0.2,0.9,0.3,1.3c0.2,0.6,0.3,1.1,0.5,1.7
		c0.1,0.4,0.3,0.8,0.4,1.3c0.2,0.6,0.5,1.2,0.8,1.8c0.2,0.3,0.3,0.7,0.5,1c0.4,0.9,0.9,1.7,1.4,2.6c0.2,0.3,0.4,0.6,0.6,0.9
		c0.4,0.6,0.7,1.1,1.1,1.7c0.2,0.3,0.5,0.7,0.8,1c0.4,0.5,0.8,0.9,1.1,1.4c0.3,0.3,0.6,0.6,0.9,0.9c0.4,0.4,0.8,0.9,1.3,1.3
		c0.3,0.3,0.6,0.6,0.9,0.8c0.5,0.5,1,0.9,1.6,1.3c0.3,0.2,0.5,0.4,0.8,0.6c0.8,0.6,1.6,1.1,2.5,1.7c0.2,0.1,0.3,0.2,0.5,0.3
		c0.7,0.4,1.5,0.8,2.2,1.2c0.3,0.2,0.7,0.3,1,0.5c0.6,0.3,1.2,0.5,1.9,0.8l1.1,0.4c0.6,0.2,1.3,0.4,1.9,0.6c0.4,0.1,0.8,0.2,1.1,0.3
		c0.7,0.2,1.4,0.3,2.1,0.4l0.1,0c-0.5,8.4-0.9,16.9-1.3,25.3c-8.2-16.9-28.7-24-45.6-15.7c-0.6,0.3-1.2,0.6-1.8,0.9l6,16.5
		l-12.4-11.9c-6.7,6.1-10.6,14.6-11.1,23.6c-0.2,3.2,0.1,6.3,0.9,9.4c4.3,18.3,22.7,29.7,41,25.4c9.2-2.1,17-8,21.7-16.1
		c0,0.9-0.1,1.7-0.1,2.6c-0.2,8.9-0.5,19.9,3.9,29.7c3,6.7,7.8,12.1,12.5,17c3.1,3.2,6.3,6.2,9.6,9.2c3.2,4.3,7.5,7.9,12.3,10.3
		c5.4,4.2,11,8.1,16.8,11.7l3.6,2.2c3.3,2,6.6,4.1,9.8,6.2c-0.6-0.1-1.1-0.1-1.7-0.1c-14.8-0.7-28.4,8.3-33.6,22.2l21.3,17.4
		l-23.5-5.4c0,18.9,15.4,34.1,34.2,34.1c5.1,0,10.2-1.2,14.8-3.4l-1.6,2c-1,1.3-2.1,2.6-3.1,3.9c-13.9,17.6-17.7,34.3-10.9,47
		l8.4-4.5c-6.7-12.4,3.4-28.2,10-36.6c1-1.3,2-2.5,3.1-3.8c8.9-11,18.9-23.5,18.7-38.8C505.3,654.8,482.9,640.9,464.8,629.8z"/>
	<path class="st1" d="M437.8,761.8c3.8-7-0.5-15.6-5.4-21.8c-4.9-6.3-10.9-12.8-10.8-20.7c0.2-11.4,12.3-18.2,22-24.3
		c7.2-4.5,13.8-9.8,19.8-15.9c2.4-2.4,4.7-5,6.1-8.1c2-4.5,2-9.6,1.8-14.5c-0.4-16.3-1.2-32.6-2.4-48.9"/>
	<path class="st2" d="M487.3,606.7c-0.3-6.1-3.6-11.6-8.9-14.6l-4,7.9l0.1-9.6c-9.5-2.8-19.4,2.6-22.2,12.1
		c-2.8,9.5,2.6,19.4,12.1,22.2c9.5,2.8,19.4-2.6,22.2-12.1C487.1,610.7,487.4,608.7,487.3,606.7L487.3,606.7z"/>
	<path class="st2" d="M455.4,727.4c-4.5,8.8-15.3,12.2-24.1,7.7c-8.8-4.5-12.2-15.3-7.7-24.1c4.5-8.8,15.3-12.2,24.1-7.7
		c4,2,7,5.5,8.6,9.7l-11.1,9.1l12.3-2.9C457.4,722.1,456.7,724.9,455.4,727.4z"/>
	<path class="st2" d="M446.7,692.8c-9.9,0.4-18.2-7.3-18.6-17.1c-0.3-8.2,5-15.6,12.9-17.9l-0.1,7.4l4-8h0c9.8-1,18.6,6.2,19.5,16
		s-6.2,18.6-16,19.5C447.9,692.7,447.3,692.8,446.7,692.8L446.7,692.8z"/>
	<path class="st2" d="M489.9,664c-9.9,0.5-18.3-7-18.8-16.9c-0.5-9.9,7-18.3,16.9-18.8c3.4-0.2,6.8,0.6,9.7,2.3l-3.2,8.6l6.5-6.2
		c3.5,3.2,5.6,7.6,5.8,12.3c0.1,1.7-0.1,3.3-0.5,4.9C504.6,658,497.9,663.6,489.9,664z"/>
	<path class="st3" d="M484.9,611.4c-4.1,0.5-8.1,1.7-12.3,2c-4.1,0.3-8.7-0.7-11.3-3.9c-1.4-1.7-2.1-3.9-3.3-5.8
		c-1.1-1.8-2.7-3.2-4.5-4.2c-4.5,8.8-1.1,19.5,7.6,24.1s19.5,1.1,24.1-7.6c0.8-1.5,1.3-3,1.6-4.6
		C486.2,611.3,485.5,611.3,484.9,611.4z"/>
	<path class="st3" d="M489.9,664c-9.9,0.4-18.2-7.2-18.7-17c-0.1-2.9,0.4-5.8,1.7-8.4c1.4,0.9,2.6,2.2,3.6,3.6
		c1.3,1.9,2,4.1,3.6,5.9c2.8,3.3,7.5,4.3,11.8,4.1c4.3-0.2,8.5-1.4,12.8-1.8c0.6,0,1.2-0.1,1.8-0.1C504.7,658,497.9,663.6,489.9,664
		z"/>
	<path class="st3" d="M446.7,692.8c-9.9,0.5-18.2-7.2-18.7-17c-0.1-2.8,0.4-5.6,1.5-8.1c1.5,1,2.7,2.2,3.8,3.6c1.4,2,2.3,4.2,3.9,6
		c3,3.4,8.1,4.5,12.6,4.4c4.4-0.1,8.7-1.2,13.1-1.5C460.6,687.4,454.2,692.4,446.7,692.8z"/>
	<path class="st3" d="M455.4,727.4c-4.7,8.7-15.5,12-24.2,7.3c-7.8-4.2-11.4-13.5-8.3-21.8c1.5,1,2.8,2.1,3.9,3.5
		c1.7,2.1,2.8,4.4,4.8,6.3c3.7,3.6,9.5,5.1,14.8,5.2C449.4,727.9,452.4,727.8,455.4,727.4z"/>
</g>
<g>
	<path class="st0" d="M547.7,677.9c-0.2,15.3,9.8,27.8,18.7,38.8c1,1.3,2.1,2.6,3.1,3.8c6.6,8.3,16.7,24.2,10,36.6l8.4,4.5
		c6.9-12.7,3-29.4-10.9-47c-1-1.3-2.1-2.6-3.1-3.9l-1.6-2c4.6,2.2,9.7,3.4,14.8,3.4c18.9,0,34.2-15.2,34.2-34.1l-23.5,5.4l21.3-17.4
		c-5.2-13.9-18.8-22.9-33.6-22.2c-0.6,0-1.1,0.1-1.7,0.1c3.3-2.1,6.6-4.2,9.8-6.2l3.6-2.2c5.8-3.6,11.4-7.5,16.8-11.7
		c4.9-2.4,9.1-5.9,12.3-10.3c3.3-3,6.5-6,9.6-9.2c4.7-4.9,9.6-10.3,12.5-17c4.4-9.8,4.1-20.9,3.9-29.7c0-0.9-0.1-1.7-0.1-2.6
		c4.7,8.1,12.6,14,21.7,16.1c18.3,4.3,36.7-7.1,41-25.4c0.7-3.1,1-6.2,0.9-9.4c-0.4-9-4.4-17.5-11.1-23.6l-12.4,11.9l6-16.5
		c-0.6-0.3-1.2-0.6-1.8-0.9c-16.9-8.2-37.4-1.2-45.6,15.7c-0.4-8.4-0.8-16.9-1.3-25.3l0.1,0c0.7-0.1,1.4-0.3,2.1-0.4
		c0.4-0.1,0.8-0.2,1.1-0.3c0.6-0.2,1.3-0.4,1.9-0.6l1.1-0.4c0.6-0.2,1.3-0.5,1.9-0.8c0.3-0.1,0.7-0.3,1-0.5c0.8-0.4,1.5-0.8,2.2-1.2
		c0.2-0.1,0.3-0.2,0.5-0.3c0.9-0.6,1.7-1.1,2.5-1.7c0.3-0.2,0.5-0.4,0.8-0.6c0.5-0.4,1.1-0.8,1.6-1.3c0.3-0.3,0.6-0.6,0.9-0.8
		c0.4-0.4,0.9-0.8,1.3-1.3c0.3-0.3,0.6-0.6,0.9-0.9c0.4-0.5,0.8-0.9,1.1-1.4c0.3-0.3,0.5-0.7,0.8-1c0.4-0.5,0.8-1.1,1.1-1.7
		c0.2-0.3,0.4-0.6,0.6-0.9c0.5-0.8,1-1.7,1.4-2.6c0.2-0.3,0.3-0.7,0.5-1c0.3-0.6,0.5-1.2,0.8-1.8c0.2-0.4,0.3-0.8,0.4-1.3
		c0.2-0.6,0.4-1.1,0.5-1.7c0.1-0.4,0.2-0.9,0.3-1.3c0.1-0.2,0.1-0.5,0.2-0.7h-0.1c3.2-14.5-3.4-29.4-16.3-36.8l-7.6,15.1l0.2-18.3
		c-15.8-4.6-32.6,2.6-40.1,17.3l0,0c0,0.1-0.1,0.2-0.1,0.2c-0.2,0.3-0.3,0.6-0.4,1c-0.3,0.6-0.5,1.2-0.8,1.8
		c-0.1,0.3-0.2,0.6-0.3,0.8c-0.3,0.9-0.6,1.7-0.8,2.6c-0.1,0.3-0.2,0.6-0.2,0.9c-0.2,0.8-0.4,1.6-0.5,2.4c0,0.2-0.1,0.3-0.1,0.5
		c-0.2,1-0.2,2-0.3,2.9c0,0.3,0,0.5,0,0.8c0,1,0,2.1,0,3.1c0.8,16.8,13.6,30.4,30.3,32.3c1.1,20,2,40.1,2.5,60
		c0.3,10,0.2,18.3-3.1,25.6c-1.6,3.6-4.1,6.9-6.7,10c0-0.6,0-1.3,0-1.9c-0.9-18.8-16.9-33.4-35.7-32.5h-0.1l-7.7,15.3l0.2-14.1
		c-12.7,3.6-22.2,14.1-24.4,27.1c-3.2,18.6,9.3,36.2,27.9,39.4c-0.3,0.2-0.7,0.4-1,0.7l-3.6,2.2
		C570.5,640.9,548.1,654.8,547.7,677.9z"/>
	<path class="st1" d="M584.5,607.5c-1.2,16.3-2,32.6-2.4,48.9c-0.1,4.9-0.2,10,1.8,14.5c1.4,3.1,3.7,5.7,6.1,8.1
		c5.9,6.1,12.6,11.4,19.8,15.9c9.7,6.1,21.8,12.8,22,24.3c0.1,8-5.9,14.5-10.8,20.7c-4.9,6.3-9.2,14.8-5.4,21.8"/>
	<path class="st2" d="M566.1,606.7c-0.1,2,0.1,4,0.7,5.9c2.8,9.5,12.7,14.9,22.2,12.1c9.5-2.8,14.9-12.7,12.1-22.2
		c-2.8-9.5-12.7-14.9-22.2-12.1l0.1,9.6l-4-7.9C569.7,595.1,566.4,600.6,566.1,606.7L566.1,606.7z"/>
	<path class="st2" d="M595.9,719.3l12.3,2.9l-11.1-9.1c1.6-4.2,4.6-7.6,8.6-9.7c8.8-4.5,19.5-1,24.1,7.7c4.5,8.8,1,19.5-7.7,24.1
		c-8.8,4.5-19.5,1-24.1-7.7C596.6,724.9,595.9,722.1,595.9,719.3z"/>
	<path class="st2" d="M606.7,692.8c-0.6,0-1.2,0-1.8-0.1c-9.8-1-17-9.7-16-19.5s9.7-17,19.5-16h0l4,8l-0.1-7.4
		c7.9,2.3,13.2,9.7,12.9,17.9C624.9,685.5,616.6,693.2,606.7,692.8L606.7,692.8z"/>
	<path class="st2" d="M546.9,650.2c-0.4-1.6-0.5-3.3-0.5-4.9c0.2-4.7,2.3-9.1,5.8-12.3l6.5,6.2l-3.2-8.6c3-1.7,6.3-2.5,9.7-2.3
		c9.9,0.5,17.4,8.9,16.9,18.8c-0.5,9.9-8.9,17.4-18.8,16.9C555.5,663.6,548.7,658,546.9,650.2z"/>
	<path class="st3" d="M566.5,611.3c0.3,1.6,0.9,3.2,1.6,4.6c4.5,8.8,15.3,12.2,24.1,7.6c8.8-4.5,12.2-15.3,7.6-24.1
		c-1.8,1-3.4,2.5-4.5,4.2c-1.2,1.9-1.9,4.1-3.3,5.8c-2.6,3.2-7.1,4.2-11.3,3.9c-4.1-0.3-8.1-1.5-12.3-2
		C567.8,611.3,567.1,611.3,566.5,611.3z"/>
	<path class="st3" d="M546.9,650.2c0.6,0,1.2,0.1,1.8,0.1c4.3,0.4,8.5,1.6,12.8,1.8c4.3,0.2,9.1-0.9,11.8-4.1c1.5-1.8,2.3-4,3.6-5.9
		c0.9-1.4,2.2-2.6,3.6-3.6c1.2,2.6,1.8,5.5,1.7,8.4c-0.4,9.9-8.8,17.5-18.7,17C555.4,663.6,548.7,658,546.9,650.2z"/>
	<path class="st3" d="M590.5,680.2c4.4,0.3,8.6,1.4,13.1,1.5c4.6,0.1,9.6-1.1,12.6-4.4c1.6-1.8,2.5-4.1,3.9-6c1-1.4,2.3-2.7,3.8-3.6
		c1.1,2.5,1.7,5.3,1.5,8.1c-0.5,9.9-8.8,17.5-18.7,17C599.2,692.4,592.7,687.4,590.5,680.2z"/>
	<path class="st3" d="M607,727.9c5.2-0.1,11.1-1.6,14.8-5.2c2-1.9,3.1-4.3,4.8-6.3c1.1-1.3,2.4-2.5,3.9-3.5c3,8.3-0.5,17.6-8.3,21.8
		c-8.7,4.7-19.5,1.4-24.2-7.3C600.9,727.8,603.9,727.9,607,727.9z"/>
</g>
</svg>
