<?xml version="1.0" encoding="utf-8"?>
<!-- Generator: Adobe Illustrator 24.1.0, SVG Export Plug-In . SVG Version: 6.00 Build 0)  -->
<svg version="1.1" id="f0051780-5d5f-44ea-91ae-bcb48dc19fdb"
	 xmlns="http://www.w3.org/2000/svg" xmlns:xlink="http://www.w3.org/1999/xlink" x="0px" y="0px" viewBox="0 0 1054.7 840.2"
	 style="enable-background:new 0 0 1054.7 840.2;" xml:space="preserve">
<style type="text/css">
	.st0{opacity:0.1;fill:#6C63FF;enable-background:new    ;}
	.st1{fill:none;stroke:#535461;stroke-width:2;stroke-miterlimit:10;}
	.st2{fill:#6C63FF;}
	.st3{opacity:0.25;enable-background:new    ;}
	.st4{opacity:0.1;enable-background:new    ;}
	.st5{fill:#FFD037;}
	.st6{fill:#A8A8A8;}
	.st7{opacity:0.2;enable-background:new    ;}
	.st8{fill:url(#SVGID_1_);}
	.st9{fill:#D38884;}
	.st10{fill:#4C4981;}
	.st11{fill:#FEBFBA;}
	.st12{fill:#E6E8EC;}
	.st13{fill:#FF718D;}
	.st14{fill:#626696;}
	.st15{fill:#36123A;}
	.st16{opacity:0.1;}
	.st17{fill:#B15885;}
	.st18{fill:#1E1637;}
	.st19{fill:#FFCDE5;}
	.st20{fill:#FF90C9;}
	.st21{fill:#985C7E;}
	.st22{fill:#FFD2C6;}
	.st23{fill:#CEDDF9;}
	.st24{fill:#F86280;}
	.st25{fill:#FFFFFF;}
	.st26{fill:#CC8294;}
	.st27{fill:#C4E0FF;}
	.st28{fill:#FFD765;}
	.st29{fill:#3A3768;}
	.st30{fill:#8CB11E;stroke:#F79C9C;stroke-width:9;stroke-miterlimit:10;}
	.st31{stroke:#F2F2F7;stroke-width:6;stroke-miterlimit:10;}
</style>
<path class="st0" d="M1034.5,215.9c-10.3-24-24.3-46.3-41.4-66l-574.4-5.6l472.9-66.4c-30.5-12.2-63.1-18.6-95.9-19
	C702.8-15.4,572.1-19.8,474.4,48c-38-19.5-80.2-29.7-122.9-29.6c-127.6,0-233.9,88.4-257.8,205.6L1034.5,215.9z"/>
<path class="st0" d="M1054.7,314.2c0-31.8-6.1-63.3-17.9-92.8L41.3,326c-10.2,18.6-18.1,38.4-23.3,58.9l308.3,46L11,464.3
	C20.5,597,134.2,701.8,273.2,701.8c69.9,0,133.5-26.6,180.6-69.8c47.2,44.1,111.4,71.2,182.1,71.2c104.9,0,195.4-59.7,237.6-146.1
	c84.6-26.8,150.3-94.3,172.8-178.6L656.4,318h398.2C1054.7,316.8,1054.7,315.5,1054.7,314.2z"/>
<path class="st1" d="M678.9,790.9c0,0,31.5-55.8,79-71.9c19.9-6.6,37.2-19.5,49.2-36.8c5.6-8.2,10.4-17,14.5-26.1"/>
<path class="st2" d="M851.3,645.8c-5.4,5.2-30.6,10.7-30.6,10.7s6.2-25,11.6-30.2c5.4-5.2,14-5.1,19.3,0.3
	C856.9,631.9,856.7,640.5,851.3,645.8L851.3,645.8z"/>
<path class="st2" d="M837.1,691c-7.4,1.5-31.5-7.7-31.5-7.7s18.8-17.6,26.2-19.1c7.4-1.3,14.5,3.7,15.8,11.1
	C848.8,682.5,844.2,689.4,837.1,691L837.1,691z"/>
<path class="st2" d="M785.3,740c-7.1-2.5-23.3-22.5-23.3-22.5s25.1-5.7,32.2-3.3c7.1,2.6,10.7,10.5,8,17.6
	C799.7,738.6,792.2,742.2,785.3,740L785.3,740z"/>
<path class="st2" d="M737.7,768.2c-7.4-1.2-26.8-18.2-26.8-18.2s23.8-9.9,31.2-8.7c7.4,1.2,12.5,8.2,11.2,15.7
	S745.1,769.4,737.7,768.2L737.7,768.2z"/>
<path class="st2" d="M784.7,663.8c0,7.5,13.6,29.4,13.6,29.4s13.7-21.8,13.7-29.4c-0.2-7.5-6.5-13.5-14-13.3
	C790.7,650.7,784.8,656.6,784.7,663.8L784.7,663.8z"/>
<path class="st2" d="M729.4,697.5c2.2,7.2,21.8,24,21.8,24s6.5-24.9,4.2-32.1c-2.6-7.1-10.4-10.7-17.5-8.1
	C731.4,683.7,727.7,690.7,729.4,697.5L729.4,697.5z"/>
<path class="st2" d="M680.2,737.6c1,7.5,17.4,27.3,17.4,27.3s10.6-23.5,9.6-30.9c-1.5-7.4-8.7-12.2-16.1-10.7
	C684.5,724.6,679.8,730.8,680.2,737.6L680.2,737.6z"/>
<path class="st3" d="M851.3,645.8c-5.4,5.2-30.6,10.7-30.6,10.7s6.2-25,11.6-30.2c5.4-5.2,14-5.1,19.3,0.3
	C856.9,631.9,856.7,640.5,851.3,645.8L851.3,645.8z"/>
<path class="st3" d="M837.1,691c-7.4,1.5-31.5-7.7-31.5-7.7s18.8-17.6,26.2-19.1c7.4-1.3,14.5,3.7,15.8,11.1
	C848.8,682.5,844.2,689.4,837.1,691L837.1,691z"/>
<path class="st3" d="M785.3,740c-7.1-2.5-23.3-22.5-23.3-22.5s25.1-5.7,32.2-3.3c7.1,2.6,10.7,10.5,8,17.6
	C799.7,738.6,792.2,742.2,785.3,740L785.3,740z"/>
<path class="st3" d="M737.7,768.2c-7.4-1.2-26.8-18.2-26.8-18.2s23.8-9.9,31.2-8.7c7.4,1.2,12.5,8.2,11.2,15.7
	S745.1,769.4,737.7,768.2L737.7,768.2z"/>
<path class="st3" d="M784.7,663.8c0,7.5,13.6,29.4,13.6,29.4s13.7-21.8,13.7-29.4c-0.2-7.5-6.5-13.5-14-13.3
	C790.7,650.7,784.8,656.6,784.7,663.8L784.7,663.8z"/>
<path class="st3" d="M729.4,697.5c2.2,7.2,21.8,24,21.8,24s6.5-24.9,4.2-32.1c-2.6-7.1-10.4-10.7-17.5-8.1
	C731.4,683.7,727.7,690.7,729.4,697.5L729.4,697.5z"/>
<path class="st3" d="M680.2,737.6c1,7.5,17.4,27.3,17.4,27.3s10.6-23.5,9.6-30.9c-1.5-7.4-8.7-12.2-16.1-10.7
	C684.5,724.6,679.8,730.8,680.2,737.6L680.2,737.6z"/>
<path class="st1" d="M680.7,789.8c0,0,6.2-63.8,43-97.7c15.6-14.1,26.1-32.9,30.1-53.6c1.8-9.8,2.7-19.8,2.7-29.7"/>
<path class="st2" d="M779.6,587.2c-2.8,7-23.6,22.2-23.6,22.2s-4.5-25.4-1.7-32.4c2.8-7,10.8-10.4,17.8-7.6S782.4,580.2,779.6,587.2
	L779.6,587.2z"/>
<path class="st2" d="M784.9,634.3c-6.2,4.3-31.9,5.8-31.9,5.8s10-23.7,16.2-28.1c6.2-4.3,14.7-2.9,19,3.3S791.1,630,784.9,634.3
	L784.9,634.3z"/>
<path class="st2" d="M757.3,700.1c-7.5,0.6-30.4-11.1-30.4-11.1s20.6-15.4,28.1-16.1c7.5-0.6,14.1,4.9,14.7,12.5
	C770.4,692.9,764.8,699.5,757.3,700.1z"/>
<path class="st2" d="M725.2,745.2c-7.3,1.9-31.9-5.8-31.9-5.8s17.7-18.7,25-20.6c7.3-1.7,14.7,2.8,16.4,10.1
	C736.5,736,732.3,743.2,725.2,745.2L725.2,745.2z"/>
<path class="st2" d="M725.9,630.7c3,6.9,24.4,21.3,24.4,21.3s3.6-25.5,0.6-32.4c-3-6.9-11.1-10-18-7S722.8,623.8,725.9,630.7
	L725.9,630.7L725.9,630.7z"/>
<path class="st2" d="M689.1,683.9c5,5.7,29.7,13.1,29.7,13.1s-4.2-25.4-9.1-31.1c-5-5.7-13.6-6.2-19.3-1.3S684.1,678.2,689.1,683.9z
	"/>
<path class="st2" d="M660.3,740.5c4,6.4,27,17.9,27,17.9s0.2-25.8-3.8-32.2c-3.8-6.5-12.2-8.6-18.7-4.8c-6.5,3.8-8.6,12.2-4.8,18.7
	C660.2,740.3,660.3,740.4,660.3,740.5z"/>
<ellipse class="st0" cx="33.4" cy="778.8" rx="33.4" ry="4.6"/>
<ellipse class="st0" cx="80.2" cy="829.1" rx="33.4" ry="4.6"/>
<path class="st2" d="M98.6,818.7c2-1.8,3.8-4,4.4-6.6s-0.6-5.8-3.1-6.7c-2.8-1.1-5.8,0.9-8.1,2.8s-4.9,4.2-7.9,3.8
	c3.1-2.8,4.5-7.1,3.7-11.2c-0.1-0.8-0.5-1.6-1-2.3c-1.6-1.7-4.4-1-6.3,0.4c-6,4.2-7.6,12.3-7.6,19.5c-0.6-2.6-0.1-5.4-0.1-8
	s-0.8-5.7-3-7.1c-1.4-0.8-3-1.1-4.6-1.1c-2.7-0.1-5.7,0.2-7.5,2.1c-2.3,2.4-1.7,6.5,0.3,9.2s5,4.4,7.7,6.2c2.2,1.3,4.1,3.1,5.5,5.3
	c0.2,0.3,0.3,0.7,0.4,1h16.7C92,824,95.5,821.6,98.6,818.7z"/>
<path class="st2" d="M52.3,768.6c2-1.8,3.8-4,4.4-6.6s-0.6-5.8-3.1-6.7c-2.8-1.1-5.8,0.9-8.1,2.8s-4.9,4.2-7.9,3.8
	c3.1-2.8,4.5-7.1,3.7-11.2c-0.1-0.8-0.5-1.6-1-2.3c-1.6-1.7-4.4-1-6.3,0.4c-6,4.2-7.6,12.3-7.7,19.5c-0.6-2.6-0.1-5.4-0.1-8.1
	s-0.8-5.7-3-7.1c-1.4-0.8-3-1.1-4.6-1.1c-2.7-0.1-5.7,0.2-7.5,2.1c-2.3,2.4-1.7,6.5,0.3,9.2s5,4.3,7.7,6.2c2.2,1.3,4.1,3.1,5.5,5.3
	c0.2,0.3,0.3,0.6,0.4,0.9H42C45.8,773.9,49.2,771.5,52.3,768.6z"/>
<ellipse class="st0" cx="883.1" cy="830.1" rx="46.9" ry="6.4"/>
<path class="st2" d="M897.1,758.3c0,0,6.3,8.2-2.9,20.6c-9.2,12.4-16.8,22.9-13.7,30.6c0,0,13.9-23,25.2-23.4
	S909.5,772.2,897.1,758.3z"/>
<path class="st4" d="M897.1,758.3c0.5,0.8,1,1.7,1.3,2.6c11,12.9,16.9,25,6.3,25.3c-9.9,0.3-21.7,17.9-24.5,22.4
	c0.1,0.3,0.2,0.7,0.3,1c0,0,13.9-23,25.2-23.4S909.5,772.2,897.1,758.3z"/>
<path class="st5" d="M908.8,768.8c0,2.9-0.3,5.2-0.7,5.2c-0.4,0-0.7-2.3-0.7-5.2s0.4-1.5,0.8-1.5
	C908.5,767.2,908.8,765.9,908.8,768.8z"/>
<path class="st5" d="M912.8,772.2c-2.5,1.4-4.8,2.2-5,1.9c-0.2-0.3,1.7-1.8,4.2-3.1c2.5-1.4,1.5-0.4,1.7,0
	C914,771.3,915.3,770.8,912.8,772.2z"/>
<path class="st2" d="M863.9,758.3c0,0-6.3,8.2,2.9,20.6c9.2,12.4,16.8,22.9,13.7,30.6c0,0-13.9-23-25.2-23.4
	S851.4,772.2,863.9,758.3z"/>
<path class="st4" d="M863.9,758.3c-0.6,0.8-1,1.7-1.3,2.6c-11,12.9-16.9,25-6.3,25.3c9.9,0.3,21.7,17.9,24.5,22.4
	c-0.1,0.3-0.2,0.7-0.3,1c0,0-13.9-23-25.1-23.4S851.4,772.2,863.9,758.3z"/>
<path class="st5" d="M852.2,768.8c0,2.9,0.3,5.2,0.7,5.2c0.4,0,0.7-2.3,0.7-5.2s-0.4-1.5-0.8-1.5
	C852.4,767.2,852.2,765.9,852.2,768.8z"/>
<path class="st5" d="M848.2,772.2c2.5,1.4,4.8,2.2,4.9,1.9c0.2-0.3-1.7-1.8-4.3-3.1c-2.5-1.4-1.5-0.4-1.7,0S845.6,770.8,848.2,772.2
	z"/>
<path class="st6" d="M854.2,808.5c0,0,17.6-0.5,22.9-4.3c5.3-3.8,27-8.3,28.3-2.2s26.4,30.1,6.6,30.2s-46.1-3.1-51.4-6.3
	S854.2,808.5,854.2,808.5z"/>
<path class="st7" d="M912.3,830.1c-19.8,0.2-46.1-3.1-51.4-6.3c-4-2.5-5.6-11.2-6.2-15.3h-0.6c0,0,1.1,14.2,6.4,17.4
	s31.6,6.5,51.4,6.3c5.7,0,7.7-2.1,7.6-5.1C918.8,828.9,916.6,830.1,912.3,830.1z"/>
<ellipse class="st0" cx="484.3" cy="795.4" rx="351.9" ry="44.8"/>
<linearGradient id="SVGID_1_" gradientUnits="userSpaceOnUse" x1="341.1404" y1="325.1069" x2="820.0023" y2="325.1069" gradientTransform="matrix(1 0 0 -1 -72.66 810.11)">
	<stop  offset="0" style="stop-color:#808080;stop-opacity:0.25"/>
	<stop  offset="0.54" style="stop-color:#808080;stop-opacity:0.12"/>
	<stop  offset="1" style="stop-color:#808080;stop-opacity:0.1"/>
</linearGradient>
<path class="st8" d="M744.3,374.1c-1.6-3-2.6-6.2-3-9.6c0,0-5.1-2.7-3-11.1c2-8.4-5.8-13-5.8-13l0,0c0,0-2-9.4-2-14.1
	c0-4.7-5.8-11.7-5.8-11.7s1-9.9-2.4-15.7s-10.2-17.2-18.6-20.9c0,0-18-27.6-23.4-29.7c0,0-5.7-4.2-6.8-9l0,0c0-0.5,0-1.1,0-1.6
	c0-0.1,0-0.1,0-0.2l0,0l0,0c0-0.3,0-0.5,0-0.9c2.8-2.5,5.7-6.2,5.8-7.4c0.3-5.6,1.4-11.2,3.3-16.5l0,0c0.2-0.6,0.4-1.1,0.7-1.6
	c0.2-0.5,0.5-1.2,0.8-1.9c1.7-3.5,4.1-6.7,5.2-10.4c0.1-0.3,0.2-0.6,0.2-0.8l0,0c1.3-5.6-0.3-11.6-3.3-16.5c-3.2-5.1-8-9.1-13-12.6
	c-5-3.7-10.6-6.6-16.5-8.6c-6-1.8-12.5-2.2-18.4-0.1c-5.9,2-11,6.4-17.1,8c-2.6,0.7-5.3,0.8-7.7,1.8c-4.9,2-8.1,7-9.1,12.2
	c-0.3,1.2-0.4,2.4-0.4,3.7c0,1.2,0.2,2.4,0.7,3.6c0.5,1.7,1.9,3,3.6,3.4l0.6,0.1l0.7,0.1c-0.2,0.4-0.4,0.7-0.5,1.1
	c-2.2,4.7-3.3,9.8-3.3,15c0,15.8,10.4,29.7,25.5,34.3c0.2,0.4,0.3,0.8,0.5,1.1c0.6,1.4,1.1,2.8,1.5,4.2
	c-4.4,2.4-24.2,13.6-28.9,19.1c0.2-7.3-1.1-14.5-3.8-21.3c-3.6-8.4-10.4-15.8-19.2-18.4c-5-1.5-10.3-1.5-15.3-2.5
	c-4-0.8-7.8-2.3-11.8-3.1c-1.6-0.3-3.2-0.5-4.8-0.6c-2.6-2.8-5.5-5.2-8.8-7.2c-3.1-2.1-6.4-4.1-10.1-5c-6.2-1.5-12.6,0.2-19,0.9
	c-6.7,0.7-13.2-1-19.8-0.6c-5.8,0.2-11.5,1.3-17,3.1c-1.4,0.5-2.7,1.1-3.9,1.8c0.1-0.1,0.2-0.2,0.3-0.4s0.2-0.4,0.3-0.5
	s0.1-0.2,0.2-0.4s0.2-0.4,0.2-0.7c0-0.1,0.1-0.2,0.1-0.3c0.1-0.3,0.1-0.5,0.2-0.8v-0.2c0-0.3,0.1-0.6,0.1-0.9c0,0,0,0,0-0.1
	c0-0.8,0-1.7-0.2-2.5c-0.6-2.8-2-5.4-3.3-7.9s-2.4-5.4-2.2-8.2c0-0.2,0-0.5,0.1-0.7c0-0.3,0.1-0.6,0.2-0.8v-0.1
	c0.1-0.3,0.1-0.5,0.2-0.8l0,0c0.1-0.3,0.2-0.5,0.3-0.8l0,0c0.1-0.3,0.2-0.5,0.3-0.8l0,0l0.4-0.8l0,0c0.1-0.3,0.2-0.6,0.4-0.8
	c0.3-0.5,0.5-1.1,0.8-1.6s0.4-1,0.7-1.4l0.1-0.3c0.4-1,0.8-2,1.1-3c0-0.1,0.1-0.2,0.1-0.3c0.3-1,0.6-2,0.8-3c0-0.1,0-0.2,0-0.3
	c0.2-1,0.3-2,0.3-3.1v-0.3c0-2-0.4-4-1.1-5.9c-1.7-3.9-5.1-6.9-8.6-9.3c-2.4-1.6-5-3.2-8-3.2c-3.4,0.1-6.4,2.4-9.8,2.9
	c-2.2,0.2-4.4-0.1-6.5-0.8c-4.7-1.5-9.1-4-13.9-5.4c-4.6-1.4-9.4-1.9-14.1-1.3c-2,0.2-4.1,0.7-5.5,2.1s-1.9,3.6-2.7,5.4
	c-1.2,2.9-3.2,5.4-5.8,7.1c-2.8,1.9-6.2,2.9-9.2,4.6c-2.5,1.4-4.8,3.7-5.4,6.3l0,0l0,0c-0.1,0.2-0.1,0.5-0.1,0.7c0,0,0,0.1,0,0.1
	c0,0.2,0,0.5,0,0.7l0,0c0.1,1.3,0.4,2.6,0.7,3.9l0,0c0,0.1,0,0.1,0,0.2c0.4,3-0.7,6.1-2.4,8.7c-1.3,2-3,4-3.6,6.2
	c-0.7,0.2-1.4,0.3-2.2,0.5h-7.5c-1.1,0-2,0.9-2,2v1.2c-7.4,2.9-14.6,6.1-21.7,9.7c0,0-16.8,22.1-18.5,25.2c-0.3,0.6-0.4,1.2-0.5,1.8
	l0,0c-3.3,1-7.1,28.6-7.1,28.6s4.8,7.1,10.1,13.8c2.1,6.1,8.3,11,8.5,19.2c0.3,12.3,0,32.2,0,32.2s4.8,30.4,1.3,44.3
	c-3.4,13.8,0.6,33.7,1.6,41.5s1.8,25.7,0,34.5c-1.8,8.8-2.5,22.4,0,17.6c0,0,0,0.8,0,2c0,4.2,0.1,13.7,0,18.1
	c-0.2,5.7,1.9,16.4,0,20.5s-2.2,21.1-2.2,23.5c0.4,5.9-0.5,11.9-2.7,17.4c-3.4,8.4,0,39.9,0,39.9s-10.5,22.5-7.3,26.8s-5.9,3-5.9,3
	s-2,21.5-11.9,31.9s-26.4,83.5-24,101.9c0,0-7.1,7-7.8,8.7c-0.5,1.2-0.3,11.4-0.1,17.5c-1.1,0.9-1.9,2.1-2.2,3.5
	c-2.4,9.2-5.2,26.3-5.2,26.3s-3.2,9.5,17.6,10.4s20.5-2.7,20.5-2.7s-0.3-16.5,0.7-19.4s1-14,1-14.2c0.5,0.1,1,0.2,1.4,0.3
	c3.7,1.7,9.1-5,6.4-11.4s7.5-40.6,7.5-40.6s28.5-54.2,28.5-77.1c0-1.7,11.2-15.1,12.5-23.8c1.1-6,2.8-11.8,5.1-17.5
	c0,0,4.7,23.1,0,32.2s-10.5,79.8-6.1,86.9s-2.7,17.8-3.7,19.8s-2.4,25.2-2.4,25.2h2.2l-0.9,18.6c0,0,36.8-0.5,43,2.7s44.4,3,44.4,3
	s17.6-6.5,7.8-13.2s-27.4-7.4-27.4-7.4s-14.6-20-17.3-20.9c-1.8-0.6-4.7-2.9-7.2-2.4c0.4-3.9,1.2-7.8,2.5-11.5
	c5.8-18.8,3.4-91.2,3.4-91.2s4.4-7.7,4.4-15.1s6.8-13.8,6.8-13.8s19.6-80.5,24-98.9c3.9-16.3,9.1-37.8,6.8-51.8c0-0.1,0-0.2-0.1-0.3
	c0.4-10.6,0.6-24.3-0.6-27.6c-2-5.5-5.6-34.2-5.6-34.2s-0.7-2.8-1.3-6.5l17.2,5.8c1.2,4.8,2.5,9.6,1.1,12.9l-0.2,0.5
	c-1.5,3.5-3,7.2-1.4,13.6c0.8,3.7,1.3,7.5,1.4,11.3c0.2,5,0.2,10.2,0.2,13.8c0,1.5,0,3.9,0,6.7c0,8,0,19.6,0,23.5v1.4l0,0V536
	c0,0-0.3,32.2,2.1,49.8c0.9,7.8,0.9,15.7-0.1,23.5l0,0c-0.4,3.2-0.8,6-1.2,8l0,0l0,0c-0.5,2.3-0.8,3.7-0.8,3.7
	c-4.5,16.4-5.9,33.6-3.9,50.5c3.3,27.9-0.9,22.6-0.9,22.6s0.4,12.1,1.6,14.1s-1.6,10.6-1.6,10.6s1.1,1,2.8,2.3
	c-0.1,0.5-0.2,1.1-0.3,1.8c-0.7,3.7-0.9,7.5-0.6,11.3c0.1,0.8,0.1,1.7,0.1,2.6c0,0.4,0,0.8,0,1.2c-2.2,7.3-4.9,14.4-8,21.4
	c-3.9,8.2,6.6,17.9,11.8,22c1.6,1.3,3.7,2,5.8,2h6.6c2.9,0,5.7-1.4,7.4-3.7c2.8-3.7,6.6-9.6,6.2-14.3c-0.4-6.4-5.1-18.5-6.5-22
	c0-0.3,0-0.6,0-0.9c-0.1-2.2-0.6-4.4-1.3-6.5l-2.1-10.7l-0.3-1.5c0.3-0.5,0.6-1,0.8-1.6c0,0-2.3-12.1,0-15.3s15.5-49.5,15.5-68.4
	c0,0,9.7-19.1,10.4-34.7c0,0,0-23.9,3.8-33.5c3.8-9.6,8.4-37.5,8.4-37.5l2.1,26.2l1.7,45.3c0,0-3.8,15.8,0,21.1
	c3.8,5.3,2.5,20.4,2.5,20.4l-2.8,52.8c0,0-0.2,8.8-1.3,10.8s-1.6,27.6-5.6,29.9c0,0,0.6,0.5,1.7,1.2c-0.3,0.4-0.6,0.8-1,1.4
	c-2.4,3.8-3.8,8-4.1,12.4c0,0.4-0.1,0.8-0.1,1.1c-0.9,1.1-1.6,2.4-1.9,3.8c-0.2,1.3,0,2.6,0.6,3.8c-1.7,3.7-8.3,18.7-3.4,23.2
	c4.1,3.8,18.2,2.7,25.5,1.8c2.5-0.3,4.3-2.5,4.1-4.9c-0.3-5-0.9-10-1.8-15l53,1.3c-5.8,4.6-13.2,11.5-13.2,11.5s-9.9,8.5-14.9,10.4
	c-5,1.9-8.2,9.4-1.4,10.1c6.8,0.6,33.1,1,33.1,1l0.9-0.1c0.1,1.6,1,2.9,3.6,3.4c6.3,1.1,64.3-7.3,64.3-7.3s-0.1-2.1-0.2-5
	c9.7,1,23.3,0.8,30.4-1.3c9.3-2.9,22.3-10.7,22.3-10.7s0-1,0-2.6s0-3.5-0.1-5.7c-0.1-3.3-0.3-6.6-0.8-7.5c-1.9-4.2-3.5-8.5-4.7-12.9
	c3.3-0.4,6.2-2.1,8.2-4.7c0,0-8.6-7.4-6.1-9c2.5-1.6,3.3-9.1,3.3-9.1s-6.8-16.1-0.1-37.6c6.7-21.5,0.1-76.5-3.3-80.8
	s-1.3-12.8-1.3-12.8c4.7-7.7-4.7-30.5-4.7-30.5s3.6-39.6,0.9-43.1c-2.7-3.5,1.3-16.7,1.3-16.7c2.1-2.6,3.9-5.5,5.2-8.6
	c0.9,1.9,2.2,3.6,3.7,5.1c0,0,0.5-1.5,1.1-4c0.3,0.4,0.6,0.7,1,1c0,0,4.1-13.2,3.7-26.6c-0.3-13.4-1.3-40-1.3-40l-0.1-3.2l14.3-18.3
	c0,0,13.2-13.3,13.3-25.4c0.5-0.3,0.9-0.7,1.2-1.1C749.1,384.3,746.9,378.9,744.3,374.1z M553,407.1l0.2,4.1
	c-0.4-1.8-0.7-3.7-0.9-5.5C552.7,406.5,553,407,553,407.1L553,407.1z M670.3,238.9c0.5-0.2,0.9-0.5,1.4-0.8l-1.3,1.2
	C670.4,239.2,670.4,239.1,670.3,238.9z M467.4,217.3c-0.5,0.4-1,0.9-1.5,1.4c-4.8,5.3-6.3,13.4-12.4,17.2c-1.7,1.1-3.7,1.7-5.4,2.8
	c-4.1,2.7-5.8,7.5-6.9,12.4c0-0.4,0.1-0.7,0.1-1.1c-0.3,1.3-0.6,2.7-0.8,4c-0.4,1.8-0.4,3.6-0.2,5.4c0.2,2.5,1.1,4.7,3.4,5.3
	c1.2,0.3,2.4,0,3.6,0.2c2.3,0.4,3.8,2.6,4.2,4.9c0,0.1,0,0.2,0,0.2v-0.1c0,0.3,0.1,0.5,0.1,0.8c0,0.1,0,0.1,0,0.2
	c-0.4,2.3-1,4.6-2,6.8l-0.1-0.2c-0.3,0.7-0.5,1.4-0.7,2.1c-0.4,1-0.4,2.1-0.2,3.2c0,0.6,0.1,1.2,0.4,1.8c0.7,1.1,1.9,1.8,3.2,2
	c1.5,0.3,3.1,0.1,4.6-0.4c-0.6,1.1-0.9,2.3-1,3.5c-4.5,0.9-8,4.3-9.2,8.7c-0.2,0.8-0.5,1.6-0.8,2.4c-0.7,2.1-1.4,4.2-2.2,6.3
	c-0.1-4.1-0.4-7-1-8.1c-3-6-6.1-18.9-6.1-18.9v-11.8c0-7.3-13.4-12.3-13.5-12.3c0.5-4.2,1.4-8.3,2.6-12.3c0.1-0.3,0.2-0.7,0.3-1
	c15.7-0.4,29.6-10.3,35.1-25.1c0.1-0.3,0.2-0.6,0.3-0.9c1.3,0.5,2.6,0.8,4,0.8C466.1,217.6,466.8,217.5,467.4,217.3z M442.1,380.7
	c0-7.8-0.9-16.4-0.9-16.4s0.1-1.7,0.3-4.7c4.9-4.4,9.8-8.9,11.8-10.8c0.7-0.6,1-1,1-1c1.4,1.1,2.3,2.7,2.6,4.5
	c0.5,2.2,0.5,4.4,0.1,6.6c-0.7,4.2,1.1,9.8,2.3,16.2l0,0c0.8,3.8,1.1,7.7,0.9,11.6L442.1,380.7z M534.1,745.5
	c0.9-9.2,3.5-18,7.9-26.2c7.1-13.1,16-59.4,16-59.4s2.3-20.1,1.5-33c-0.5-8,1.2-30.6,3.1-47.8c0.5,3.3,0.9,5.6,0.9,5.8
	c0,0.6,6.7,28.7,8.8,41v57.1c0,3.3-0.7,6.5-2,9.5l-6.6,14.5c-2.4,5.2-2.4,11.2-0.2,16.5c1.1,2.5,1.7,4.8,0.7,5.1
	c-0.8,0.3-1.6,0.6-2.4,1c-0.3-0.3-0.7-0.6-1.1-0.8l-21.6,17.6l-6.3,0.9c0-0.3,0-0.5,0-0.8C533.3,746.3,533.7,745.9,534.1,745.5
	L534.1,745.5z M619.3,774l-0.8-3.7l-0.2-1l2,0.2c0,0-5.6-25.7-1.8-36.5c0.8-2.6,1.3-5.3,1.6-8c0.2-1.6,0.4-3.2,0.5-5
	c1.7,5,3.1,10.2,2.2,11.3c-1.8,2.3-0.2,15.1,0.3,15.8s3.8,5,1.5,8.6c-2.3,3.6-2,14.8-2,14.8s0.6,0.1,1.5,0.2
	C622.4,771.6,620.8,772.8,619.3,774z M647.8,768.5c-0.2-0.3-0.3-0.6-0.5-0.8c3.2-1.2,8.2-0.8,8.2-0.8s-7.6-27.9-5.3-33.9
	c2.3-6-9.7-64.4-15.5-77.7c-5.8-13.3,2-50.5,2-50.5l12.8-33.7l10.6,34.9c-1.7,9.7,1.7,30.5,6.8,35.6c5.1,5,4.1,11.7,2,14.4
	c-2.1,2.7,1,27.5,1,27.5s0.7,25.5-1,34.5c-1.7,9,1,12.8,4.4,16.8s-3.7,3.7-7.8,7.5c-4.1,3.8,0,8.6,0,8.6l1.5-0.1
	c0.7,1.9,1.2,3.8,1.4,5.8c0,0.9-0.3,1.8-1,2.5c-2.7,2.3-7.1,13.9-11,16.8c-0.4,0.3-1,0.8-1.5,1.2c-0.2,0-0.5,0.1-0.8,0.2
	C651.7,774.5,649.6,771.5,647.8,768.5L647.8,768.5z M362.7,228.2c6.4-1.1,12.3-3.9,17.3-8.1h9.7c1,2.3,2.3,4.4,3.7,6.4
	c-0.1,0.2-0.2,0.4-0.2,0.7c-0.5,1.3-1.2,2.6-1.9,3.8l0,0c0,0-11,0.1-17.2,3.7c-0.6,0.4-1.3,0.8-1.8,1.3c-4.2,3.6-12.6,3.6-16.5,3.4
	l-2.3-1.4l-0.4,1.8l-0.2,0.2l0.1-16.9L362.7,228.2z M480.9,745.1v1.4C480.9,746,480.9,745.6,480.9,745.1z M480.9,746.7l0.1,1.1
	C481,747.3,481,747,480.9,746.7L480.9,746.7z"/>
<rect x="435" y="378.3" transform="matrix(0.3196 -0.9475 0.9475 0.3196 -73.8134 695.4041)" class="st9" width="24.7" height="41.7"/>
<path class="st10" d="M701.8,484.9c0,0,6,11-5.3,25.3c0,0-4,13-1.3,16.5c2.7,3.5-0.9,42.8-0.9,42.8s9.2,22.7,4.6,30.3
	c0,0-2,8.4,1.3,12.7c3.3,4.3,9.8,59,3.2,80.3c-6.6,21.3,0.1,37.3,0.1,37.3s-0.8,7.3-3.2,9c-2.4,1.7,6,9,6,9c-3.1,4.2-8.6,5.8-13.4,4
	c-8.7-3-33.7-1-33.7-1s-4-4.7,0-8.5s11-3.5,7.7-7.5c-3.3-4-6-7.7-4.3-16.7c1.7-9,1-34.3,1-34.3s-3-24.7-1-27.3s3-9.3-2-14.3
	s-8.3-25.7-6.7-35.3l-18.7-62.3l-36.7-60l53.9-7.8L701.8,484.9z"/>
<path class="st11" d="M667.1,252.2v38h-51l-1.3-3.7c0,0,5-13.9,11.7-21.6c3.3-3.8,1.8-10.8-0.6-16.9c-1.6-4-3.5-7.8-5.7-11.4
	c0,0,46-29,43.7-11.3c-0.5,3.8-0.7,7.6-0.5,11.4C663.9,246.9,667.1,252.2,667.1,252.2z"/>
<path class="st4" d="M663.8,225.2c-0.5,3.8-0.7,7.6-0.5,11.4c-9.1,10.9-23.8,15.4-37.5,11.4c-1.6-4-3.5-7.8-5.7-11.4
	C620.1,236.5,666.1,207.5,663.8,225.2z"/>
<path class="st11" d="M671.6,212.7c0,19.7-15.9,35.7-35.6,35.7c-19.7,0-35.7-15.9-35.7-35.6s15.9-35.7,35.6-35.7c0,0,0,0,0,0
	C655.6,177.1,671.6,193,671.6,212.7C671.6,212.7,671.6,212.7,671.6,212.7z"/>
<path class="st4" d="M622.5,260.5l-15.7,25l-9,67.3v55.2l2,19.7l37.2,2.7l16.5-55.5l12.7-56.8l13.7-11.7l-32.3-36.7
	c0,0-6.2,8.8-13.3,13.8c-2.7,1.9-6.4,1.4-8.4-1.3c-1.2-1.6-1.5-3.8-0.7-5.7c2-5.2,3.8-11.1,2.4-12.5c-1.9-1.7-4.2-2.9-6.7-3.4"/>
<path class="st12" d="M621.5,261.5l-15.7,25l-9,67.3v55.2l2,19.7l37.2,2.7l16.5-55.5l12.7-56.8l13.7-11.7l-32.3-36.7
	c0,0-6.2,8.8-13.3,13.8c-2.7,1.9-6.4,1.4-8.4-1.3c-1.2-1.6-1.5-3.8-0.7-5.7c2-5.2,3.8-11.1,2.4-12.5c-1.9-1.7-4.2-2.9-6.7-3.4"/>
<polygon class="st4" points="675.2,494.2 707.5,494.2 703.2,473.2 702.5,464 686.8,473.9 "/>
<polygon class="st12" points="675.2,492.2 707.5,492.2 703.2,471.2 702.5,462 686.8,471.9 "/>
<path class="st4" d="M629.2,252.7c0,0-29.3,16.2-30.3,21.2s-8,39.3-8,39.3v31l29-10.6l-1.7-42.4l10.3-25.3
	C628.5,265.9,630.9,257.5,629.2,252.7z"/>
<path class="st13" d="M628.2,251.7c0,0-29.3,16.2-30.3,21.2s-8,39.3-8,39.3v31l29-10.6l-1.7-42.4l10.3-25.3
	C627.5,264.9,629.9,256.5,628.2,251.7z"/>
<path class="st4" d="M708.8,480.2c0.3,13.3-3.7,26.5-3.7,26.5c-5-4.7-9.2-18.8-10.7-25.7c-2.5,8.5-22.6,23.9-22.6,23.9v4.7
	c-1,13-43,4-43,4l2.7-167.3c0,0,3.3-31.7-1-41.2c-4.3-9.6-3-26.8-3-26.8s4-7,8.3-9.3c4.3-2.3,28.5-25.3,29.3-26l0,0
	c-0.1,1-0.1,1.9,0,2.9l0,0c0.6,8.4,6.7,8.9,6.7,8.9c5.3,2.1,23,29.5,23,29.5c8.3,3.7,15,15,18.3,20.8c3.3,5.8,2.3,15.6,2.3,15.6
	s5.7,7,5.7,11.7c0,4.7,2,14,2,14l-16.7,38.6l1,55.7C707.5,440.5,708.5,466.9,708.8,480.2z"/>
<path class="st13" d="M710.8,477.2c0.3,13.3-3.7,26.5-3.7,26.5c-5-4.7-9.2-18.8-10.7-25.7c-2.5,8.5-22.6,23.9-22.6,23.9v4.7
	c-1,13-43,4-43,4l0.2-13.7l0,0v-1.3l2.4-152.3c0,0,3.3-31.7-1-41.2c-4.3-9.6-3-26.8-3-26.8s4-7,8.3-9.3c4.3-2.3,28.5-25.3,29.3-26
	l0,0c-0.1,1-0.1,1.9,0,2.9l0,0c0.6,8.4,6.7,8.9,6.7,8.9c5.3,2.1,23,29.5,23,29.5c8.3,3.7,15,15,18.3,20.8c3.3,5.8,2.3,15.6,2.3,15.6
	s5.7,7,5.7,11.7c0,4.7,2,14,2,14l-14.8,34.3l-1.9,4.3l1,55.7C709.5,437.5,710.5,463.9,710.8,477.2z"/>
<path class="st4" d="M703.6,780.4c0,0-12.8,7.8-22,10.7c-9.2,2.8-29.8,2.2-37.5,0c-5.1-1.5-2.4-6.4,1.1-10.4
	c1.5-1.7,3.1-3.2,4.9-4.6c3.8-2.8,8.2-14.3,10.8-16.7s-0.8-10.5-0.8-10.5s6.2-7.3,9.2-8.3s17.8,7.5,17.8,7.5l10.8,1.8
	c-1.2,1.5,3.8,14,4.8,15.8c0.5,0.9,0.7,4.2,0.8,7.4C703.7,776.8,703.6,780.4,703.6,780.4z"/>
<path class="st14" d="M703.6,781.4c0,0-12.8,7.8-22,10.7c-9.2,2.8-29.8,2.2-37.5,0c-5.1-1.5-2.4-6.4,1.1-10.4
	c1.5-1.7,3.1-3.2,4.9-4.6c3.8-2.8,8.2-14.3,10.8-16.7s-0.8-10.5-0.8-10.5s6.2-7.3,9.2-8.3s17.8,7.5,17.8,7.5l10.8,1.8
	c-1.2,1.5,3.8,14,4.8,15.8c0.5,0.9,0.7,4.2,0.8,7.4C703.7,777.8,703.6,781.4,703.6,781.4z"/>
<path class="st4" d="M703.6,781.4c0,0-12.8,7.8-22,10.7c-9.2,2.8-29.8,2.2-37.5,0c-5.1-1.5-2.4-6.4,1.1-10.4
	c9.1,1.7,40.6,0.2,40.6,0.2l17.8-7.8C703.7,777.8,703.6,781.4,703.6,781.4z"/>
<path class="st4" d="M679.5,775.2c0,0-14.8-8-22.2-4.5S679.5,775.2,679.5,775.2z"/>
<path class="st10" d="M567.5,595.2V684c0,3.2-0.7,6.4-2,9.4l-6.5,14.4c-2.3,5.2-2.4,11.1-0.2,16.4c1,2.5,1.7,4.8,0.7,5
	c-2.3,0.7-8,4.1-8,4.1s32.3,38.9,44.3,29.2s6.3-74,6.3-74s0.7-56.7,1.3-57.7s1.7-32,1.7-32L567.5,595.2z"/>
<path class="st4" d="M673.8,252.7l-31,23.5h-13.3c0,0,4-7,8.3-9.3c4.3-2.3,28.5-25.3,29.3-26l0,0c-0.2,0.9-0.2,1.9,0,2.9l0,0
	C668.2,248.5,673.8,252.7,673.8,252.7z"/>
<path class="st13" d="M673.8,251.7l-31,23.5h-13.3c0,0,4-7,8.3-9.3c4.3-2.3,28.5-25.3,29.3-26l0,0c-0.2,0.9-0.2,1.9,0,2.9l0,0
	C668.2,247.5,673.8,251.7,673.8,251.7z"/>
<path class="st4" d="M671.6,212.7c0,9.8-4,19.1-11.1,25.9c0-0.2,0-0.3,0-0.5c0.3-5.6-0.7,0.1,1-5.8c0.5-1.6-0.7-3.5-1.9-4.8
	c-1.2-1.3-3.3-1.8-4.6-0.7c-1.3,1.1-1.2,3.3-2.5,4.5c-1.6,1.5-4.4,0.4-5.5-1.5c-1.1-1.9-0.9-4.2-0.9-6.4c0.1-2.2,0-4.6-1.4-6.2
	c-1.5-1.7-3.5-2.2-4.5-3.9c-1.6-2.5,0.2-6-0.9-8.8c-1-2.5-4-3.7-6.8-3.6c-6.4,0.3-12.7,4.6-19.1,2.1c-2.5-1-4.4-3.6-6.8-4.5
	c-1-0.4-2.1-0.6-3.2-0.7c8.2-17.9,29.4-25.7,47.3-17.5C663.5,186.2,671.6,198.8,671.6,212.7L671.6,212.7z"/>
<path class="st15" d="M599.3,193.1c-0.8-2.3-0.9-4.8-0.3-7.2c1.1-5.1,4.1-10.2,9-12.1c2.4-1,5.1-1.1,7.6-1.8
	c6-1.6,10.9-5.9,16.8-7.9s12.2-1.7,18.1,0.1c5.8,2,11.3,4.8,16.2,8.6c4.9,3.5,9.6,7.5,12.8,12.6c3.2,5.1,4.8,11.4,3.1,17.2
	c-1.1,3.7-3.4,6.9-5.1,10.4c-3,6.1-4.2,13-4.7,19.8c-0.2,2.1-8.7,11.6-10.3,9.7c-1.2-1.4-1.1-3.4-1-5.3c0.3-5.6-0.7,0.1,1-5.8
	c0.5-1.7-0.7-3.5-1.9-4.8c-1.2-1.3-3.3-1.8-4.6-0.7c-1.3,1.1-1.2,3.3-2.5,4.5c-1.6,1.5-4.4,0.4-5.5-1.5c-1.1-1.9-0.9-4.2-0.9-6.4
	c0.1-2.2,0-4.6-1.5-6.2c-1.5-1.7-3.5-2.2-4.5-3.9c-1.6-2.5,0.2-6-0.9-8.8c-1-2.5-4-3.7-6.8-3.6c-6.4,0.3-12.7,4.6-19.1,2.1
	c-2.5-1-4.3-3.6-6.8-4.5C604.2,196.3,601.1,197.5,599.3,193.1z"/>
<path class="st4" d="M593.6,768.8l-82.8-2.1c-5-2.8-6.3-5.7-5.8-8.2c0.9-4.8,7.8-8.6,7.8-8.6l22-3l21.2-17.5c3.4,2,4.3,8,4.3,8
	s27.2,18.3,30.8,19c1.8,0.3,2.5,3.5,2.6,6.5C593.9,764.9,593.8,766.8,593.6,768.8z"/>
<path class="st14" d="M592.6,769.8l-82.8-2.1c-5-2.8-6.3-5.7-5.8-8.2c0.9-4.8,7.8-8.6,7.8-8.6l22-3l21.2-17.5c3.4,2,4.3,8,4.3,8
	s27.2,18.3,30.8,19c1.8,0.3,2.5,3.5,2.6,6.5C592.9,765.9,592.8,767.8,592.6,769.8z"/>
<path class="st4" d="M592.6,769.8l-82.8-2.1c-5-2.8-6.3-5.7-5.8-8.2l88.7,4.4C592.9,765.9,592.8,767.8,592.6,769.8z"/>
<g class="st16">
	<path d="M662.6,231.3c0.4-1,0.8-2,1-3c0.5-1.7-0.7-3.5-1.9-4.8c-1.2-1.3-3.3-1.8-4.6-0.7c-1.3,1.1-1.2,3.3-2.5,4.5
		c-1.6,1.5-4.4,0.4-5.5-1.5c-1.1-1.9-0.9-4.2-0.9-6.4c0.1-2.2,0-4.6-1.5-6.2c-1.5-1.7-3.5-2.2-4.5-3.9c-1.6-2.5,0.2-6-0.9-8.8
		c-1-2.5-4-3.7-6.8-3.6c-6.4,0.3-12.7,4.6-19.1,2.1c-2.5-1-4.3-3.6-6.8-4.5c-3.5-1.3-6.6-0.1-8.3-4.5c-0.8-2.3-0.9-4.8-0.3-7.2
		c0.1-0.3,0.1-0.6,0.2-0.9c-0.5,1.2-0.9,2.5-1.2,3.9c-0.6,2.4-0.5,4.9,0.3,7.3c1.8,4.4,4.8,3.2,8.3,4.5c2.5,0.9,4.3,3.5,6.8,4.5
		c6.4,2.6,12.7-1.7,19.1-2.1c2.7-0.1,5.8,1,6.8,3.6c1.1,2.8-0.7,6.2,0.9,8.8c1,1.7,3.2,2.4,4.5,3.9s1.5,4,1.5,6.2
		c-0.1,2.2-0.2,4.5,0.9,6.4c1.1,1.9,3.9,3,5.5,1.5c1.3-1.2,1.2-3.4,2.5-4.5c1.3-1.1,3.5-0.6,4.6,0.7
		C661.8,227.8,663,229.6,662.6,231.3z"/>
	<path d="M663.5,239.4c-1.2-1.4-1.1-3.4-1-5.3c0.1-0.9,0.1-1.9,0-2.8c-1.7,5.8-0.7,0.2-1,5.8c-0.1,1.8-0.2,3.9,1,5.3
		c1.6,1.9,10.2-7.6,10.3-9.7c0-0.4,0.1-0.8,0.1-1.1C670.6,235,664.8,240.9,663.5,239.4z"/>
	<path d="M678.5,209.9c-1,2.1-1.8,4.2-2.5,6.5c0.4-1.2,0.9-2.3,1.5-3.5c1.7-3.5,4-6.7,5.1-10.4c0.1-0.3,0.2-0.6,0.2-0.8
		C681.6,204.5,679.9,207.1,678.5,209.9z"/>
</g>
<path class="st4" d="M570,695.9c0,0,2.1,6.7,8.3,7.5C584.5,704.2,570,695.9,570,695.9z"/>
<path class="st4" d="M563,729.4c0,0,6,0.2,11.9,0C580.8,729.2,563,729.4,563,729.4z"/>
<path class="st4" d="M667.2,656c0,0,7.5,0.3,12-2.8S667.2,656,667.2,656z"/>
<path class="st4" d="M696,615c0,0-11.8,6-9.5,8.5C688.8,626,696,615,696,615z"/>
<path class="st4" d="M689,633.5c0.8-0.5,7-3.8,8.5-7.2S689,633.5,689,633.5z"/>
<path class="st17" d="M481.7,767.2l-7.5,3l-11.2,2.5l-9.9-3.5l-2.6-8c0,0,4.4-14,4.6-23.9c0-0.9,0-1.8-0.1-2.6
	c-0.3-3.8-0.1-7.5,0.6-11.2c0.4-2.2,0.9-4.4,1.7-6.5h15.8l1.7,8.9l2,10.6c0.7,2.1,1.1,4.3,1.3,6.5c0,0.7-0.1,1.3-0.3,1.9
	c-0.1,0.1-0.1,0.3-0.1,0.5l0,0c0,1.8,0.1,3.5,0.5,5.2v0.1C479.2,757.3,481.7,767.2,481.7,767.2z"/>
<path class="st17" d="M528.4,778.2l-26-3.2c0,0,1.4-5.1,2.5-12c0.4-2.6,0.8-5.4,1.1-8.4c0.4-4.4,1.7-8.6,4.1-12.4
	c0.8-1.3,1.7-2.5,2.8-3.5l15.5,3.5c0,0,0.1,3,0.2,6.7c0.1,5.6,0,12.8-0.9,14.4l-0.1,0.1C526.2,766.3,528.4,778.2,528.4,778.2z"/>
<path class="st4" d="M477.6,745.3l-0.1-3.5l0.4,1.1c0,0.7-0.1,1.3-0.3,1.9C477.6,745,477.6,745.1,477.6,745.3z"/>
<path class="st4" d="M481.7,767.2l-7.5,3l-11.2,2.5l-9.9-3.5l-2.6-8c0,0,4.4-14,4.6-23.9c0.3-1.2,0.5-1.8,0.5-1.8l-2,24
	c-0.2,3,2,5.6,5,5.9c0.2,0,0.3,0,0.5,0l14.6-0.2c3,0,5.4-2.5,5.4-5.5c0-0.2,0-0.3,0-0.5l-0.9-8.6
	C479.2,757.3,481.7,767.2,481.7,767.2z"/>
<path class="st14" d="M455.5,736.5c-2.3,7.9-5.1,15.7-8.5,23.2c-3.8,8.2,6.5,17.8,11.6,21.9c1.6,1.3,3.6,2,5.7,2h6.5
	c2.9,0,5.6-1.3,7.3-3.6c2.8-3.7,6.4-9.5,6.1-14.2c-0.5-7.5-6.8-22.9-6.8-22.9l0.1,4.1l1.3,13.2c0.3,3-1.9,5.7-4.9,6
	c-0.2,0-0.3,0-0.5,0l-14.6,0.2c-3,0-5.5-2.4-5.5-5.4c0-0.2,0-0.3,0-0.5L455.5,736.5z"/>
<path class="st4" d="M472.9,717l1.7,8.9c-4.2,7.7-14.4,1.2-19.1-2.4c0.4-2.2,0.9-4.4,1.7-6.5H472.9z"/>
<path class="st4" d="M528.6,748.9c-5.1,2.4-15.7-4.7-18.5-6.7c0.8-1.3,1.7-2.5,2.8-3.5l15.5,3.5
	C528.4,742.2,528.5,745.2,528.6,748.9z"/>
<path class="st12" d="M561.2,560c-2.2,4.8-7,55.5-6.2,68.2s-1.5,32.8-1.5,32.8s-8.8,46-15.8,59c-4.3,8.1-6.9,16.9-7.8,26
	c-5,5.5-20.5-6.2-20.5-6.2c4-2.2,4.5-27.8,5.5-29.8s1.2-10.8,1.2-10.8l2.8-52.5c0,0,1.2-15-2.5-20.2s0-21,0-21l-1.7-45l-2-26
	c0,0-4.5,27.8-8.3,37.2s-3.8,33.2-3.8,33.2c-0.8,15.5-10.2,34.5-10.2,34.5c0,18.8-13,64.8-15.2,68s0,15.2,0,15.2
	c-5,12.2-22.1-3.2-22.1-3.2s2.9-8.5,1.6-10.5s-1.6-14-1.6-14s4.1,5.2,0.9-22.5c-1.9-16.8-0.6-33.9,3.8-50.2c0,0,4.4-17.5,2.1-35
	s-2.1-49.5-2.1-49.5v-39.3l4.2-7.7c0,0,94.3-14.8,101.3-5.8c1.1,1.7,1.8,3.7,2,5.7C568.5,508.5,563.1,555.8,561.2,560z"/>
<path class="st4" d="M551.9,616.3c0,0-8.8,2.6-9.1,4.4C542.8,620.7,551,618.1,551.9,616.3z"/>
<path class="st4" d="M550.8,627.3c0,0-21.1,9.6-30.4-1.2C530.1,630.1,540.8,630.5,550.8,627.3z"/>
<path class="st4" d="M523.3,634.7c0,0,21.8,4.8,25.6,0H523.3z"/>
<path class="st4" d="M467.9,609.3c0,0-6.1,3.2-8.2,1.3L467.9,609.3z"/>
<path class="st4" d="M468.5,616.3c0,0-9.8,1-10,2.2S468.5,616.3,468.5,616.3z"/>
<path class="st4" d="M461.3,503.3c0,0,43.9-0.4,51.4,2.5c7.5,2.9,12.9-3.4,12.9-3.4l-12,26.4c0,0-5.1-30.4-50.1-19L461.3,503.3z"/>
<path class="st18" d="M457.7,260.1c-1,1.6-2,3.7-1,5.3c0.4,0.5,0.9,1,1.3,1.4c0.6,0.8,1,1.7,1.2,2.7c1.2,4.8,1.4,10.2-1.2,14.4
	c-1.2,1.9-3.1,3.5-4.1,5.5c-1.4,2.9-1.1,6.3-0.6,9.5c0.5,4,1.6,7.8,3.4,11.4c1.8,3.6,4.9,6.4,8.7,7.7c2.2,0.7,4.9,0.9,6.2,2.8
	c1.4,2.1,0.6,5.6,2.8,6.9c1.5,0.9,3.4,0.2,5-0.6c2.2-1.1,4.7-2.4,5.4-4.7c0.5-1.5,0.2-3.2,1.1-4.5c0.7-1,2-1.5,2.7-2.6
	c0.4-0.7,0.6-1.5,0.7-2.3l1.3-10.2c0.2-0.9,0.2-1.9,0.1-2.8c-0.3-2.3-2.1-4.2-3.7-5.9c-2.6-2.7-5.1-5.7-6-9.3
	c-1.4-5.6,1.2-11.4,1.6-17.2c0.1-1.1,0-2.3-0.3-3.4c-0.6-1.5-1.5-2.8-2.7-3.9c-1.2-1.4-2.5-2.6-4-3.6c-3.4-2.1-7.1-1.7-10.8-1.6
	S459.7,256.9,457.7,260.1z"/>
<path class="st17" d="M455.5,343.2l-4,7.5l-1,1c-4.5,4.2-22.4,20.9-24.8,21.3c-2.8,0.5-16.8-21.8-16.8-21.8l21.1-17.8l0.8-0.7
	L455.5,343.2z"/>
<path class="st17" d="M534.7,322.7l-34,13.5c0,0-33.5,4-23-14.5c1.4-2.6,2.6-5.3,3.3-8.1c4.3-16-3.3-31.4-3.3-31.4s39.5-35,34.5-9
	c-2.5,13,3.1,25.3,9.3,34.4C525.3,313.2,529.7,318.2,534.7,322.7z"/>
<circle class="st4" cx="490.8" cy="259.7" r="33"/>
<circle class="st17" cx="490.8" cy="258.7" r="33"/>
<path class="st4" d="M534.7,322.7l-34,13.5c0,0-33.5,4-23-14.5c1.4-2.6,2.6-5.3,3.3-8.1c7.6,9.7,19.2,11.1,19.2,11.1
	c13.5,1.4,16.1-8.8,21.3-17.1C525.3,313.2,529.7,318.2,534.7,322.7z"/>
<path class="st4" d="M455.5,343.2l-4,7.5l-1,1l-5.5-4.8l-15.1-13.2l0.2-0.3l0.8-0.7L455.5,343.2z"/>
<path class="st4" d="M565.2,490.6c-9.4,4-24.7,5.2-30.5,5.4c-8.5,0.3-17.8,0.7-35.5,9c-17.7,8.3-41.4-4.7-41.4-4.7v-2l4.2-7.7
	c0,0,94.2-14.8,101.2-5.8C564.3,486.7,564.9,488.6,565.2,490.6z"/>
<path class="st19" d="M572.8,481.4c-1.3,10-29.7,12.3-38.2,12.7s-17.8,0.7-35.5,9c-17.7,8.3-41.4-4.7-41.4-4.7V497
	c0-3.9,0-15.4,0-23.4c0-2.8,0-5.1,0-6.6c0-3.6,0-8.7-0.2-13.7c-0.1-3.8-0.5-7.6-1.3-11.3c-1.6-6.4-0.1-10,1.4-13.5l0.2-0.5
	c1.6-3.7-0.2-9.3-1.6-14.7c-0.6-3-1-6.1-1-9.2c-0.1-3.1,0-5.5,0-5.5c3-7.3,2.4-14.5,1.2-20.9l0,0c-1.2-6.4-2.9-12-2.2-16.1
	c0.4-2.2,0.4-4.4-0.1-6.5c-0.3-1.7-1.2-3.3-2.6-4.5l-5.5-4.8l-15.1-13.2c0,0,3-5.5,6.5-13.4c2.2-5,4.1-10,5.8-15.2
	c0.3-0.8,0.5-1.6,0.7-2.4c4.7-16,29.7-6.7,29.7-6.7c0.3,28.7,25.7,31.7,25.7,31.7c16,1.7,16.7-13,24.6-21.3c7.9-8.3,36.4,13,36.4,13
	s0.2,7.7-0.2,18.1c-0.3,9.2-1.1,18.4-2.6,27.6c-1.2,7-2.9,13.5-5.3,18c-0.8,1.5-1.4,3-2,4.6c-1.8,5-2.8,10.3-2.7,15.7
	c0,1,0,2,0.1,2.9c0.2,3.4,0.7,6.7,1.6,10c0.3,1.2,0.6,2.3,1.1,3.5c0,0,0.9,2,2.3,5.2c2,4.5,5,11.5,8.2,19.1
	c1.8,4.3,3.6,8.8,5.2,13.2c2.4,6.4,4.5,12.5,5.8,17.2C572.6,476.9,573.1,479.7,572.8,481.4z"/>
<path class="st20" d="M560,336.5c-0.3,9.2-1.1,18.4-2.6,27.6c-2.7,0.7-5.5,1-8.3,1.2c-4.2,0.1-8.4-0.8-12.7-0.9
	c-4.5-0.1-9.1,0.6-13.6,0.9c-9.1,0.5-18.1-0.7-27.1-2l-8.5-1.2c-2.3-0.3-4.6-0.7-6.9-1.3c-1.9-0.5-3.8-1.1-5.6-1.7
	c-6.7-2-13.7-3.2-20.7-3.8c-0.3-1.7-1.2-3.3-2.6-4.5l-5.5-4.8c-2.6-7.8-5.1-15.5-7.6-23.3c-0.4-1.1-0.7-2.2-1-3.3
	c2.2-5,4.1-10,5.8-15.2c1.2,4,2.8,7.8,4.6,11.6c1.1,2.3,2.4,4.6,4.1,6.6c3.9,4.7,9.8,7.3,15.6,9.3c15,5,30.9,6.6,46.6,8.2
	c5.1,0.6,10.3,0.9,15.4,0.9c4-0.1,8-0.6,12-1C547.6,339,553.9,337.9,560,336.5z"/>
<path class="st20" d="M550.1,386.6c-1.8,5-2.8,10.3-2.7,15.7h-0.1c-3.4,1.4-6.6,3.2-10.2,4.3c-3.8,0.9-7.7,1.4-11.6,1.3
	c-5.8,0.2-11.6,0.3-17.4,0.5c-17.8,0.4-35.9,0.7-53-4.2c-0.1-3.1,0-5.5,0-5.5c3-7.3,2.4-14.5,1.2-20.9c1.7,0.9,3.6,2.2,4.4,2.5
	c3.2,1.5,6.5,2.8,9.8,3.8c8.8,2.7,18,3.6,27.2,4c15,0.7,30,0.5,44.9-0.7C545.2,387.3,547.7,387,550.1,386.6z"/>
<path class="st20" d="M560.7,443c-1.5,0.3-3.1,0.6-4.6,0.9c-4.2,0.8-8.3,1.8-12.4,3.1c-3.7,1.2-7.2,2.9-11,4.1
	c-8.8,3-18.2,3.8-27.5,4.1c-15.9,0.6-31.9,0-47.7-1.9c-0.1-3.8-0.5-7.6-1.3-11.3c-1.6-6.4-0.1-10,1.4-13.5c4.2,0.3,8.9,1.6,11.3,2
	c7.7,1.2,15.3,2.7,23.1,2.8c4.7,0,9.4-0.3,14.1-0.8l11.5-1.1c3.6-0.3,7.1-0.7,10.7-1.4c3.4-0.7,6.7-1.8,10.1-2.7
	c4.7-1.3,9.5-2.2,14.2-3.4C554.5,428.4,557.5,435.4,560.7,443z"/>
<path class="st20" d="M571.7,473.4c-5.6,1.8-11.1,4.1-16.3,6.9c-4,2.3-7.8,5-12.1,6.9c-4.6,1.9-9.5,3.3-14.5,4.1
	c-9.5,1.8-19,3.5-28.5,4.9c-14.1,2-28.7,3.5-42.6,0.8c0-3.9,0-15.4,0-23.4c5.1-1.1,12-0.3,16.3-0.1c10,0.4,19.9,2.4,29.8,1.8
	c5.1-0.4,10.1-1.2,15.1-2.3l28.2-5.7c1.5-0.2,3-0.7,4.4-1.4c1.2-0.9,2.4-1.9,3.4-3c3.1-3,7-4.9,10.9-6.8
	C568.3,462.6,570.4,468.7,571.7,473.4z"/>
<path class="st4" d="M546.1,444.8c3.3-0.4,6.6,1.3,9.8,0.8c-1.1,1.8-3.5,2-5.6,2.3c-2.2,0.4-4.4,0.9-6.6,1.5
	c-0.9,0.2-5.9,2.1-6.5,1.5C535.8,449.4,544.8,445,546.1,444.8z"/>
<path class="st4" d="M548.1,455.7c-1.5,1-2.9,2.1-4.1,3.3c-2.3,1.9-5,3.3-7.8,4.1c3,1.8,6.8,1.5,9.6-0.7c0.7-0.8,1.6-1.4,2.5-1.9
	c0.8-0.3,1.6-0.3,2.4-0.6c1-0.4,3.1-2.9,2.6-4.1C552.4,454.1,549.1,455.1,548.1,455.7z"/>
<path class="st4" d="M531.4,416.8c0.9,1,2.4,1,3.7,1.5c0.8,0.4,1.6,0.8,2.4,1.3c3.1,1.7,6.9,2,10.2,0.8c-1.3-1.9-2.7-3.9-4.9-4.6
	c-1.8-0.6-3.8-0.1-5.7,0.2c-1.4,0.4-2.9,0.4-4.4,0.1C531.6,415.7,529.6,414.8,531.4,416.8z"/>
<path class="st4" d="M462.8,223.3c-4.7,5.3-6.2,13.3-12.2,17.1c-1.7,1.1-3.6,1.7-5.3,2.8c-4.9,3.2-6.4,9.6-7.4,15.4
	c-0.7,3.6-0.6,8.6,3,9.5c1.2,0.3,2.4,0,3.5,0.2c3,0.5,4.5,4,4.2,7.1s-1.7,5.8-2.6,8.6c-0.5,1.3-0.5,2.6,0,3.9c0.7,1.1,1.9,1.8,3.2,2
	c4,0.7,8.1-1.6,10.5-4.9c2.4-3.3,3.5-7.3,4.3-11.3c1.4-6.6,2.4-13.2,3-19.9c0.5-5.8,0.8-11.8,3.5-16.8s9-8.8,14.3-6.7
	c3.8,1.5,6.5,5.6,10.6,5.8c1.2,0,2.5-0.3,3.6,0.3c0.8,0.5,1.3,1.3,1.7,2.1c4.3,8.7,8.2,18.1,7.2,27.8c-0.7,6-3.2,11.9-2.7,18
	c0.4,4.4,2.4,8.5,2.3,12.9s-1.9,8.3-3.2,12.4c-1.7,5.8-2.1,11.9-1.1,17.8c0.2,2,0.9,3.9,2.1,5.5c1.2,1.7,3.3,2.4,5.3,1.9l1.5,10.6
	c0,0.8,0.3,1.5,0.7,2.2c1.8,2.4,5.6-0.7,8.6-0.3c1.1,4,5.3,6.4,9.4,7.2c4.1,0.8,8.3,0.5,12.4,1.4c3.8,0.8,7.4,2.6,11.3,3.1
	c9.3,1.1,18.6-7.5,18.2-16.9c-0.2-6.5-4.3-12.2-6.5-18.4c-6-17.5,3.6-37.5-2.8-54.9c-2-5.5-5.6-10.4-8-15.8
	c-3.8-8.6-4.8-18.7-10.8-25.9c-2.6-2.9-5.6-5.3-8.8-7.4c-3.1-2.1-6.3-4.1-9.9-5c-6.1-1.5-12.4,0.2-18.6,0.9
	c-6.6,0.7-12.9-1-19.4-0.6c-5.7,0.2-11.3,1.2-16.7,3C468.1,218.9,465.2,220.8,462.8,223.3z"/>
<path class="st18" d="M462.8,222.3c-4.7,5.3-6.2,13.3-12.2,17.1c-1.7,1.1-3.6,1.7-5.3,2.8c-4.9,3.2-6.4,9.6-7.4,15.4
	c-0.7,3.6-0.6,8.6,3,9.5c1.2,0.3,2.4,0,3.5,0.2c3,0.5,4.5,4,4.2,7.1s-1.7,5.8-2.6,8.6c-0.5,1.3-0.5,2.6,0,3.9c0.7,1.1,1.9,1.8,3.2,2
	c4,0.7,8.1-1.6,10.5-4.9c2.4-3.3,3.5-7.3,4.3-11.3c1.4-6.6,2.4-13.2,3-19.9c0.5-5.8,0.8-11.8,3.5-16.8s9-8.8,14.3-6.7
	c3.8,1.5,6.5,5.6,10.6,5.8c1.2,0,2.5-0.3,3.6,0.3c0.8,0.5,1.3,1.3,1.7,2.1c4.3,8.7,8.2,18.1,7.2,27.8c-0.7,6-3.2,11.9-2.7,18
	c0.4,4.4,2.4,8.5,2.3,12.9s-1.9,8.3-3.2,12.4c-1.7,5.8-2.1,11.9-1.1,17.8c0.2,2,0.9,3.9,2.1,5.5c1.2,1.7,3.3,2.4,5.3,1.9l1.5,10.6
	c0,0.8,0.3,1.5,0.7,2.2c1.8,2.4,5.6-0.7,8.6-0.3c1.1,4,5.3,6.4,9.4,7.2c4.1,0.8,8.3,0.5,12.4,1.4c3.8,0.8,7.4,2.6,11.3,3.1
	c9.3,1.1,18.6-7.5,18.2-16.9c-0.2-6.5-4.3-12.2-6.5-18.4c-6-17.5,3.6-37.5-2.8-54.9c-2-5.5-5.6-10.4-8-15.8
	c-3.8-8.6-4.8-18.7-10.8-25.9c-2.6-2.9-5.6-5.3-8.8-7.4c-3.1-2.1-6.3-4.1-9.9-5c-6.1-1.5-12.4,0.2-18.6,0.9
	c-6.6,0.7-12.9-1-19.4-0.6c-5.7,0.2-11.3,1.2-16.7,3C468.1,217.9,465.2,219.8,462.8,222.3z"/>
<path class="st4" d="M455.2,298.1c0.8,2.7,3.3,4.5,5,6.9c1.9,2.7,2.6,6,2,9.2c-1,5.2-5.3,10-3.9,15.1c0.6,1.8,1.6,3.4,2.9,4.8
	c4.1,5,8.8,10.2,15.2,11.4c1,0.2,2,0.2,3-0.1c1-0.5,1.9-1.2,2.6-2.1c2.7-3.4,3.7-7.9,2.9-12.1c-0.6-1.9-1-3.9-1.3-5.8
	c-0.4-4.3,2.1-8.2,4.1-12s3.7-8.4,1.9-12.2c-1.3-2.8-4.1-4.4-6.8-5.8c-6-2.9-12.4-5-19-6c-3-0.5-4.4-0.9-6.6,1.5
	C455.5,292.8,454.4,295.5,455.2,298.1z"/>
<path class="st18" d="M455.2,297.1c0.8,2.7,3.3,4.5,5,6.9c1.9,2.7,2.6,6,2,9.2c-1,5.2-5.3,10-3.9,15.1c0.6,1.8,1.6,3.4,2.9,4.8
	c4.1,5,8.8,10.2,15.2,11.4c1,0.2,2,0.2,3-0.1c1-0.5,1.9-1.2,2.6-2.1c2.7-3.4,3.7-7.9,2.9-12.1c-0.6-1.9-1-3.9-1.3-5.8
	c-0.4-4.3,2.1-8.2,4.1-12s3.7-8.4,1.9-12.2c-1.3-2.8-4.1-4.4-6.8-5.8c-6-2.9-12.4-5-19-6c-3-0.5-4.4-0.9-6.6,1.5
	C455.5,291.8,454.4,294.5,455.2,297.1z"/>
<path class="st4" d="M549.1,415.2c-0.9-0.2-1.7-0.5-2.5-1c-1.5-1-3-2.1-4.2-3.5c-2.3-2.2-4.3-4.5-6.2-7c-2-2.8-5.1-7.8-4.8-11.4
	c1-0.2,3,1.1,3.9,1.6c1.4,1,2.6,2.2,3.5,3.6c1.5,1.8,3.1,3.4,5,4.7c1.3,0.8,2.5,1.7,3.6,2.7l0.1,0.1
	C547.7,408.6,548.2,411.9,549.1,415.2z"/>
<g class="st16">
	<path d="M460.7,278.9c-2.4,3.3-6.5,5.6-10.5,4.9c-1.3-0.2-2.5-0.9-3.2-2c-0.2-0.3-0.3-0.7-0.3-1c-0.2,0.7-0.5,1.4-0.7,2.1
		c-0.5,1.3-0.5,2.6,0,3.9c0.7,1.1,1.9,1.8,3.2,2c4,0.7,8.1-1.6,10.5-4.9c2.4-3.3,3.5-7.3,4.3-11.3c0.3-1.4,0.6-2.9,0.8-4.3
		C464,272.1,463,275.8,460.7,278.9z"/>
	<path d="M448.6,273.5c0.5-1.3,0.8-2.7,1-4.1c0.2-3-1.3-6.5-4.3-7.1c-1.2-0.2-2.4,0.1-3.5-0.2c-3.3-0.8-3.6-5-3.2-8.5
		c-0.3,1.3-0.6,2.7-0.8,4c-0.7,3.6-0.6,8.6,3,9.5c1.1,0.3,2.4,0,3.5,0.2C447,267.8,448.5,270.7,448.6,273.5z"/>
	<path d="M507.9,265.3c0,0.4-0.1,0.9-0.2,1.3c0.5-2.1,0.9-4.2,1.2-6.3c1-9.6-2.8-19.1-7.2-27.8c-0.3-0.9-0.9-1.6-1.7-2.1
		c-1.1-0.6-2.4-0.3-3.6-0.3c-4.1-0.2-6.8-4.3-10.6-5.8c-5.4-2.1-11.6,1.6-14.3,6.7c-1.5,3-2.5,6.2-2.8,9.6c0.4-1.6,1.1-3.1,1.8-4.6
		c2.8-5.1,9-8.8,14.3-6.7c3.8,1.5,6.5,5.6,10.6,5.8c1.2,0,2.5-0.3,3.6,0.3c0.8,0.5,1.3,1.3,1.7,2.1
		C505.1,246.2,508.9,255.6,507.9,265.3z"/>
	<path d="M555.6,352.7c-3.9-0.5-7.5-2.3-11.3-3.1c-4.1-0.9-8.3-0.5-12.4-1.4c-4.1-0.8-8.3-3.2-9.4-7.2c-3-0.3-6.7,2.7-8.6,0.3
		c-0.4-0.7-0.7-1.4-0.7-2.2c-0.5-3.5-1-7-1.5-10.6c-2,0.5-4.1-0.2-5.3-1.9c-1.2-1.6-1.9-3.5-2.1-5.5c-0.7-3.9-0.7-7.8-0.2-11.7
		c-1.5,5.4-1.7,11.1-0.8,16.7c0.2,2,1,3.9,2.1,5.5c1.2,1.7,3.3,2.4,5.3,1.9c0.5,3.5,1,7,1.5,10.6c0,0.8,0.3,1.5,0.7,2.2
		c1.8,2.4,5.6-0.7,8.6-0.3c1.1,4,5.3,6.4,9.4,7.2c4.1,0.8,8.3,0.5,12.4,1.4c3.8,0.8,7.4,2.6,11.3,3.1c9.1,1.1,18-7,18.2-16
		C570.2,348.5,562.9,353.6,555.6,352.7z"/>
	<path d="M508.6,291.1c0-4.4-2-8.5-2.3-12.9c-0.1-1.8-0.1-3.7,0.2-5.5c-1,3.4-1.4,6.9-1.2,10.5c0.4,4.4,2.4,8.5,2.3,12.9
		c0,0.3,0,0.7-0.1,1C508.1,295.2,508.5,293.2,508.6,291.1z"/>
</g>
<path class="st4" d="M528.4,778.2l-26-3.2c0,0,1.4-5.1,2.5-12l-0.4,6c-0.1,1.5,1,2.8,2.5,2.9l16.8,1.3c1.5,0.1,2.9-1,3-2.5
	c0,0,0,0,0,0v-4.7l0.5-3c0.1,0.1,0.1,0.3,0.2,0.5C526.2,766.3,528.4,778.2,528.4,778.2z"/>
<path class="st14" d="M505.1,762.3c0,0-9.3,18.8-3.7,23.9c4,3.8,17.9,2.7,25.1,1.8c2.4-0.3,4.2-2.4,4.1-4.9
	c-0.4-5.7-1.3-15.4-3-19.1l-0.5,3v4.7c-0.1,1.5-1.5,2.7-3,2.5c0,0,0,0,0,0l-16.8-1.3c-1.5-0.1-2.6-1.4-2.5-2.9L505.1,762.3z"/>
<path class="st21" d="M506.8,253.7c-0.5,4.2,1.7,8.3,2.9,12.4c2.1,7.2,1.4,14.9-1.9,21.7c-1.3,2.6-3,5.1-3.9,7.9
	c-2.5,7.6,2.4,16.7,10,18.9c2.1,0.6,4.4,0.8,6.3,1.8c3.9,2.2,5,7.3,4.9,11.8s-0.7,9.3,1.4,13.2c1.8,3.4,5.2,5.5,8.7,6.9
	c6.3,2.4,13.3,2.5,19.7,0.3c2.2-0.7,4.2-1.8,5.9-3.3c2.8-2.6,3.9-6.6,4.3-10.4c0.7-7-0.8-14.1-4.2-20.3c-2.9-5.1-7-9.4-10.2-14.3
	c-4.6-7-7.3-15.2-7.8-23.6c-0.2-4.3,0.1-8.6-0.8-12.8c-1.3-6-4.9-11.3-10-14.6c-2.5-1.6-5.3-2.7-7.7-4.4c-2.4-1.7-3.6-4.5-6.4-4
	C513.1,241.6,507.3,249,506.8,253.7z"/>
<g class="st16">
	<path d="M509.8,282.1c2.4-6.2,2.7-13,0.9-19.4c-1.2-4.1-3.3-8.1-2.9-12.4c0-0.1,0.1-0.3,0.1-0.5c-0.5,1.1-0.9,2.3-1.1,3.5
		c-0.5,4.2,1.7,8.3,2.9,12.4C511.3,271.1,511.3,276.8,509.8,282.1z"/>
	<path d="M561.8,342c-1.7,1.5-3.7,2.6-5.9,3.3c-6.4,2.2-13.4,2-19.7-0.3c-3.5-1.3-7-3.5-8.7-6.9c-2.1-4-1.4-8.8-1.4-13.2
		c0.1-4.5-1-9.6-4.9-11.8c-1.9-1.1-4.2-1.2-6.3-1.8c-7.2-2.1-11.9-10.3-10.4-17.5c-0.2,0.5-0.5,1.1-0.6,1.6
		c-2.5,7.6,2.4,16.7,10.1,18.9c2.1,0.6,4.4,0.8,6.3,1.8c3.9,2.2,5,7.4,4.9,11.8c-0.1,4.5-0.7,9.3,1.4,13.2c1.8,3.4,5.2,5.5,8.7,6.9
		c6.3,2.4,13.3,2.5,19.7,0.3c2.2-0.7,4.2-1.8,5.9-3.3c1.9-1.9,3.1-4.3,3.7-7C563.8,339.5,562.9,340.9,561.8,342z"/>
</g>
<polygon class="st22" points="615,780.1 606.2,783.3 584.4,776.5 587.9,768.2 591,761 611.1,762.5 612.9,770.6 "/>
<path class="st22" d="M649.3,779.2l-11.2,5.6l-12.9-3l-2.9-9.6l-1.8-6c0,0,23.6-10.6,19.8-6.1c-1.6,1.8-0.4,5.2,1.5,8.7
	C644,772.5,646.5,776,649.3,779.2z"/>
<path class="st4" d="M612.9,770.6l-25-1.9c0,0,0-0.2-0.1-0.5l3.1-7.2l20.1,1.6L612.9,770.6z"/>
<path class="st23" d="M648.9,558l-2.5,1.4l-33,18.6l2.5,103c0,0,0.5,28.5-1.4,44.5c-0.3,2.7-0.8,5.4-1.6,8
	c-3.8,10.8,1.8,36.2,1.8,36.2l-26.7-2c0,0-1.1-8.8-0.1-14.5s-5.8-42.5-5.8-42.5s-5.5-52.2-8-53.8s-6-19-6-24.8s-9.2-45-9.3-45.7
	c0-0.7-5-31.5-5-36.5s-3.2-37.2-1.5-45.2c0.7-3.1,1.6-7.3,2.6-11.2c1.4-6.1,2.7-11.5,2.7-11.5s87.2,5.7,94.5,17.5
	c0.8,1.4,1.4,2.9,1.7,4.5C657.3,520.1,648.9,558,648.9,558z"/>
<path class="st4" d="M645.8,537.3l1.1,20.6l-0.5,1.4l-33,18.6l2.5,103c0,0,0.5,28.5-1.4,44.5c-1.7-6.2-5-14.7-4.8-15.5
	c0.2-1.2-14.8-37-21-43.8s-9.9-23-9.9-23s0.9-33.5,4.4-38s9.6-60.5,9.6-60.5L645.8,537.3z"/>
<path class="st4" d="M641.8,768.8c-1.2,0.2-2.2,0.9-2.9,1.9c-1.2,2.2-10.4,1.9-16.5,1.5l-1.8-6c0,0,23.6-10.6,19.8-6.1
	C638.7,761.9,639.8,765.3,641.8,768.8z"/>
<path class="st23" d="M592.8,543c0,0-4.2,57.8-7.8,62.2s-4.4,38-4.4,38s3.7,16.2,9.9,23s21.2,42.5,21,43.8s7.2,19.5,5.5,21.8
	s-0.2,15,0.3,15.8s3.7,4.9,1.5,8.6s-2,14.7-2,14.7s20.2,2.2,22-1.1s10.5-2.5,10.5-2.5s-7.5-27.7-5.2-33.7s-9.5-64-15.2-77.2
	s2-50.2,2-50.2l18-48l0.5-22L592.8,543z"/>
<polygon class="st10" points="549.9,390.6 570.3,404.8 573.3,437 573.3,465.1 570.6,478.3 552.6,477 553.2,424.8 "/>
<polygon class="st4" points="549.9,390.6 570.3,404.8 573.3,437 573.3,465.1 570.6,478.3 552.6,477 553.2,424.8 "/>
<path class="st22" d="M537.2,300.5c0,0,28.6,24.1,27,53.8c-1.6,29.7,28.4-13.7,28.4-13.7l8-21.3c0,0-35.5-17.3-31.7-39.7
	C572.8,257.3,537.2,300.5,537.2,300.5z"/>
<circle class="st4" cx="548.5" cy="278" r="30.7"/>
<circle class="st22" cx="548.5" cy="276" r="30.7"/>
<path class="st4" d="M561.4,333.7c0,0-9,9.6-11.9,9.6c-2.9,0,2.5,38.3-2.7,45.7c-5.2,7.4,2.7,21.5,2.7,21.5l2.1,37.8
	c0,0-5.6,41.8-4.8,43.7s8,0,8,0l3.2-42.1c0,0-1-28.9,0.3-35.5c1.3-6.7-0.9-29.8,1.5-35.2c2.5-5.4,2.1-16.4,2.1-16.4L561.4,333.7z"/>
<path class="st10" d="M560.4,332.7c0,0-9,9.6-11.9,9.6c-2.9,0,2.5,38.3-2.7,45.7c-5.2,7.4,2.7,21.5,2.7,21.5l2.1,37.8
	c0,0-5.6,41.8-4.8,43.7s8,0,8,0l3.2-42.1c0,0-1-28.9,0.3-35.5c1.3-6.7-0.9-29.8,1.5-35.2c2.5-5.4,2.1-16.4,2.1-16.4L560.4,332.7z"/>
<path class="st4" d="M653.8,504c-12.3,1-50.6,3.8-57.8-0.3c-8.1-4.7-34.3-7.5-41.1-10.1c1.4-6.1,2.7-11.5,2.7-11.5
	s87.2,5.8,94.5,17.5C652.9,500.9,653.5,502.4,653.8,504z"/>
<path class="st24" d="M657.6,501.6c0,0-53,5-61.7,0c-8.7-5-37.8-7.8-42.2-10.7c-4.3-2.8,2.1-28.4,4.7-33.8c2.5-5.5,5.5-9.2,5.1-11.5
	c-0.4-2.3,1.1-6.7,2-9c0.9-2.3,3.4-8.3,3.4-8.3s-2.6-2.3,0-9.1c2.6-6.7,0.4-1.6-7.3-11.6c-7.7-10-2.8-37-2.8-37l1.6-38l7.1,7.6
	l8.4,9.1l13,13.9l17.7,5l17.3,19.7l17.7,36.9c0,0,1.7,8.9,4.5,19.4c1.3,4.9,2.8,10,4.5,14.8C655.9,474,657.6,501.6,657.6,501.6z"/>
<path class="st4" d="M646.1,444.2c-12,4.6-27.9,17.4-33.8,23c-7.7,7.2-21.7,6.8-20.7,0c1-6.8-19.3-55.6-19.3-55.6
	c-2.4-10.7-5.7-21.2-9.7-31.5c-6-15,2.9-35.4,5-39.7l8.4,9.1l13,13.9l17.7,5L624,388l17.7,36.9C641.7,424.8,643.3,433.7,646.1,444.2
	z"/>
<path class="st10" d="M576.3,318.9l-7.4,18.6c0,0-12.1,23.6-5.4,40.5c4.1,10.2,7.3,20.7,9.7,31.5c0,0,20.3,48.8,19.3,55.6
	s13,7.2,20.7,0c7.7-7.2,31.8-26.2,42.9-24.5c11.1,1.7,17.7-3.3,17.7-3.3s-20.2-26.2-19.2-37.3c1-11.1-8-37.7-8-37.7
	s-4-29.1-6.8-36.2c-2.8-7.1-12.4-20.9-19.3-19.3c-6.9,1.6-27.9-0.1-27.9-0.1L576.3,318.9z"/>
<path class="st4" d="M621.1,644.3c0,0-10,4.5-13.6,5.5S619.8,650.3,621.1,644.3z"/>
<path class="st4" d="M625,646.5c0,0-25.9,9.2-24.9,11.5S625,646.5,625,646.5z"/>
<path class="st4" d="M621.1,651.5c0,0-10.5,12.8-7.6,13.5S621.1,651.5,621.1,651.5z"/>
<path class="st4" d="M576.2,479.7c0,0-14.6,0.9,2.5,5.4c17.1,4.5,27.4-1.5,27.4-1.5L576.2,479.7z"/>
<circle class="st25" cx="568.9" cy="373.3" r="2.3"/>
<circle class="st25" cx="591.4" cy="363.9" r="2.3"/>
<circle class="st25" cx="578.4" cy="404.8" r="2.3"/>
<circle class="st25" cx="590.3" cy="436" r="2.3"/>
<polygon class="st25" points="575.1,372.5 592.6,372.5 609.4,362.5 610.3,366.3 593.8,375.6 576,375.6 "/>
<polygon class="st10" points="568.9,339.1 586.9,342.3 587,310.8 576.3,318.9 "/>
<path class="st4" d="M538.5,254.3c1.9-0.4,3.8-0.5,5.7-0.1c2.2,0.7,4.2,1.8,5.9,3.4c4.4,3.4,9.1,7.3,10.1,12.7
	c1,5.5-2.1,11.7,0.3,16.9c1.7,3.7,6.1,6.2,6.2,10.3c0,1.7-0.7,3.3-1.2,4.9c-2.8,8.5,1,17.6,4.7,25.8c1,3.5,4,6,7.6,6.5l5.1,1.4
	c0.9,0.3,1.9,0.4,2.8,0.3c2.3-0.5,3.2-3.3,3.5-5.7c0.2-3.2,0.8-6.4,1.6-9.6c1-3.1,2.9-6,5.8-7.5c5.8-2.9,12.6,1.2,19,1.3
	c1.5,0.1,2.9-0.2,4.2-1c3-2,2.5-6.9,0-9.6s-6-3.9-9.3-5.5c-3.2-1.6-6.1-3.6-8.6-6.1c-1.6-1.5-2.9-3.4-3.7-5.5
	c-1.1-3-0.8-6.3-0.6-9.5c0.5-9-0.1-18.4-3.6-26.7c-3.5-8.4-10.2-15.6-18.9-18.3c-4.9-1.5-10.1-1.5-15.1-2.5
	c-3.9-0.8-7.7-2.3-11.6-3.1c-3.9-0.8-8.2-0.9-11.8,0.8c-5.1,2.5-7.8,8.2-12.6,11.2c-2.7,1.8-6.4,2.9-7.5,5.9
	c-1.3,3.6,1.8,7.8,0.5,11.4c-0.4,1.2-1.3,2.2-1.8,3.3c-0.5,1.1-0.6,2.7,0.3,3.5c0.5,0.4,1,0.6,1.6,0.7c4.2,0.8,7.2-1.6,9.6-4.6
	C529.4,256.2,534.6,255.1,538.5,254.3z"/>
<path class="st4" d="M620,313c-3.4,0.4-6.2,2.8-7.3,6c-1.8,5.1-4.4,14.7-2.9,22.7c2.2,11.5,4.2,22.5,4.2,22.5v19.5
	c0,0,0.5,18.8,3.5,23.5S605.8,453,605.8,453l-13.5,38.2c0,0-20.5,46.8-1.8,48.2s16.4-43.2,16.4-43.2l21.9-38.2l11.8-24.9
	c2.2-12,3.2-24.1,3-36.2c-0.3-21.2-1.3-39.2-1.3-39.2s-5.2-33.1-11.2-39.1C627.1,314.7,623.7,312.7,620,313z"/>
<path class="st22" d="M618,312c-3.4,0.4-6.2,2.8-7.3,6c-1.8,5.1-4.4,14.7-2.9,22.7c2.2,11.5,4.2,22.5,4.2,22.5v19.5
	c0,0,0.5,18.8,3.5,23.5S603.8,452,603.8,452l-13.5,38.2c0,0-20.5,46.8-1.8,48.2s16.4-43.2,16.4-43.2l21.9-38.2l11.8-24.9
	c2.2-12,3.2-24.1,3-36.2c-0.3-21.2-1.3-39.2-1.3-39.2s-5.2-33.1-11.2-39.1C625.1,313.7,621.7,311.7,618,312z"/>
<path class="st21" d="M539.5,253.3c1.9-0.4,3.8-0.5,5.7-0.1c2.2,0.7,4.2,1.8,5.9,3.4c4.4,3.4,9.1,7.3,10.1,12.7
	c1,5.5-2.1,11.7,0.3,16.9c1.7,3.7,6.1,6.2,6.2,10.3c0,1.7-0.7,3.3-1.2,4.9c-2.8,8.5,1,17.6,4.7,25.8c1,3.5,4,6,7.6,6.5l5.1,1.4
	c0.9,0.3,1.9,0.4,2.8,0.3c2.3-0.5,3.2-3.3,3.5-5.7c0.2-3.2,0.8-6.4,1.6-9.6c1-3.1,2.9-6,5.8-7.5c5.8-2.9,12.6,1.2,19,1.3
	c1.5,0.1,2.9-0.2,4.2-1c3-2,2.5-6.9,0-9.6s-6-3.9-9.3-5.5c-3.2-1.6-6.1-3.6-8.6-6.1c-1.6-1.5-2.9-3.4-3.7-5.5
	c-1.1-3-0.8-6.3-0.6-9.5c0.5-9-0.1-18.4-3.6-26.7c-3.5-8.4-10.2-15.6-18.9-18.3c-4.9-1.5-10.1-1.5-15.1-2.5
	c-3.9-0.8-7.7-2.3-11.6-3.1c-3.9-0.8-8.2-0.9-11.8,0.8c-5.1,2.5-7.8,8.2-12.6,11.2c-2.7,1.8-6.4,2.9-7.5,5.9
	c-1.3,3.6,1.8,7.8,0.5,11.4c-0.4,1.2-1.3,2.2-1.8,3.3c-0.5,1.1-0.6,2.7,0.3,3.5c0.5,0.4,1,0.6,1.6,0.7c4.2,0.8,7.2-1.6,9.6-4.6
	C530.4,255.2,535.6,254.1,539.5,253.3z"/>
<g class="st16">
	<path d="M618.7,311.2c-6.5-0.1-13.2-4.2-19-1.3c-2.2,1.1-3.9,3-4.9,5.2c0.8-0.9,1.8-1.7,2.9-2.2c5.8-2.9,12.6,1.2,19,1.3
		c1.5,0.1,2.9-0.2,4.2-1c1-0.7,1.7-1.7,1.9-2.9C621.5,311,620.1,311.3,618.7,311.2z"/>
	<path d="M588.7,332.6c-0.9,0.1-1.9,0-2.8-0.3l-5.1-1.4c-1.8-0.4-3.4-1.1-4.9-2.2c-1.2-1.2-2.1-2.7-2.7-4.3
		c-3.7-8.2-7.5-17.3-4.7-25.8c0.7-1.5,1.1-3.2,1.3-4.8c-0.1-4.1-4.5-6.6-6.2-10.3c-2.4-5.1,0.7-11.3-0.3-16.9
		c-1-5.6-5.7-9.3-10.1-12.7c-1.7-1.5-3.7-2.6-5.9-3.4c-1.9-0.4-3.8-0.4-5.7,0.1c-3.9,0.7-9.1,1.9-11.7,5.1c-2.4,3.1-5.4,5.5-9.6,4.6
		c-0.6-0.1-1.2-0.3-1.6-0.7c-0.9-0.8-0.8-2.4-0.3-3.5c0.5-1.2,1.1-4-0.2-0.3c-0.4,1.2-1.3,2.2-1.8,3.3c-0.5,1.1-0.6,2.7,0.3,3.5
		c0.5,0.4,1,0.6,1.6,0.7c4.2,0.8,7.2-1.6,9.6-4.6c2.6-3.3,7.8-4.4,11.7-5.1c1.9-0.4,3.8-0.4,5.7-0.1c2.2,0.7,4.2,1.9,5.9,3.4
		c4.4,3.4,9.1,7.3,10.1,12.7c1,5.5-2.1,11.7,0.3,16.9c1.7,3.7,6.1,6.2,6.2,10.3c-0.1,1.7-0.6,3.3-1.3,4.8c-2.8,8.5,1,17.6,4.7,25.8
		c0.6,1.6,1.5,3.1,2.7,4.3c1.4,1.1,3.1,1.8,4.9,2.2l5.1,1.4c0.9,0.3,1.9,0.4,2.8,0.3c1.6-0.3,2.5-1.8,3-3.4
		C589.4,332.4,589.1,332.5,588.7,332.6z"/>
</g>
<path class="st26" d="M602.3,776.5c0,0-13.2-8.1-14.5-10.7S567.8,781,567.8,781s-9.8,8.5-14.6,10.4s-8.1,9.4-1.4,10s32.5,1,32.5,1
	l22.2-2.9l13.9-2.5l-2.6-20.5C617.8,776.5,603.4,779.4,602.3,776.5z"/>
<path class="st26" d="M634.9,779.3c0,0-11.7-11-16.5-8.4c-4.8,2.6-16.1,13.9-16.1,13.9s-10.7,8.9-13.5,10.9s-6.2,8.8,0,9.9
	s63.2-7.2,63.2-7.2s-0.7-20.8-2.6-21.1C647.4,776.9,639.1,781.6,634.9,779.3z"/>
<path class="st4" d="M708.5,381.8l1,55.7l-25.3,32.7l-5.9,8.3c0,0-18.1,37-41.2,25.7c-4-1.9-5.7-4.5-5.9-7.3l0,0c0-0.4,0-0.9,0-1.3
	c1.2-13.9,34.8-34.3,34.8-34.3s24.3-42.3,26-43.1c1.7-0.7,9.3-23.3,9.3-23.3l3.3-16.2c1.9-0.5,3.9-1,5.9-1.2L708.5,381.8z"/>
<path class="st11" d="M703.5,376.7l-3.3,16.2c0,0-7.7,22.5-9.3,23.3c-1.7,0.7-26,43.1-26,43.1s-52,31.7-28.8,43s41.3-25.7,41.3-25.7
	l5.9-8.3l40.3-52.1c0,0,19.3-19.6,11-32.9C726.2,369.9,703.5,376.7,703.5,376.7z"/>
<path class="st4" d="M715.2,337.5l9,6.7c0,0,7.7,4.6,5.7,13s3,11,3,11c0.4,3.3,1.4,6.6,3,9.5c2.7,5.2,5,11,0,13.6
	s-36.7,2.6-36.7,2.6s2.3-2.1-5-11.1c-7.3-8.9-15.7-19.3-16.3-25.6s-9.7-23.3-8.7-28s-0.3-21.8-0.1-26.2c0.2-4.4,4.7-16.6,8.7-15.5
	s18.3-7.1,27.7,11S715.2,337.5,715.2,337.5z"/>
<path class="st13" d="M716.2,336.5l9,6.7c0,0,7.7,4.6,5.7,13s3,11,3,11c0.4,3.3,1.4,6.6,3,9.5c2.7,5.2,5,11,0,13.6
	s-36.7,2.6-36.7,2.6s2.3-2.1-5-11.1c-7.3-8.9-15.7-19.3-16.3-25.6s-9.7-23.3-8.7-28s-0.3-21.8-0.1-26.2c0.2-4.4,4.7-16.6,8.7-15.5
	s18.3-7.1,27.7,11S716.2,336.5,716.2,336.5z"/>
<path class="st9" d="M430.2,233c-3.1,4.3-5.4,9.1-6.9,14.2c-5.9,19-2.3,40.3-2.3,40.3L391.5,274c0,0-24-21-10.5-30.8
	c4.5-3.1,8.1-7.4,10.2-12.5c1.3-3,1.8-6.3,1.6-9.5C392.7,221.3,445.2,212.5,430.2,233z"/>
<path class="st4" d="M430.2,233c-3.1,4.3-5.4,9.1-6.9,14.2h-0.8c-12.5,0-24.2-6.2-31.3-16.5c1.3-3,1.8-6.3,1.6-9.5
	C392.7,221.3,445.2,212.5,430.2,233z"/>
<path class="st9" d="M460.5,208.3c0,21-17,38-38,38c-17,0-32-11.3-36.6-27.7c-5.7-20.2,6.1-41.2,26.3-46.9s41.2,6.1,46.9,26.3
	C460,201.4,460.5,204.8,460.5,208.3z"/>
<path class="st4" d="M460.5,208.3c0,4.5-0.8,8.9-2.3,13.1h-0.1c-2.7-1.3-4.7-3.5-6.7-5.6l-9.2-9.9c-1.9-2-4-4.2-6.8-4.2
	c-1.4,0-2.8,0.5-4-0.1s-1.7-2.2-2.3-3.5c-2-4-6-6.5-10.5-6.4c-2.2,0-4.2,0.4-5.3,2.3c-1.5,2.5-2.6,5-4.8,7c-2.4,2.4-5.7,3.6-9,3.3
	c-0.8-0.3-1.7-0.2-2.4,0.2c-0.4,0.3-0.6,0.8-0.7,1.3c-0.6,2.6-0.5,5.2-0.9,7.8s-1.8,5.3-4.3,6.1c-1.8,0.5-3.7,0.1-5.2-1
	c-5.7-20.2,6.1-41.2,26.3-46.9s41.2,6.1,46.9,26.3C460,201.3,460.5,204.8,460.5,208.3L460.5,208.3z"/>
<path class="st18" d="M429,196.9c0.6,1.3,1,2.9,2.3,3.5s2.7,0.1,4,0.1c2.7,0,4.9,2.2,6.8,4.2l9.2,9.9c2,2.1,4.1,4.4,6.8,5.6
	s6.1,1.4,8.3-0.5s2.7-5,2.2-7.8s-2-5.3-3.2-7.9s-2.4-5.3-2.1-8.2c0.2-2.6,1.5-5,2.6-7.3c2.6-5.5,4.3-11.9,1.9-17.5
	c-1.7-3.9-5-6.8-8.5-9.2c-2.3-1.6-5-3.2-7.8-3.1c-3.4,0.1-6.3,2.4-9.7,2.9c-2.2,0.2-4.3-0.1-6.4-0.8c-4.7-1.5-9-4-13.6-5.4
	c-4.5-1.4-9.2-1.9-13.9-1.3c-2,0.2-4,0.7-5.4,2.1s-1.9,3.5-2.6,5.4c-1.2,2.9-3.1,5.3-5.7,7.1c-2.8,1.9-6.1,2.9-9,4.6
	s-5.6,4.6-5.5,7.9c0.2,1.4,0.4,2.7,0.7,4.1c0.3,3.1-0.6,6.2-2.4,8.7c-1.8,2.8-4.4,5.8-3.6,9.1c0.6,2.3,2.7,3.8,4.3,5.6
	c1.9,2.2,3,4.9,4.9,7.1s4.8,4,7.5,3c2.5-0.8,3.9-3.6,4.3-6.1s0.3-5.3,0.9-7.8c0.1-0.5,0.3-0.9,0.7-1.3c0.6-0.5,1.6-0.3,2.4-0.2
	c3.3,0.3,6.6-0.9,9-3.3c2.2-2,3.3-4.5,4.8-7c1.1-1.9,3.1-2.3,5.3-2.2C423,190.5,427,193,429,196.9z"/>
<g class="st16">
	<path d="M380.4,182.1c-0.1-0.9-0.4-1.8-0.6-2.7c-0.1,0.5-0.2,1.1-0.2,1.6c0.1,1.3,0.4,2.6,0.7,3.8C380.5,184,380.5,183,380.4,182.1
		z"/>
	<path d="M465.9,185.6c-1.1,2.4-2.4,4.7-2.6,7.3c-0.1,0.8,0,1.5,0.1,2.3c0.5-2.3,1.4-4.6,2.5-6.6c1.9-4.1,3.4-8.8,3-13.2
		C468.6,178.9,467.5,182.4,465.9,185.6z"/>
	<path d="M466.5,216.8c-2.3,1.9-5.7,1.8-8.4,0.5s-4.7-3.5-6.7-5.6l-9.2-9.9c-1.9-2-4-4.2-6.8-4.2c-1.4,0-2.8,0.5-4-0.1
		s-1.7-2.2-2.3-3.5c-2-4-6-6.5-10.5-6.4c-2.2,0-4.2,0.4-5.3,2.2c-1.5,2.5-2.6,5-4.8,7c-2.4,2.4-5.7,3.6-9,3.3
		c-0.8-0.1-1.8-0.3-2.4,0.2c-0.4,0.4-0.6,0.8-0.7,1.3c-0.6,2.6-0.5,5.2-0.9,7.8s-1.8,5.3-4.3,6.1c-2.7,0.9-5.7-0.8-7.5-3
		s-3-4.9-4.9-7.1c-1.5-1.7-3.5-3.2-4.2-5.4c-0.3,0.9-0.3,1.9-0.1,2.8c0.6,2.3,2.7,3.8,4.2,5.6c1.9,2.2,3.1,4.9,4.9,7.1s4.8,4,7.5,3
		c2.5-0.8,3.9-3.6,4.3-6.1s0.3-5.3,0.9-7.8c0.1-0.5,0.3-0.9,0.7-1.3c0.6-0.5,1.6-0.3,2.4-0.2c3.3,0.3,6.6-0.9,9-3.3
		c2.2-2,3.3-4.5,4.8-7c1.1-1.9,3.1-2.3,5.3-2.2c4.4,0,8.5,2.5,10.5,6.4c0.6,1.3,1,2.9,2.3,3.5s2.7,0.1,4,0.1c2.7,0,4.9,2.2,6.8,4.2
		l9.2,9.9c2,2.1,4.1,4.4,6.7,5.6s6.1,1.4,8.4-0.5c2-1.7,2.7-4.7,2.3-7.3C468.5,214.1,467.7,215.7,466.5,216.8z"/>
</g>
<path class="st10" d="M358.6,771.3l-1.2,24.8c0,0,36.2-0.5,42.3,2.7s43.7,3,43.7,3s17.3-6.5,7.7-13.2s-27-7.3-27-7.3
	s-14.3-19.7-17-20.5s-7.5-5.5-10.5,0.8s-11.3,12.7-11.3,12.7L358.6,771.3z"/>
<path class="st27" d="M440.5,529.3c-4.3,18.3-23.7,98.3-23.7,98.3s-6.7,6.3-6.7,13.7s-4.3,15-4.3,15s2.3,72-3.3,90.7
	c-5.5,18-0.4,17.1,0,17l-16.3,13.3l-30,0.3c0,0,1.3-23,2.3-25s8-12.7,3.7-19.7s1.3-77.3,6-86.3s0-32,0-32c-2.3,5.6-4,11.4-5,17.3
	c-1.3,8.7-12.3,22-12.3,23.7c0,22.8-28,76.7-28,76.7s-10,34-7.3,40.3s-2.7,13-6.3,11.3s-33,0-33,0s-0.7-20,0-21.7s7.7-8.7,7.7-8.7
	c-2.3-18.3,14-91,23.7-101.3s11.6-31.7,11.6-31.7s9,1.3,5.9-3s7.1-26.7,7.1-26.7s-3.3-31.3,0-39.7c2.1-5.5,3.1-11.4,2.7-17.3
	c0-2.3,0.3-19.3,2.2-23.3s-0.2-14.7,0-20.3c0.1-4.4,0.1-13.9,0-18c0-1.2,0-2,0-2l2.5-15.7l11.3-29.3l41.3,9.7l31,6
	c0,0,17.7,18.3,22.7,31.7c0.6,1.7,1,3.4,1.3,5.2C449.4,491.7,444.3,513.1,440.5,529.3z"/>
<path class="st10" d="M296.5,775.8c0,0-20.3-1.8-22.7,7.3s-5.2,26.2-5.2,26.2s-3.2,9.5,17.3,10.3s20.2-2.7,20.2-2.7
	s-0.3-16.3,0.7-19.3s1-14.1,1-14.1S304.3,772.3,296.5,775.8z"/>
<path class="st4" d="M447.1,477.8c-0.3,7.9-0.7,14.5-0.7,14.5s-14.4,0.2-14.1-38.2c0,0-3.2,29.2-6.7,30s-5-4.5-17-3.8
	s-27.2-5.2-29-11.2s-23-22.5-26.2-21.8s-4,13-4,13s-10,7.2-12.5,12c0-1.2,0-2,0-2l2.5-15.7l11.3-29.3l41.3,9.7l31,6
	c0,0,17.7,18.3,22.7,31.7C446.4,474.3,446.9,476,447.1,477.8z"/>
<path class="st28" d="M446.5,490.3c0,0-14.4,0.2-14.1-38.2c0,0-3.2,29.2-6.7,30s-5-4.5-17-3.8s-27.2-5.2-29-11.2s-23-22.5-26.2-21.8
	s-4,13-4,13s-10,7.2-12.5,12s-1.8-8.8,0-17.5s1-26.5,0-34.2s-5-27.5-1.6-41.2s-1.3-44-1.3-44s0.3-19.8,0-32s-14.1-17-7.1-30
	s25.2-28.5,25.2-28.5s12.8,1.5,18.2-3.2c0.6-0.5,1.2-0.9,1.8-1.3c6.1-3.5,17-3.7,17-3.7l18.5,18.9c0,0,9.1,19.3,9.8,24
	c0,0.2,0,0.4,0,0.6l3.2-18.6c0,0,13.3,5,13.3,12.3v11.8c0,0,3,12.8,6,18.8s-1.5,64.8-1.5,64.8s1.8,18.2,0.2,25.8S441,416,441,416
	s3.5,28.5,5.5,34S446.5,490.3,446.5,490.3z"/>
<path class="st4" d="M407,528.1c0,0-4.7,26.8-13,38.8s-21.3,38.8-21.3,38.8"/>
<path class="st29" d="M364.8,200.4h53.3c1.1,0,2,0.9,2,2v19.3c0,1.1-0.9,2-2,2h-53.3c-1.1,0-2-0.9-2-2v-19.3
	C362.8,201.3,363.7,200.4,364.8,200.4z"/>
<circle class="st12" cx="408.9" cy="212.1" r="2.4"/>
<path class="st28" d="M362,291c0,0-19.7,6-26.5,1.5s-19.8-24-19.8-24s3.7-27.5,7-28.5s1.6,26,1.6,26s4.7,10.4,6.4,10.4
	s13.8-1.5,15.2-4.5s4-21.5,4-21.5l2-9l10,6.2l7.8,19.2L362,291z"/>
<path class="st9" d="M335.9,277.5c-8.4,0.6-15.4-6.6-15-15c0.4-9.4,1.2-22.4,2.3-24.2c1.8-3,18.2-25,18.2-25s52.2-27.8,46.8-6
	s-27,24.5-27,24.5l-9.8-5l-0.2,31.5C351.2,258.3,349,276.6,335.9,277.5z"/>
<path class="st4" d="M340.5,592.3c0,0-3,6.7,8,8.7S340.5,592.3,340.5,592.3z"/>
<path class="st4" d="M327.5,619.6c0,0,1,13,6.7,15.7S327.5,619.6,327.5,619.6z"/>
<path class="st4" d="M372.6,650.9c0,0-2.2,6.7,3.2,10.3S372.6,650.9,372.6,650.9z"/>
<path class="st4" d="M372.6,642.6c0,0-0.8,7.7,8.5,10"/>
<path class="st4" d="M368.8,680.6c0,0,6.1,8,8.1,7.3S368.8,680.6,368.8,680.6z"/>
<path class="st4" d="M417.5,781.6c0,0-20.3-1-15.3,4s15.3-2,15.3-2V781.6z"/>
<path class="st4" d="M278.1,797.4c0,0,25.7-4.5,24,0S278.1,797.4,278.1,797.4z"/>
<path class="st4" d="M338.5,303.6c0,0,16.6,2.3,23.3-2.3s8.7,3,4,6.7C361.1,311.6,338.5,303.6,338.5,303.6z"/>
<path class="st4" d="M340.8,323.6c5.3,0.7,4.2,7,13.8,1.3C364.1,319.3,340.8,323.6,340.8,323.6z"/>
<path class="st4" d="M342.7,348.6c0,0,22.6,3.7,27-7.3"/>
<path class="st4" d="M417.5,278.5v0.8l-45.2-40c6.1-3.5,17-3.7,17-3.7l18.5,18.9C407.8,254.5,416.8,273.8,417.5,278.5z"/>
<path class="st28" d="M417.5,277.5v0.8l-45.2-40c6.1-3.5,17-3.7,17-3.7l18.5,18.9C407.8,253.5,416.8,272.8,417.5,277.5z"/>
<path class="st4" d="M335.8,291.3c0,0,26.7-2.3,27-24.2C362.8,267.1,367.3,291.6,335.8,291.3z"/>
<circle class="st25" cx="418" cy="278.3" r="2.1"/>
<polygon class="st30" points="966.9,129.6 965.3,128.9 1029.4,46.4 923.9,32.8 869.5,165.2 928.5,166.6 920.5,188.1 886.9,270 
	951.3,205.7 1003.9,150.5 "/>
<circle class="st31" cx="923.1" cy="34.8" r="7.7"/>
<circle class="st31" cx="1026.8" cy="50.2" r="7.7"/>
<circle class="st31" cx="966.7" cy="131.8" r="7.7"/>
<circle class="st31" cx="1005.1" cy="147.6" r="7.7"/>
<circle class="st31" cx="887.5" cy="262.1" r="7.7"/>
<circle class="st31" cx="932.3" cy="168.6" r="7.7"/>
<circle class="st31" cx="869" cy="162.2" r="7.7"/>
</svg>
