<?xml version="1.0" encoding="utf-8"?>
<!-- Generator: Adobe Illustrator 24.1.0, SVG Export Plug-In . SVG Version: 6.00 Build 0)  -->
<svg version="1.1" id="_x37_4ad5bb7-fdcd-4b2d-be88-4cebbebfa027"
	 xmlns="http://www.w3.org/2000/svg" xmlns:xlink="http://www.w3.org/1999/xlink" x="0px" y="0px" viewBox="0 0 1057.7 785"
	 style="enable-background:new 0 0 1057.7 785;" xml:space="preserve">
<style type="text/css">
	.st0{opacity:0.3;fill:#6C63FF;enable-background:new    ;}
	.st1{opacity:0.1;fill:#6C63FF;enable-background:new    ;}
	.st2{fill:none;stroke:#6C63FF;stroke-miterlimit:10;}
	.st3{fill:#6C63FF;}
	.st4{fill:#8CB11E;}
	.st5{opacity:0.1;enable-background:new    ;}
	.st6{fill:#A8A8A8;}
	.st7{opacity:0.2;enable-background:new    ;}
	.st8{fill:#FFD037;}
	.st9{fill:#535461;}
	.st10{fill:url(#SVGID_1_);}
	.st11{fill:#DB8B8B;}
	.st12{opacity:5.000000e-02;enable-background:new    ;}
	.st13{fill:#ABB1D1;}
	.st14{fill:none;stroke:#C1272D;stroke-miterlimit:10;}
	.st15{fill:#FFFFFF;}
	.st16{fill:#472727;}
</style>
<polygon class="st0" points="954.2,252.4 954.2,188.4 916.2,188.4 916.2,252.4 871.2,252.4 871.2,153.4 838.2,153.4 838.2,79.4 
	811.2,79.4 811.2,3.4 755.2,3.4 755.2,79.4 728.2,79.4 728.2,153.4 696.2,153.4 696.2,64.4 678.2,64.4 678.2,19.4 667.2,19.4 
	667.2,64.4 603.2,64.4 603.2,348.4 554.2,348.4 554.2,318.4 524.2,318.4 524.2,348.4 475.2,348.4 475.2,252.4 387.2,252.4 
	387.2,188.4 349.2,188.4 349.2,252.4 347.2,252.4 347.2,375.4 307.2,375.4 307.2,303.4 259.2,303.4 259.2,375.4 219.2,375.4 
	219.2,153.4 188.2,153.4 188.2,79.4 74.2,79.4 74.2,153.4 44.2,153.4 44.2,544.4 219.2,544.4 347.2,544.4 475.2,544.4 603.2,544.4 
	696.2,544.4 871.2,544.4 999.2,544.4 999.2,252.4 "/>
<path class="st1" d="M204.4,110.1c-5.5,6.6-7.6,16-10,24.8c-19,70.8-65.8,127.8-119.1,168.5c-22.6,17.2-50.1,40.4-45.1,71.3
	c2.7,16.6,14.3,28.8,23,42.3c18.2,28.3,24.1,66.8,15.4,100.7c-9.9,38.6-37.4,74.5-28.9,113.5c5.3,24,23.1,41.1,40.3,55.8
	c26.8,22.9,54.4,44.3,82.9,64.3c19.1,13.4,39.4,26.4,61.7,28.1c19.6,1.5,38.8-6,57.4-13.3c16.3-6.4,32.9-13.1,46.1-26
	c8.6-8.4,15.4-19.3,24.9-26.1c22.4-16.2,51.1-5.9,76.7,1c60.5,16.2,125.2,10.3,182.8-16.7c88.3-41.5,155.6-128.7,242-175.4
	c37.1-20.1,77.5-32.6,111.9-58.5c19.4-14.7,36-32.8,49.2-53.2c26-40.1,40.1-91.2,36-141.3s-26.8-98.3-62.5-126.6
	C950.9,113,902.6,107.4,859,89.2c-44.9-18.8-84.9-51-129.4-71.1c-72.9-32.9-156.9-31-228.3,5.1c-48.4,24.5-97.5,81.7-151.5,86
	C311.4,112.2,234.4,73.7,204.4,110.1z"/>
<path class="st2" d="M842.1,448.3c0,0,17.5,34.4,3.2,53.1c-14.3,18.7,1.3,70,1.3,70"/>
<path class="st3" d="M847.3,437.6c0,6.6-4.9,12-4.9,12s-4.9-5.4-4.9-12s4.9-12,4.9-12S847.3,431,847.3,437.6z"/>
<path class="st2" d="M851.2,448.3c0,0-17.5,34.4-3.2,53.1c14.3,18.7-1.3,70-1.3,70"/>
<path class="st3" d="M846,437.6c0,6.6,4.9,12,4.9,12s4.9-5.4,4.9-12s-4.9-12-4.9-12S846,431,846,437.6z"/>
<path class="st4" d="M846,437.6c0,6.6,4.9,12,4.9,12s4.9-5.4,4.9-12s-4.9-12-4.9-12S846,431,846,437.6z"/>
<path class="st2" d="M858.3,448.3c0,0,17.5,34.4,3.2,53.1c-14.3,18.7,1.3,70,1.3,70"/>
<path class="st3" d="M863.5,437.6c0,6.6-4.9,12-4.9,12s-4.9-5.4-4.9-12s4.9-12,4.9-12S863.5,431,863.5,437.6z"/>
<path class="st3" d="M860.8,465.1c-4.6,4.8-11.8,5.3-11.8,5.3s0.2-7.2,4.8-12s11.8-5.3,11.8-5.3S865.3,460.4,860.8,465.1z"/>
<path class="st3" d="M861.2,488.8c-4.6,4.8-11.8,5.3-11.8,5.3s0.2-7.2,4.8-12s11.8-5.3,11.8-5.3S865.8,484.1,861.2,488.8z"/>
<path class="st3" d="M836.3,501.9c4.3,5,4.2,12.2,4.2,12.2s-7.2-0.9-11.5-5.9s-4.2-12.2-4.2-12.2S832,496.9,836.3,501.9z"/>
<path class="st3" d="M840.3,451.3c5.5,3.7,7.3,10.7,7.3,10.7s-7.2,1.1-12.7-2.6s-7.3-10.7-7.3-10.7S834.8,447.7,840.3,451.3z"/>
<path class="st5" d="M840.3,451.3c5.5,3.7,7.3,10.7,7.3,10.7s-7.2,1.1-12.7-2.6s-7.3-10.7-7.3-10.7S834.8,447.7,840.3,451.3z"/>
<path class="st2" d="M867.4,448.3c0,0-17.5,34.4-3.2,53.2c14.3,18.8-1.3,70-1.3,70"/>
<path class="st3" d="M862.2,437.6c0,6.6,4.9,12,4.9,12s4.9-5.4,4.9-12s-4.9-12-4.9-12S862.2,431,862.2,437.6z"/>
<path class="st5" d="M862.2,437.6c0,6.6,4.9,12,4.9,12s4.9-5.4,4.9-12s-4.9-12-4.9-12S862.2,431,862.2,437.6z"/>
<path class="st3" d="M863.6,465.7c-4.7,4.7-5,12-5,12s7.2-0.4,11.9-5.1s5-12,5-12S868.2,460.9,863.6,465.7z"/>
<path class="st5" d="M863.6,465.7c-4.7,4.7-5,12-5,12s7.2-0.4,11.9-5.1s5-12,5-12S868.2,460.9,863.6,465.7z"/>
<path class="st3" d="M872.7,498.5c-4.7,4.7-5,12-5,12s7.2-0.4,11.9-5.1s5-12,5-12S877.3,493.8,872.7,498.5z"/>
<path class="st2" d="M859.3,491.3c0,0,10.5-16.6,25.3-17"/>
<path class="st2" d="M851.1,481.2c0,0-10.5-16.6-25.3-17"/>
<path class="st2" d="M849.7,504.9c0,0,10.5-16.6,25.3-17"/>
<circle class="st3" cx="884.1" cy="474.2" r="2.7"/>
<circle class="st3" cx="826" cy="464.4" r="2.7"/>
<path class="st2" d="M857.5,510.4c0,0-10.5-16.6-25.3-17"/>
<circle class="st3" cx="832.4" cy="493.5" r="2.7"/>
<circle class="st3" cx="875.2" cy="488.1" r="2.7"/>
<path class="st6" d="M915.7,551.5c0,0-25.4-5.1-32.2-11.8s-37.2-18.6-40.6-10.2s-45.7,37.2-16.9,42.3s67.7,6.8,76.2,3.4
	S915.7,551.5,915.7,551.5z"/>
<path class="st7" d="M826,568.7c28.8,5.1,67.7,6.8,76.2,3.4c6.4-2.6,10.9-15,12.7-20.7l0.8,0.2c0,0-5.1,20.3-13.5,23.7
	s-47.4,1.7-76.2-3.4c-8.3-1.5-10.7-4.9-9.8-9.3C816.9,565.4,819.8,567.6,826,568.7z"/>
<path class="st3" d="M67.2,588.1c0,0,8.4,11-3.9,27.5S41,646.2,45.1,656.5c0,0,18.5-30.7,33.5-31.2S83.8,606.6,67.2,588.1z"/>
<path class="st5" d="M67.2,588.1c0.7,1.1,1.3,2.2,1.7,3.4c14.7,17.2,22.5,33.3,8.4,33.7c-13.1,0.4-28.9,23.9-32.7,29.8
	c0.1,0.5,0.3,0.9,0.4,1.3c0,0,18.5-30.7,33.5-31.2S83.8,606.6,67.2,588.1z"/>
<path class="st8" d="M82.8,602.1c0,3.9-0.4,7-1,7s-1-3.1-1-7s0.5-2,1.1-2S82.8,598.3,82.8,602.1z"/>
<path class="st8" d="M88.2,606.7c-3.4,1.8-6.3,3-6.6,2.5s2.3-2.3,5.7-4.2s2.1-0.5,2.3,0S91.6,604.9,88.2,606.7z"/>
<path class="st3" d="M23,588.1c0,0-8.4,11,3.9,27.5s22.3,30.5,18.3,40.8c0,0-18.5-30.7-33.5-31.2S6.4,606.6,23,588.1z"/>
<path class="st5" d="M23,588.1c-0.7,1.1-1.3,2.2-1.7,3.4c-14.7,17.2-22.5,33.3-8.4,33.7c13.1,0.4,28.9,23.9,32.7,29.8
	c-0.1,0.5-0.3,0.9-0.4,1.3c0,0-18.5-30.7-33.5-31.2S6.4,606.6,23,588.1z"/>
<path class="st8" d="M7.4,602.1c0,3.9,0.4,7,1,7s1-3.1,1-7s-0.5-2-1.1-2S7.4,598.3,7.4,602.1z"/>
<path class="st8" d="M2.1,606.7c3.4,1.8,6.3,3,6.6,2.5S6.4,606.9,3,605s-2.1-0.5-2.3,0S-1.3,604.9,2.1,606.7z"/>
<path class="st6" d="M10.1,655c0,0,23.4-0.7,30.5-5.8s36-11,37.8-3s35.2,40.1,8.8,40.3s-61.5-4.1-68.5-8.4S10.1,655,10.1,655z"/>
<path class="st7" d="M87.6,683.8c-26.4,0.2-61.5-4.1-68.5-8.4c-5.4-3.3-7.5-15-8.2-20.4h-0.8c0,0,1.5,18.9,8.5,23.2
	s42.1,8.6,68.5,8.4c7.6-0.1,10.3-2.8,10.1-6.8C96.2,682.3,93.3,683.8,87.6,683.8z"/>
<circle class="st5" cx="675.1" cy="614.3" r="12.8"/>
<circle class="st9" cx="675.9" cy="615.9" r="12.8"/>
<linearGradient id="SVGID_1_" gradientUnits="userSpaceOnUse" x1="520.27" y1="758.11" x2="520.27" y2="226.8379" gradientTransform="matrix(-1 0 0 1 1031.62 -41.51)">
	<stop  offset="0" style="stop-color:#808080;stop-opacity:0.25"/>
	<stop  offset="0.54" style="stop-color:#808080;stop-opacity:0.12"/>
	<stop  offset="1" style="stop-color:#808080;stop-opacity:0.1"/>
</linearGradient>
<path class="st10" d="M246.9,623.5c0,51.4,42.1,93.1,94.1,93.1s94-41.7,94-93.1c0-38.2-23.3-71.1-56.6-85.4l-1.1-0.5l16.7-46.2
	l109.4,112.8c-2,4.3-2.4,9.3-1.1,13.9c-1.4,0.7-2.8,1.5-4.1,2.3c-3.8,2.4-9.3,5.2-14.2,5.2c0,0-11.2,9.5,10.4,11.1l1.2,0.1v13h48
	V639c10.9,1.6,27.6,1.2,45.5-0.1c7.6,43.9,46.2,77.3,92.7,77.3c51.9,0,94-41.7,94-93.1c0-51.4-42.1-93.1-94-93.1
	c-22.5,0-44.4,8-61.5,22.6c-0.3,0.3-0.7,0.6-1,0.9l-10.7-11l10.5-8.7L597.9,520c-0.5,1.4-1.1,2.7-1.9,3.9l-0.9-0.5
	c-2.6-1.4-6.5-3.5-10.5-5.9l0,0l-0.4-0.3v-33.3c4.7,0.2,9.4,0.1,14.1-0.3c20.5-1.9,23-15.2,15.4-22.8c-6.1-6.1-28.8-2.5-37.9-0.8
	c-2.3,0.4-4.6,0.7-7,0.9l-1.1,0.1c5.6-11.2,13.5-26.2,22.7-48.2c10.8-25.9,8.9-41.5,5.6-50.1c-0.5-2.8-6.2-31.9-18.4-40.9
	c-12.8-9.5-22.4-21.4-38.4-57.8c-10.6-24.1-28.6-28.4-39.5-28.6l0.1-0.1c2.4-1.8,3.4-4.8,5.6-6.8c4.2-3.9,12.4-4.1,14.1-9.3
	c3.6-11.2-13.4-7.6-18.7-8.3c-4.7-0.6-4.7-4-5.5-7.8c-1-5-3.2-9.8-6.3-13.8c-0.9-1.3-2.1-2.4-3.5-3.1c-1.9-0.8-3.9-1-5.9-0.8
	c-6.9,0.4-13.6,2.7-20.5,2c-2.6-0.3-5.2-1-7.8-1.1c-8.6-0.4-16.5,5.7-19.7,13.1c-3.2,7.4-2.7,15.9-0.8,23.7
	c0.9,3.8,2.3,7.8,5.6,10.2c1.5,1.1,3.3,1.8,4.6,3.1c1,1.1,1.8,2.3,2.5,3.6c0.1,1.1,0.4,2.2,0.7,3.3c-1.5,1-3,2.1-4.4,3.3
	c-15.7,13.2-23.6,33.5-20.9,53.9c2.1,16.1,2.8,36.4,2.8,36.4c2.6,2.1,5.6,3.7,8.8,4.7l1.1,13.6c0.2,3,0.2,6-0.1,9.1
	c0,0.1,0,0.1,0,0.2s0,0.2,0,0.3s0,0.2,0,0.3s0,0.2,0,0.3s0,0.1,0,0.2s0,0.3,0,0.4s0,0,0,0.2s0,0.3,0,0.5s0,0.4,0,0.5s0,0.1,0,0.2
	c0,0.2,0,0.4,0,0.5s0,0.1,0,0.3c0,0.2,0.1,0.4,0.1,0.7v0.1c0,0.2,0,0.5,0.1,0.6c0,0.1,0,0.1,0,0.3s0.1,0.3,0.1,0.5
	c0,0.1,0,0.2,0.1,0.4c0,0.2,0.1,0.5,0.1,0.7c0,0.1,0.1,0.2,0.1,0.3c0.1,0.3,0.1,0.5,0.2,0.8l0.1,0.3c0,0.2,0.1,0.4,0.1,0.5
	s0.1,0.3,0.1,0.5c0.1,0.3,0.1,0.5,0.2,0.8l0.1,0.4c0.1,0.2,0.1,0.4,0.2,0.6c0.3,1,0.6,2,1.1,3.2c3.4,9.1,5.1,18.7,5.2,28.4V425
	c-14.6,0.6-28.7,1.8-36.8,4.1l-1.3-0.4c0,0-15.4,1.9-9.6,14.6l2.4,0.7l-0.4,1.2L365,533.8c-7.8-2-15.9-3.1-23.9-3.1
	C289,530.4,246.9,572.1,246.9,623.5z M335.9,693.2c-10.7-0.8-21.1-4-30.4-9.3l32.1-51.3c0.7,0.3,1.4,0.4,2.1,0.5L335.9,693.2
	L335.9,693.2z M398.7,664.5c-7.5,10.1-17.5,18.1-29.1,23.1l-20.2-58.3l0.1-0.1L398.7,664.5L398.7,664.5z M307.9,561.1
	c9.4-4.9,19.7-7.7,30.3-8.1l1.9,57.1l-0.7,2c-1.7,0.4-3.2,1.3-4.5,2.4L307.9,561.1L307.9,561.1z M339.8,552.9h1.5
	c5.6,0,11.2,0.7,16.7,2l-16.5,50.8L339.8,552.9z M390.8,572.8l5.8,6.3c2.5,3,4.7,6.3,6.7,9.7l-52,28.9c-0.5-1-1.1-2-1.9-2.8
	l20.3-56.2c0.3,0.2,0.7,0.3,1.1,0.5C378.2,562.6,385,567.2,390.8,572.8z M404,590.3c5.1,9.5,7.9,20.1,8.2,31l-60.1,1.1
	c0-0.1,0-0.3,0-0.4c0-0.9-0.1-1.8-0.4-2.6L404,590.3L404,590.3z M331.1,622.1c-0.1,0.4-0.1,0.7-0.1,1.1c0,1.9,0.5,3.7,1.6,5.3
	l-51.3,32.3c-11.2-17.4-14-38.9-7.8-58.6L331.1,622.1L331.1,622.1z M274,600.7c5.7-16.5,17.2-30.4,32.5-38.9l27.2,53.9
	c-1,1.5-1.8,3.1-2.3,4.7L274,600.7L274,600.7z M409.6,448.3l23.7,7c0.8,1.2,1.7,2.4,2.7,3.4c-0.2-0.9-0.2-1.8-0.2-2.7l39.7,11.7
	l-0.7,14.4l-69.7-21.5l4-11.2L409.6,448.3z M646.3,683.6l31.9-51c0.8,0.2,1.5,0.3,2.3,0.3l-3.9,59.9
	C666,692.1,655.6,689,646.3,683.6z M739.4,664.2c-7.5,10.1-17.5,18.1-29.1,23.1l-20.2-58.2l0.1-0.1L739.4,664.2L739.4,664.2z
	 M692.2,621.9c-0.1-0.9-0.3-1.7-0.5-2.5l53.1-29.5c5.1,9.5,7.9,20.1,8.2,31L692.2,621.9z M648.6,560.8c9.4-4.9,19.7-7.7,30.3-8.1
	l1.9,60.1h-0.1c-1.3,0-2.5,0.2-3.7,0.7l-3.8-3.9L648.6,560.8L648.6,560.8z M666.4,618.2l-51.7-17.8c2.4-7,5.9-13.7,10.4-19.6
	L666.4,618.2z M670.1,621.6c-9.7-2.4-32.8-8.1-57.7-13.3c0.1-0.4,0.2-0.8,0.3-1.2c0.4-1.8,0.9-3.5,1.4-5.2l55.3,19L670.1,621.6z
	 M680.5,552.6c0.5,0,1,0,1.5,0c8.8,0,17.6,1.6,25.8,4.8L686.9,614c-1.4-0.7-2.9-1.1-4.4-1.2L680.5,552.6z M709.3,557.9
	c8.2,3.4,15.8,8.3,22.2,14.5l5.8,6.3c2.5,3.1,4.7,6.3,6.7,9.8L691,618c-0.7-1.2-1.6-2.3-2.7-3.2L709.3,557.9z M672.3,628.7
	L622,660.5c-4.7-7.2-7.9-15.3-9.6-23.7C637.9,634,662.1,630.4,672.3,628.7z M589.9,602.6c-0.1,0.4-0.2,0.8-0.3,1.2
	c-1.9-0.3-3.7-0.7-5.5-1V584l21.4-20.9l2.5,2.2C599.2,576.2,593,589,589.9,602.6L589.9,602.6z M584.1,562.8l0.5-0.4L584.1,562.8
	L584.1,562.8z M567.5,551.5c-2.3,6.4-5.8,12.3-10.3,17.4l0.3-27.9c1.4-3.3,2.2-6.7,2.6-10.3l1,0.6l0.6,0.3l0.9,0.6l0.6,0.4l0.7,0.5
	l0.6,0.4l0.7,0.4l0.6,0.4l0.5,0.4l1.2,0.8h0.1L567.5,551.5z M477.7,424.4c-3.3-0.1-7.1-0.1-11.1-0.1c4.6-4.7,8.6-8.3,8.6-8.3
	s1.2-1,3.1-2.7L477.7,424.4z M476.2,454l-28.8-9.8c1.7-0.8,3.5-1.5,5.4-2.1c0-0.2,0.1-0.4,0.2-0.6c9-0.1,17.4-0.3,23.9-0.5
	L476.2,454z M469.5,389.9c0,0-5,7.2-11.9,16.1c0.3-8.6,0.9-16.7,2.3-19.3c0.1-0.1,0.1-0.3,0.2-0.4v-0.1c0-0.1,0.1-0.3,0.1-0.5v-0.1
	c0.1-0.2,0.1-0.5,0.1-0.7v-0.1c0-0.2,0.1-0.5,0.1-0.7V384c0.1-0.6,0.1-1.3,0.2-2v-0.1c0-0.8,0.1-1.6,0.1-2.4v-0.1c0-0.4,0-0.9,0-1.4
	l0,0c0-1,0-2,0-3v-0.1c0-1.1-0.1-2.1-0.1-3.3v-0.1c0-1.1-0.1-2.3-0.1-3.5v-0.1c0-0.6-0.1-1.1-0.1-1.6V366c0-0.6,0-1.2-0.1-1.8v-0.1
	c0-0.5-0.1-1.1-0.1-1.6V362c0-0.4-0.1-0.9-0.1-1.3V360c0-0.5-0.1-1-0.1-1.6v-0.8l-0.1-0.9l-0.1-0.9v-0.4c-0.1-0.7-0.1-1.5-0.1-2.2
	V353c-0.4-6.1-0.9-12.1-1.3-17v-0.6l-0.1-1.1c13.3,5.2,20.4,17.1,24.2,28.3C475.5,374.3,469.5,389.9,469.5,389.9L469.5,389.9z
	 M567.5,600.3c-3.7-0.5-7.3-0.9-10.6-1.3l0.1-13.8l0,0l10.5-8.7V599V600.3z M567.5,482.5v22.8c-2.9-2.3-5.8-4.4-8.9-6.3h0.5v-11.9
	c-0.1-2,0.1-3.9,0.4-5.9C562.1,481.7,564.7,482.2,567.5,482.5L567.5,482.5z M636.1,569.2c3.5-2.9,7.2-5.5,11.1-7.7l22.3,44.1
	l-34.4-35.5C635.4,569.8,635.8,569.5,636.1,569.2z M740.3,662.9L691,627.6c0.7-1.2,1.1-2.6,1.2-4l60.8-1.1c0,0.1,0,0.2,0,0.4
	C753,637.2,748.6,651.2,740.3,662.9z M682,693.1c-1.3,0-2.5,0-3.7-0.1l3.9-60.1c2.5,0,4.8-1,6.7-2.6l19.9,57.6
	C700.3,691.4,691.2,693.1,682,693.1L682,693.1z M622.9,661.8l50.5-31.9c0.9,0.9,2,1.7,3.3,2.2L645,682.7
	C636.1,677.5,628.6,670.3,622.9,661.8z M398.7,478.5l1.5-4.1l120.9,41l6.5,36.7c0.9,5.2,2.2,10.3,4,15.2c3,8.2,2.3,18.8,1,27.2
	c-2.9-1.5-6.1-2.2-9.3-2.2h-0.6H522c-1.9,0-3.8,0.3-5.7,0.8L398.7,478.5z M399.6,663.2l-49.3-35.4c0.6-1.3,1.2-2.6,1.6-4l60.3-1.1
	c0,0.1,0,0.2,0,0.4C412.3,637.5,407.9,651.5,399.6,663.2z M337.5,693.3l3.9-60.1c2.5,0,4.8-1,6.7-2.6l19.9,57.6
	c-8.5,3.4-17.6,5.2-26.8,5.2C340,693.4,338.8,693.4,337.5,693.3z M304.2,683.1c-8.8-5.3-16.3-12.5-22.1-21l51.4-32.4
	c0.8,0.9,1.7,1.7,2.8,2.2L304.2,683.1L304.2,683.1z"/>
<path class="st9" d="M306.7,681.5l38.1-61.4l-2.3,1.3l-64.6,41.1l-9-71L345,618v-0.4v-0.4l-4.8-3.5l-32.9-65.9l35.3-6.3v-1.2h1.6
	v0.9l23.8-4.3l6.4,7l0.5-1.5l30.1,35.2l20.1,22.1l-2.6,17.2l-70.4,1.3v-1.6l69.1-1.2l2.3-15.2L408.8,584l-60.1,33.7l3.7,2.7l0.3,0.1
	l0.1,0.2l57.3,41.6l-36,25.5l-22.6-66l-4.9-1.7l-0.1,0.2l-4.9,76.2L306.7,681.5z M308.9,680.7l31.2,13.5l4.6-71.1L308.9,680.7z
	 M353.5,623.4l21.3,62.1l32.5-23.1L353.5,623.4z M270.7,593.8l8.4,66l62.5-39.8l1.6-0.9L270.7,593.8z M373.6,545.7l-6.4-7l-23.1,4.2
	l2.3,73.6l0.3,0.2l2-3.2L373.6,545.7z M403.8,578.8l-29-31.8l-24.6,67.1l-1,1.7l58.2-32.7L403.8,578.8z M309.6,549l31.8,63.7
	l3.5,2.6l-2.3-72.1L309.6,549z"/>
<path class="st9" d="M638.4,681.1l38.1-61.4l-2.3,1.3l-64.6,41.1l-9-71l76.1,26.5v-0.4v-0.4l-4.8-3.5L639,547.5l35.3-6.3V540h1.6
	v0.9l23.7-4.2l6.4,7l0.5-1.5l30.2,35.2l20.2,22.1l-2.7,17.2l-70.4,1.3v-1.6l69.1-1.3l2.3-15.2l-14.7-16.2l-60.1,33.7l3.7,2.7
	l0.3,0.1l0.1,0.2l57.3,41.6l-36,25.5l-22.6-66l-4.9-1.7l-0.1,0.2l-4.9,76.2L638.4,681.1z M640.6,680.4l31.2,13.5l4.6-71.1
	L640.6,680.4z M685.2,623.1l21.3,62.1l32.5-23.1L685.2,623.1z M602.4,593.5l8.4,66l62.5-39.8l1.6-0.9L602.4,593.5z M705.3,545.4
	l-6.4-7l-23.1,4.1l2.3,73.6l0.3,0.2l2-3.2L705.3,545.4z M735.4,578.5l-28.9-31.8l-24.6,67.1l-1,1.7l58.2-32.7L735.4,578.5z
	 M641.2,548.7l31.8,63.7l3.5,2.6l-2.3-72.2L641.2,548.7z"/>
<rect x="569.1" y="551.1" transform="matrix(0.7118 -0.7024 0.7024 0.7118 -221.5468 577.0986)" class="st3" width="46.7" height="14.8"/>
<rect x="569.1" y="551.1" transform="matrix(0.7118 -0.7024 0.7024 0.7118 -221.5468 577.0986)" class="st5" width="46.7" height="14.8"/>
<path class="st11" d="M571,535.2c0,0-19.5-17.1-58.4-28c-38.9-10.9-35-23.3-35-23.3l2.3-8.6l50.6,3.9l24.2,14.7
	c5.1,3.1,9.9,6.6,14.4,10.5c7.5,6.6,26.7,16.7,26.7,16.7C595.9,543.7,571,535.2,571,535.2z"/>
<path class="st5" d="M571.8,529.7h2.6c7.5,0,14.4-3.9,18.4-10.3c1.9,1.1,3.1,1.7,3.1,1.7c0,22.6-24.9,14-24.9,14s-0.7-0.6-2.1-1.7
	L571.8,529.7z"/>
<path class="st12" d="M477.7,483.8l2.3-8.6l41.6,3.2l9,0.7l24.2,14.7c5.1,3.1,9.9,6.6,14.4,10.5c5.6,4.9,17.8,11.9,23.6,15.1
	c1.9,1.1,3.1,1.7,3.1,1.7c0,22.6-24.9,14-24.9,14s-0.7-0.6-2.1-1.7c-5.9-4.6-24.7-17.5-56.3-26.4c-24.7-6.9-32.1-14.4-34.3-19
	C477.1,485.5,477.7,483.8,477.7,483.8z"/>
<path class="st13" d="M575.2,530.5h-2.6l-4.7,6.2c-0.8,18.7-16.3,31.9-16.3,31.9c-4.7,6.2,4.2,11.7,4.2,11.7l60.4-50.6l-20.6-13.6
	C592.5,524.7,584.4,530.5,575.2,530.5z"/>
<path class="st5" d="M477.7,483.8l2.3-8.6l41.6,3.2l-0.3,3c0,0-30.4,0.6-42.8,6.7C477.1,485.5,477.7,483.8,477.7,483.8z"/>
<path class="st13" d="M530.6,394.3H480l-4.7,94.2c9.3-7.8,45.9-8.6,45.9-8.6L530.6,394.3z"/>
<path class="st12" d="M530.6,393.9H480l-4.7,94.2c9.3-7.8,45.9-8.6,45.9-8.6L530.6,393.9z"/>
<path class="st9" d="M349.6,522.2c-36.5,0-69.5,21.7-84,55.2c-20.1,46.4,1.2,100.4,47.6,120.5s100.4-1.2,120.5-47.6
	c20.1-46.4-1.2-100.4-47.6-120.5c-3.9-1.7-7.9-3.1-12-4.3C366.1,523.3,357.9,522.1,349.6,522.2L349.6,522.2z M349.9,682.5
	c-5.9,0-11.7-0.7-17.4-2.2c-37-9.6-59.1-47.3-49.6-84.3c9.6-37,47.3-59.1,84.3-49.6c3.9,1,7.7,2.4,11.3,4
	c24.6,11.2,40.4,35.8,40.4,62.9C419.1,651.6,388.1,682.5,349.9,682.5L349.9,682.5z"/>
<path class="st9" d="M490,437.9c0,0-93.4,5-91.6-6.8c1.9-11.8,93.4-8.7,93.4-8.7C497.5,430.4,490,437.9,490,437.9z"/>
<path class="st12" d="M494.1,433.7c0,0-93.4,5-91.6-6.8c1.9-11.8,93.4-8.7,93.4-8.7C501.6,426.2,494.1,433.7,494.1,433.7z"/>
<polygon class="st14" points="552.9,674.6 552.9,674.6 552.9,674.6 "/>
<rect x="566" y="469.6" class="st3" width="16.2" height="140.8"/>
<path class="st5" d="M582.2,469.6v12.2c-5.3-0.2-10.8-0.6-16.2-1.3v-10.8h16.2V469.6z"/>
<path class="st9" d="M539,465.5c6.9,7.5,41.1,12.5,61,10.6s22.4-14.9,14.9-22.4c-6-6-28.1-2.5-36.9-0.8c-2.2,0.4-4.5,0.7-6.8,0.9
	C551.4,455.3,539,465.5,539,465.5z"/>
<polygon class="st3" points="569.1,528.2 394.7,468.4 400.3,455.3 570.3,508.2 "/>
<polygon class="st3" points="507.4,602.9 390.3,480.8 397.2,470.9 519.9,591.7 "/>
<path class="st5" d="M369.9,529.6c4.1,1.1,8.1,2.6,12,4.3l-7.4,20.8c-3.7-1.7-7.4-3-11.3-4L369.9,529.6z"/>
<polygon class="st3" points="400.8,438 404.4,426.9 418.8,435 416,442.6 355.2,612.5 346.5,607.5 "/>
<polygon class="st5" points="400.3,431 414.6,439.1 411.9,446.7 396.7,442.2 "/>
<path class="st9" d="M480.6,465.9l-85.9-25.5c-5.6-12.5,9.3-14.3,9.3-14.3l85.3,29.3C493.7,467.1,480.6,465.9,480.6,465.9z"/>
<path class="st9" d="M585.6,617.6c0,4.8,0.4,9.5,1.1,14.3c2.7,16.9,10,32.7,21.1,45.6c33,38.3,90.9,42.5,129.1,9.5
	s42.5-90.9,9.5-129.1c-33-38.3-90.9-42.5-129.1-9.5c-4,3.5-7.7,7.2-11,11.3c-9,11-15.3,23.9-18.5,37.8
	C586.3,604,585.6,610.8,585.6,617.6z M609.4,629.7c-0.7-4.1-1.1-8.2-1.1-12.3c0-38.1,30.9-69.1,69-69.1s69.1,30.9,69.1,69
	s-30.9,69.1-69,69.1C644.1,686.4,615.5,662.6,609.4,629.7z"/>
<path class="st5" d="M587.8,597.4c7.3,1.3,14.9,2.8,22.2,4.4c-2.1,9.2-2.3,18.7-0.6,27.9c-7.6,0.8-15.3,1.6-22.8,2.1
	c-0.7-4.7-1.1-9.5-1.1-14.3C585.6,610.8,586.3,604,587.8,597.4z"/>
<path class="st5" d="M582.2,596.4v14H566v-16.6C571.1,594.5,576.6,595.4,582.2,596.4z"/>
<path class="st3" d="M673.1,622.2c0,0-99.7,16.8-132.7,10.6s-21.8-23.7-11.2-36.7c10.6-13.1,141.4,21.2,141.4,21.2L673.1,622.2z"/>
<path class="st5" d="M617.3,548.3l15.5,16.2c-3.7,3.1-7,6.6-9.9,10.3l-16.6-15.2C609.6,555.5,613.3,551.7,617.3,548.3z"/>
<polygon class="st3" points="674.1,615.6 578.2,527.8 581.3,504.1 679.1,606.2 "/>
<circle class="st5" cx="676.2" cy="617.2" r="10"/>
<circle class="st9" cx="677.5" cy="617.2" r="10"/>
<ellipse transform="matrix(0.9239 -0.3827 0.3827 0.9239 -192.5926 246.3713)" class="st5" cx="523" cy="607.3" rx="19.9" ry="19.9"/>
<ellipse transform="matrix(0.9239 -0.3827 0.3827 0.9239 -192.6916 245.8738)" class="st9" cx="521.7" cy="607.3" rx="19.9" ry="19.9"/>
<path class="st3" d="M528.1,613.2l-15.8,21.2c-1.8,2.3-5.1,2.8-7.4,1.1l0,0c-2.3-1.8-2.8-5.1-1.1-7.4l15.8-21.2
	c1.8-2.3,5.1-2.8,7.4-1.1l0,0C529.4,607.5,529.9,610.9,528.1,613.2z"/>
<path class="st11" d="M459,323.5c0,0,5.4,55.3,2.3,61.5s-2.3,43.6-2.3,43.6l-17.9,3.1V405c0-9.5-1.7-19-5-27.9
	c-2.6-7-2.8-11.6-2.6-14.2c0.3-3,0.3-5.9,0.1-8.9l-1.9-23.4L459,323.5z"/>
<path class="st12" d="M435.9,326.3l27.2-7c0,0,0.5,4.7,1,11.5c1.4,16.6,3.5,45.6,1.3,50c-3.1,6.2-2.3,43.6-2.3,43.6l-17.9,3.1v-26.7
	c0-9.5-1.7-19-5-27.9c-2.6-7-2.8-11.6-2.6-14.2c0.3-3,0.3-5.9,0.1-8.9l-0.9-11.8L435.9,326.3z"/>
<path class="st11" d="M517.2,488.2c0.4-6.5,2.5-13.2,8-18.4c14.8-14,27.2,7,27.2,7s0.5,11.7,2,20.1c0.3,2.2,1,4.4,1.9,6.4
	c3.1,6.2,4.7,22.6,0,33.5l-0.8,69.3v3.1l-6.2,4.7l-20.3-11c0,0,0.7-2.3,1.6-5.9c1.9-8.2,4.4-23.4,0.5-34.2c-1.7-4.9-3-9.9-3.9-15
	l-6.7-38.3C520.4,509.5,516.4,499.2,517.2,488.2z"/>
<path class="st5" d="M525.1,469.8c14.8-14,27.2,7,27.2,7s0.5,11.7,2,20.1c-7.7-0.5-26.4-2.3-37.2-8.7
	C517.6,481.7,519.7,475,525.1,469.8z"/>
<path class="st13" d="M513.5,431.7c0,0,3.1-21-1.6-23.3c-4.7-2.3-31.9-3.9-31.9-3.9l7.4-22.3l3.5-10.4l97.3-18.7
	c0,0,2.3,1.8,4.5,6.2c3.8,7.8,6.9,23.5-4.5,51.4c-17.9,43.6-31.1,59.1-30.4,73.2v11.7c0,0-31.1-0.8-43.6-10.9
	c-7.3-5.9-15.1-11.2-23.3-15.6C490.9,469,518.1,453.5,513.5,431.7z"/>
<path class="st5" d="M459,323.5c0,0,0.5,4.7,1,11.5c-1.4-0.5-2.7-1-4.2-1.4c0,0-9.7,12.4-23.2,8.5l-0.9-11.6L459,323.5z"/>
<path class="st5" d="M490.9,371.7l97.3-18.7c0,0,2.3,1.8,4.5,6.2c0.6,2.9,1,4.7,1,4.7s-27.2-6.2-57.6,16.3
	c-30.4,22.6-48.3,7.8-48.3,7.8s0-2.3-0.4-5.9L490.9,371.7z"/>
<path class="st15" d="M445.7,243c5.5-4.8,12-8.2,19-10c28.8-7,30.4,0,30.4,0s31.9-8.6,47.5,27.2s24.9,47.5,37.4,56.8
	s17.9,40.5,17.9,40.5s-27.2-6.2-57.6,16.3c-14.7,11-26.6,13.1-34.8,12.5c-8.7-0.8-13.4-4.7-13.4-4.7c-0.2-7.3-1.3-14.5-3.3-21.5
	c-3.7-12.9-11.7-27.7-28.6-32.2c0,0-14,17.9-31.9,3.9c0,0-0.7-20-2.7-35.8C422.8,276,430.3,255.9,445.7,243z"/>
<path class="st11" d="M454.3,245.6l37.4,6.2c-0.5,2.7-1.2,5.3-2.2,7.8c-2.7,7-8.2,15.9-18.8,14c-17.1-3.1-18.7-1.6-20.2-15.6
	c-0.1-1.3-0.2-2.4-0.3-3.5C449.8,244.4,454.3,245.6,454.3,245.6z"/>
<path class="st12" d="M494,351.5l3.1-8.6c0,0-4.7-24.9,10.9-36.6c15.6-11.7,33.5,2.3,33.5,2.3l-4.3,3.5l-12.8,37.7
	c0,0-1.6,12.5-9.3,19.5c0,0-11.7,12.5-13.2,19.5c-0.1,0.5-0.3,1.1-0.6,1.6c-8.7-0.8-13.4-4.7-13.4-4.7c-0.2-7.3-1.3-14.5-3.3-21.5
	C487.5,359,490.8,354.2,494,351.5z"/>
<path class="st11" d="M509.8,301.4c-15.6,11.7-10.9,36.6-10.9,36.6l-3.1,8.6c-10.1,8.6-21,37.4-21,37.4s-18.7,27.2-32.7,40.5
	s0,27.2,0,27.2c-2.3-10.9,16.3-16.3,16.3-16.3c1.6-7,21.8-25.7,21.8-25.7S502,391,503.5,384c1.6-7,13.2-19.5,13.2-19.5
	c7.8-7,9.3-19.5,9.3-19.5l17.1-41.2C543.3,303.8,525.4,289.8,509.8,301.4z"/>
<path class="st5" d="M530.6,597c1.4,0.9,3.2,2,5,3c6.1,3.5,12.9,5.5,19.9,6v3.1l-6.2,4.7L529,602.9C529,602.9,529.7,600.6,530.6,597
	z"/>
<path class="st5" d="M533.7,265.9c7.8,4.7,21.8,45.1,21.8,45.1s-13.2,1.6-20.2,7s-40.5,0-40.5,0l10.9-42.8
	C505.7,275.2,525.9,261.2,533.7,265.9z"/>
<path class="st15" d="M533.7,264.3c7.8,4.7,21.8,45.1,21.8,45.1s-13.2,1.6-20.2,7s-40.5,0-40.5,0l10.9-42.8
	C505.7,273.7,525.9,259.7,533.7,264.3z"/>
<path class="st5" d="M454.3,244.9l37.4,6.2c-0.5,2.7-1.2,5.3-2.2,7.8c-0.4,0.3-0.9,0.7-1.3,1c-12.2,8.8-29.2,6.1-38-6.1
	C449.8,243.6,454.3,244.9,454.3,244.9z"/>
<path class="st11" d="M475.7,205c15-0.4,27.5,11.5,27.9,26.6c0,0.5,0,0.9,0,1.4c0,15-12.2,27.2-27.2,27.2S449.2,248,449.2,233
	C448.7,217.9,460.6,205.4,475.7,205z"/>
<path class="st5" d="M444.9,237.1c-0.4-15,11.5-27.5,26.6-27.9c15-0.4,27.5,11.5,27.9,26.6c-0.1,0.1-0.2,0.2-0.3,0.3
	c-3.4,2.8-8.3,2.1-12.6,1.5c-8.7-1.3-18.1-2.1-25.9,1.9c-2.8,1.4-5.3,3.4-8.2,4.5c-2,0.8-4.2,1-6.3,0.6
	C445.3,242.1,445,239.6,444.9,237.1L444.9,237.1z"/>
<path class="st16" d="M505.1,207.9c-4.6-0.6-4.6-4-5.4-7.7c-1-4.9-3.1-9.6-6.1-13.6c-0.9-1.3-2.1-2.3-3.4-3.1
	c-1.8-0.7-3.8-1-5.7-0.8c-6.7,0.4-13.3,2.6-19.9,1.9c-2.6-0.3-5.1-0.9-7.6-1.1c-8.4-0.4-16,5.6-19.2,12.8
	c-3.2,7.3-2.6,15.6-0.8,23.3c0.9,3.7,2.3,7.6,5.4,10c1.4,1.1,3.2,1.8,4.5,3.1c1.6,1.6,2.3,4,4.1,5.5c2.3,1.8,5.7,1.7,8.5,0.7
	s5.2-2.8,7.8-4.1c7.5-3.6,16.4-2.9,24.8-1.7c4.1,0.6,8.8,1.1,12.1-1.3c2.3-1.8,3.3-4.7,5.4-6.7c4.1-3.8,12-4,13.7-9.2
	C526.8,205.1,510.3,208.6,505.1,207.9z"/>
<path class="st12" d="M522.7,356.8c0,0,16.8-2.6,23.1-16.6c6.2-14,26.5-19.5,26.5-19.5"/>
<rect x="495.9" y="628.9" class="st3" width="46.7" height="14.8"/>
<rect x="495.9" y="628.9" class="st5" width="46.7" height="14.8"/>
<path class="st13" d="M561.7,607.6L561.7,607.6l3.1,19.5c0,0-49,5.4-70,3.9c-21-1.6-10.1-10.9-10.1-10.9c4.8,0,10.1-2.7,13.8-5.1
	c2.8-1.8,5.9-3.3,9-4.5c9.4-3.5,19.9-14.6,19.9-14.6c0.3,1,4,3.3,8.2,5.6C543.6,606,552.6,608.1,561.7,607.6z"/>
<path class="st3" d="M883.9,544.4c0.1,9.3-4.3,11.5-4.3,11.5c-3.3-7.5,1.9-14.7,1.9-14.7L883.9,544.4z"/>
<path class="st3" d="M875.4,541.2c-2.9,5.5-7.6,4.8-7.6,4.8c-0.4-16.7,6.9-16.4,6.9-16.4C876.8,532.8,878.3,535.7,875.4,541.2z"/>
<path class="st4" d="M929.2,529.4c0,0,22.9-0.1,21,28.6c0,0-19.2,3.4-25.6-23.2L929.2,529.4z"/>
<g>
	<path class="st4" d="M886.4,498.2c6.2-0.1,7.8-4.5,7.8-4.5c-14.6-8.1-17.7-1.4-17.7-1.4C878.4,495.5,880.2,498.2,886.4,498.2z"/>
	<path class="st4" d="M872.2,482.6c14.3,2.3,16.9-8.3,16.9-8.3c-15.4-7.1-18.7,4.5-18.7,4.5L872.2,482.6z"/>
	<path class="st4" d="M866.2,466.2c15.8,4.8,19.9-6.3,19.9-6.3c-14.4-9.7-21.3,2.3-21.3,2.3L866.2,466.2z"/>
	<path class="st4" d="M862.2,448.9c14.5,5.6,22.4-4.2,22.4-4.2c-14.3-9.6-22.6,1.5-22.6,1.5L862.2,448.9z"/>
	<path class="st4" d="M859.7,433.2c12.3,5.8,21.9-4.6,21.9-4.6c-13.7-9.5-22.1,2.1-22.1,2.1L859.7,433.2z"/>
	<path class="st4" d="M859.6,419.3c11.8,4.1,21.3-8.7,21.3-8.7c-12.8-8.8-21.4,6-21.4,6L859.6,419.3z"/>
	<path class="st4" d="M860.8,402.8c10.4,5.6,21.6-7.3,21.6-7.3c-12.5-10-21.8,4.8-21.8,4.8L860.8,402.8z"/>
	<path class="st4" d="M862.7,389c10.7,1.9,22.3-13,22.3-13c-10.9-4.6-22,9.4-22,9.4L862.7,389z"/>
	<path class="st4" d="M865.5,374.5c12.7-2.1,22.1-15.3,22.1-15.3c-8.4-4.8-21.3,12.2-21.3,12.2L865.5,374.5z"/>
	<path class="st4" d="M869.9,359.3c12.3-1.2,21.7-15.6,21.7-15.6c-9.1-2.7-20.4,11.3-20.4,11.3L869.9,359.3z"/>
	<path class="st4" d="M875.4,342.6c10.2,0.1,19-14.5,19-14.5c-6-1.8-18.6,11.7-18.6,11.7L875.4,342.6z"/>
	<path class="st4" d="M880.3,327.1c10.7-2.7,16.9-16.6,16.9-16.6c-6.4-0.7-17,15.1-17,15.1L880.3,327.1z"/>
	<path class="st4" d="M875.4,342.2c-8.1-6.3-5.7-23.2-5.7-23.2c5.8,2.3,7.2,20.8,7.2,20.8L875.4,342.2z"/>
	<path class="st4" d="M879.9,326.6c-8.3-7.4-7.3-22.5-7.3-22.5c6,2.3,8.1,21.2,8.1,21.2L879.9,326.6z"/>
	<path class="st4" d="M883.8,311.3c-6.5-4.8-3.5-22-3.5-22c4.4,3.4,5.5,18.8,5.5,18.8L883.8,311.3z"/>
	<path class="st4" d="M887.4,297.8c-10.4-8.6-6.3-30.1-6.3-30.1l5.8,25.4L887.4,297.8z"/>
	<path class="st4" d="M890.5,275.3c-13.7-8.2-16-26.2-16-26.2c-0.1,1.9,11.5,18.5,11.5,18.5L890.5,275.3z"/>
	<path class="st4" d="M868.4,367.7c7.2-22.2,13-43.5,16.7-59.2l-0.8,0.5c-3.7,15.7-9.7,36.3-16.9,58.4c-0.8,2.5-1.6,5.1-2.3,7.7
		l1,0.3C866.8,372.8,867.5,370.2,868.4,367.7z"/>
	<path class="st4" d="M897.9,521.7c-0.1-0.1-14.4-14.2-25.4-39.2c-10.1-23-19.2-61.8-6.1-108.6l-0.8-0.9
		c-5.9,20.9-8.6,43.6-6.6,63.7c1.6,16,5.7,31.7,12.2,46.5c11.1,25.2,25.6,39.4,25.7,39.6L897.9,521.7z"/>
	<path class="st4" d="M929.1,492.3c0,0-3.8-22.6-31.8-15.9c0,0-0.1,19.5,27.2,21.2L929.1,492.3z"/>
	<path class="st4" d="M942.6,469.1c0,0-6.4-22-34.1-15.4c0,0,6.6,19.8,32.3,19.5L942.6,469.1z"/>
	<path class="st4" d="M955.4,446.4c0,0-6.3-22.8-33-16c0,0,8.9,21.7,31.2,19.9L955.4,446.4z"/>
	<path class="st4" d="M963.7,424.8c0,0-4.8-27.9-29.7-21.7c0,0,7.2,25.4,27.9,25.8L963.7,424.8z"/>
	<path class="st4" d="M971.4,398.7c0,0-5.8-28.1-31-20c0,0,9.9,26.6,29.2,23.8L971.4,398.7z"/>
	<path class="st4" d="M976.2,374.5c0,0-9.2-28.1-28.7-27.4c0,0,9.4,29.7,27.1,33L976.2,374.5z"/>
	<path class="st4" d="M979.3,350.8c0,0-10-33.9-25.9-31.3c0,0,6.9,25.9,25.3,36.5L979.3,350.8z"/>
	<path class="st4" d="M981,322.5c0,0-9.4-28.2-25-29.4c0,0,6.4,27.8,24.7,36.7L981,322.5z"/>
	<path class="st4" d="M982.9,296.2c0,0-11.7-28.3-22-28.9c0,0,5.1,27.8,21,33.5L982.9,296.2z"/>
	<path class="st4" d="M984.2,271.6c0,0-7.2-30.7-17.5-33.2c0,0,1.4,25.1,16.5,35.5L984.2,271.6z"/>
	<path class="st4" d="M988.1,239.6c0,0-7.6-24.5-15.9-28.2c0,0,1.7,28.8,14,34.2L988.1,239.6z"/>
	<path class="st4" d="M991.3,218.5l1.5-43.1c0,0-15.6,32.6-2.7,50.7L991.3,218.5z"/>
	<path class="st4" d="M1003.4,175.6c0,0,11.3-31.5,14-33.3c0,0-22.1,20.4-19.9,46.7L1003.4,175.6z"/>
	<path class="st4" d="M942.8,470.9c0,0,20.8-9.7,34.1,15.4c0,0-19.2,8.1-35.9-11.4L942.8,470.9z"/>
	<path class="st4" d="M955.9,446.6c0,0,21.3-10.4,33.8,14.2c0,0-22.2,7.6-35.5-10.3L955.9,446.6z"/>
	<path class="st4" d="M963.4,425.4c0,0,20.5-19.6,36.8,0.2c0,0-20.9,16.1-37.8,4.1L963.4,425.4z"/>
	<path class="st4" d="M970.3,398c0,0,20.6-20,36.8,0.9c0,0-23.1,16.4-37.6,3.3L970.3,398z"/>
	<path class="st4" d="M974.1,373.7c0,0,15.9-25,34.6-19.4c0,0-16.5,26.5-34.4,25.3L974.1,373.7z"/>
	<path class="st4" d="M978.8,350.6c0,0,16-31.5,31.1-26c0,0-11.5,24.2-31.5,31.3L978.8,350.6z"/>
	<path class="st4" d="M979.9,320.9c0,0,16.5-24.8,31.9-21.8c0,0-13.4,25.1-33.5,28.9L979.9,320.9z"/>
	<path class="st4" d="M981.2,295.6c0,0,12.7-27.8,23.1-28c0,0-6.1,27.6-22.3,32.7L981.2,295.6z"/>
	<path class="st4" d="M983.7,271c0,0,14.2-28.2,24.8-28.2c0,0-7.3,24.1-24.3,30.7L983.7,271z"/>
	<path class="st4" d="M985.8,241.3c0,0,10.6-23.3,19.4-25.9c0,0-5.3,28.4-18.2,32.1L985.8,241.3z"/>
	<path class="st4" d="M992.6,217.7l23.7-36.1c0,0-6.1,35.6-27.1,43L992.6,217.7z"/>
	<path class="st4" d="M1008.9,178.5c0,0,27.5-19,28.5-22.1c0,0-14,26.6-40,31.3L1008.9,178.5z"/>
	<path class="st4" d="M1010.5,170c0,0,31.6-30.4,39.7-30.4c0,0-26.1,1.2-40.4,28.7L1010.5,170z"/>
	<path class="st4" d="M986.1,245.8l1.2,0.1c5.9-46.5,14.6-74,24.4-77.4l-0.4-1.1C1000.9,171.1,992.2,198.2,986.1,245.8z"/>
	<path class="st4" d="M977.4,357l1.7,0.1c0.4-4.3,0.6-8.8,0.8-13.2c1.7-38.5,4.2-73.8,7.6-100.3l-1-1.2c-3.4,26.5-6.7,63-8.3,101.5
		C978.1,348.2,977.8,352.7,977.4,357z"/>
	<path class="st4" d="M844.2,567.5c0.3-0.1,30.9-13.8,62.7-46.4c18.6-19.1,34.1-41,45.9-65c14.7-29.9,23.7-66.7,26.7-102.4l-1.8,0.9
		c-6.7,80.2-43.3,135-72.3,164.8c-31.5,32.3-61.8,45.9-62.1,46L844.2,567.5z"/>
	<circle class="st4" cx="913.2" cy="153.8" r="29.2"/>
</g>
</svg>
