<?xml version="1.0" encoding="utf-8"?>
<!-- Generator: Adobe Illustrator 24.1.0, SVG Export Plug-In . SVG Version: 6.00 Build 0)  -->
<svg version="1.1" id="Layer_1" xmlns="http://www.w3.org/2000/svg" xmlns:xlink="http://www.w3.org/1999/xlink" x="0px" y="0px"
	 viewBox="0 0 1024 768" style="enable-background:new 0 0 1024 768;" xml:space="preserve">
<style type="text/css">
	.st0{fill:#8CB11E;stroke:#000000;stroke-width:4;stroke-miterlimit:10;}
	.st1{fill:#8CB11E;stroke:#000000;stroke-width:0.5;stroke-miterlimit:10;}
	.st2{fill:#8CB11E;}
</style>
<circle class="st0" cx="509.62" cy="384.38" r="20.91"/>
<g>
	<line class="st1" x1="509.62" y1="367.54" x2="509.62" y2="401.21"/>
	<line class="st1" x1="526.45" y1="384.38" x2="492.79" y2="384.38"/>
</g>
<g>
	<line class="st1" x1="521.01" y1="372.73" x2="497.72" y2="396.03"/>
	<line class="st1" x1="521.52" y1="396.03" x2="498.6" y2="373.11"/>
</g>
<g>
	<line class="st0" x1="521.43" y1="371.74" x2="508.17" y2="385.01"/>
	<line class="st0" x1="509.7" y1="382.25" x2="509.7" y2="401.02"/>
	<line class="st0" x1="510.72" y1="384.83" x2="497.81" y2="371.92"/>
</g>
<g>
	<path d="M539.31,400.33c-1.38-1.65-2.08-3.98-2.08-6.99v-20.68c0-3.01,0.69-5.33,2.08-6.99c1.38-1.65,3.4-2.47,6.03-2.47
		s4.65,0.82,6.03,2.47c1.38,1.65,2.08,3.98,2.08,6.99v4.07h-5.21v-4.46c0-2.38-0.92-3.57-2.75-3.57s-2.75,1.19-2.75,3.57v21.5
		c0,2.35,0.92,3.52,2.75,3.52s2.75-1.17,2.75-3.52v-5.88h5.21v5.44c0,3.01-0.69,5.33-2.08,6.99c-1.38,1.65-3.4,2.47-6.03,2.47
		S540.69,401.98,539.31,400.33z"/>
	<path d="M559,363.75h5.51v33h9.06v5.5H559V363.75z"/>
	<path d="M578.47,363.75h15.02v5.5h-9.51v10.17h7.56v5.5h-7.56v11.82h9.51v5.5h-15.02V363.75z"/>
</g>
<g>
	<path d="M405.75,363.61l8.16,0.02c2.84,0.01,4.9,0.74,6.2,2.19c1.3,1.45,1.94,3.68,1.94,6.69l-0.01,2.37
		c-0.01,4-1.22,6.52-3.62,7.58v0.11c1.33,0.44,2.27,1.34,2.82,2.7c0.55,1.36,0.82,3.17,0.81,5.45l-0.02,6.77
		c0,1.1,0.03,1.99,0.09,2.67c0.06,0.68,0.23,1.35,0.5,2.01l-5.61-0.01c-0.2-0.62-0.33-1.21-0.4-1.76c-0.07-0.55-0.1-1.54-0.09-2.97
		l0.02-7.04c0-1.76-0.25-2.99-0.77-3.69c-0.52-0.7-1.41-1.05-2.67-1.05l-1.9,0l-0.04,16.5l-5.51-0.01L405.75,363.61z M413.22,380.13
		c1.1,0,1.93-0.31,2.48-0.93c0.55-0.62,0.83-1.67,0.83-3.13l0.01-2.97c0-1.39-0.22-2.4-0.67-3.03c-0.45-0.62-1.16-0.94-2.13-0.94
		l-2.5-0.01l-0.03,11L413.22,380.13z"/>
	<path d="M428.18,363.67l15.01,0.04l-0.01,5.5l-9.51-0.02l-0.03,10.17l7.56,0.02l-0.01,5.5l-7.56-0.02l-0.03,11.82l9.51,0.02
		l-0.01,5.5l-15.01-0.04L428.18,363.67z"/>
</g>
<g>
	<path d="M470.24,400.33c-1.39-1.65-2.08-3.98-2.08-6.99v-20.68c0-3.01,0.69-5.33,2.08-6.99c1.38-1.65,3.39-2.47,6.03-2.47
		c2.64,0,4.65,0.82,6.03,2.47c1.38,1.65,2.08,3.98,2.08,6.99v4.07h-5.21v-4.46c0-2.38-0.92-3.57-2.75-3.57
		c-1.84,0-2.75,1.19-2.75,3.57v21.5c0,2.35,0.92,3.52,2.75,3.52c1.83,0,2.75-1.17,2.75-3.52v-5.88h5.21v5.44
		c0,3.01-0.69,5.33-2.08,6.99c-1.38,1.65-3.4,2.47-6.03,2.47C473.64,402.8,471.63,401.98,470.24,400.33z"/>
</g>
<path class="st2" d="M454.53,396.4c-1.85-1.05-4.21-0.39-5.25,1.46l0,0c-1.05,1.85-1.39,10.68-1.39,10.68s7.06-5.03,8.11-6.89
	C457.04,399.8,456.38,397.44,454.53,396.4C454.53,396.4,454.53,396.4,454.53,396.4z M451.36,401.99c-0.97-0.55-1.31-1.78-0.77-2.75
	c0.55-0.97,1.78-1.31,2.75-0.77c0.97,0.55,1.31,1.78,0.77,2.75l0,0C453.57,402.2,452.34,402.54,451.36,401.99z"/>
<g>
</g>
<g>
</g>
<g>
</g>
<g>
</g>
<g>
</g>
<g>
</g>
<g>
</g>
<g>
</g>
<g>
</g>
<g>
</g>
<g>
</g>
<g>
</g>
<g>
</g>
<g>
</g>
<g>
</g>
</svg>
