<?xml version="1.0" encoding="utf-8"?>
<!-- Generator: Adobe Illustrator 24.1.0, SVG Export Plug-In . SVG Version: 6.00 Build 0)  -->
<svg version="1.1" id="Layer_1" xmlns="http://www.w3.org/2000/svg" xmlns:xlink="http://www.w3.org/1999/xlink" x="0px" y="0px"
	 viewBox="0 0 1024 768" style="enable-background:new 0 0 1024 768;" xml:space="preserve">
<style type="text/css">
	.st0{fill:#6C63FF;}
</style>
<g>
	<path class="st0" d="M529.15,290.28l-24.82,25.25c-0.18,0.17-0.18,0.45-0.01,0.63c0,0,0.01,0.01,0.01,0.01l17.42,18.52
		c1.17,1.18,1.16,3.08-0.02,4.25c-0.56,0.55-1.31,0.87-2.1,0.87c-0.8,0-1.56-0.32-2.12-0.88l-17.32-18.45
		c-0.18-0.18-0.48-0.18-0.66,0l-4.22,4.26c-3.49,3.57-8.28,5.58-13.27,5.58c-5.09-0.02-9.95-2.09-13.5-5.74l-4.06-4.15
		c-0.18-0.18-0.48-0.18-0.66,0l-17.28,18.41c-1.17,1.17-3.06,1.17-4.23,0c0,0,0,0,0,0c-1.17-1.16-1.18-3.05-0.02-4.22
		c0.01-0.01,0.01-0.01,0.02-0.02l17.35-18.48c0.16-0.19,0.16-0.46,0-0.65l-24.82-25.25c-0.18-0.18-0.47-0.18-0.65,0
		c-0.09,0.09-0.13,0.2-0.13,0.33v50.53c0.01,4.07,3.31,7.36,7.37,7.37h81.16c4.07-0.01,7.36-3.31,7.37-7.37v-50.49
		c0.01-0.25-0.18-0.46-0.44-0.48C529.38,290.13,529.24,290.18,529.15,290.28z"/>
	<path class="st0" d="M481.96,323.72c3.4,0.03,6.67-1.31,9.06-3.73l36.15-36.8c-1.28-1.06-2.89-1.65-4.56-1.66h-81.22
		c-1.67,0.01-3.28,0.59-4.56,1.66l36.16,36.8C475.35,322.39,478.59,323.74,481.96,323.72z"/>
</g>
</svg>
