<?xml version="1.0" encoding="utf-8"?>
<!-- Generator: Adobe Illustrator 24.1.0, SVG Export Plug-In . SVG Version: 6.00 Build 0)  -->
<svg version="1.1" id="e040bbb4-af39-4832-90eb-f6c83b79a36e"
	 xmlns="http://www.w3.org/2000/svg" xmlns:xlink="http://www.w3.org/1999/xlink" x="0px" y="0px" viewBox="0 0 392.9 715"
	 style="enable-background:new 0 0 392.9 715;" xml:space="preserve">
<style type="text/css">
	.st0{fill:url(#SVGID_1_);}
	.st1{fill:#FFFFFF;}
	.st2{fill:#6C63FF;}
	.st3{fill:#DBDBDB;}
	.st4{fill:none;}
	.st5{fill:none;stroke:#000000;stroke-width:0.5;stroke-miterlimit:10;}
	.st6{clip-path:url(#SVGID_3_);}
	.st7{fill:#F1F9FF;}
	.st8{fill:#2699FB;}
	.st9{font-family:'BebasNeue-Regular';}
	.st10{font-size:12.6658px;}
	.st11{font-family:'Arial-BoldMT';}
	.st12{font-size:9.8229px;}
	.st13{font-family:'ArialMT';}
	.st14{font-size:9.145px;}
	.st15{clip-path:url(#SVGID_5_);}
	.st16{clip-path:url(#SVGID_7_);}
	.st17{fill:none;stroke:#2699FB;stroke-width:6;}
	.st18{fill:none;stroke:#2699FB;}
	.st19{fill:none;stroke:#F7F7F7;stroke-width:3;}
	.st20{font-size:12px;}
	.st21{font-size:15.6165px;}
	.st22{fill:#8CB11E;stroke:#000000;stroke-miterlimit:10;}
	.st23{fill:none;stroke:#000000;stroke-width:4;stroke-miterlimit:10;}
	.st24{font-size:29.5357px;}
	.st25{letter-spacing:1.2;}
	.st26{letter-spacing:3.5;}
	.st27{fill:#8CB11E;}
	.st28{fill:#7FC4FD;}
	.st29{clip-path:url(#SVGID_9_);}
	.st30{clip-path:url(#SVGID_11_);}
	.st31{fill-rule:evenodd;clip-rule:evenodd;fill:#FFFFFF;}
	.st32{clip-path:url(#SVGID_13_);}
	.st33{clip-path:url(#SVGID_15_);}
	.st34{clip-path:url(#SVGID_17_);}
	.st35{clip-path:url(#SVGID_19_);}
</style>
<linearGradient id="SVGID_1_" gradientUnits="userSpaceOnUse" x1="196.45" y1="766.9007" x2="196.45" y2="52" gradientTransform="matrix(1 0 0 1 0 -52)">
	<stop  offset="1.000000e-02" style="stop-color:#808080;stop-opacity:0.25"/>
	<stop  offset="0.54" style="stop-color:#808080;stop-opacity:0.12"/>
	<stop  offset="1" style="stop-color:#808080;stop-opacity:0.1"/>
</linearGradient>
<path class="st0" d="M24.7,0h343.5c13.7,0,24.7,11.1,24.7,24.7v665.5c0,13.7-11.1,24.7-24.7,24.7H24.7C11.1,715,0,703.9,0,690.3
	V24.7C0,11.1,11.1,0,24.7,0z"/>
<path class="st1" d="M33.8,9.9h325.4c13.7,0,24.7,11.1,24.7,24.7v639c0,13.7-11.1,24.7-24.7,24.7H33.8c-13.7,0-24.7-11.1-24.7-24.7
	v-639C9.1,21,20.1,9.9,33.8,9.9z"/>
<rect x="54.8" y="58.6" class="st2" width="290.2" height="560.2"/>
<ellipse class="st3" cx="196.5" cy="659.2" rx="23.1" ry="23.7"/>
<ellipse class="st3" cx="152.5" cy="32.5" rx="4.6" ry="4.8"/>
<path class="st3" d="M174.8,28.9h68.7c0.8,0,1.5,0.7,1.5,1.5v4.1c0,0.8-0.7,1.5-1.5,1.5h-68.7c-0.8,0-1.5-0.7-1.5-1.5v-4.1
	C173.3,29.6,174,28.9,174.8,28.9z"/>
<line class="st4" x1="309.1" y1="178.8" x2="79.5" y2="178.8"/>
<line class="st4" x1="205.6" y1="172.5" x2="179.6" y2="172.5"/>
<line class="st5" x1="309.1" y1="178.8" x2="79.5" y2="178.8"/>
<g>
	<g>
		<defs>
			<rect id="SVGID_2_" x="63.9" y="178.8" width="272.1" height="390.7"/>
		</defs>
		<clipPath id="SVGID_3_">
			<use xlink:href="#SVGID_2_"  style="overflow:visible;"/>
		</clipPath>
		<g id="Map" class="st6">
			<rect id="Rectangle_586" x="63.9" y="178.8" class="st7" width="271.4" height="390.7"/>
			<path id="Intersection_2" class="st1" d="M238.3,569.6l-7.1-16.3l-13.1,2.9l-1.8,13.4h-2.9l4.6-33.5l-8,0.8l-14.7,32.7h-6.2
				l7.7-17.2l-17.6-3.3l-9.6,20l1.9,0.7h-5.3l4.8-9.9l-19.2-5.9c-2.8,5.4-6,10.7-9.5,15.9h-6.7c8.7-12.2,15.3-25.9,19.9-37.1
				l-41.2-2.6l8.2,39.6h-5.9l-2.6-12.6l-23.7,3.3l-0.2,2.6l4.9,6.8h-3.4l-2-2.7l-0.2,2.7h-2.9l0.8-9L70,563.3l0.6,6.6h-5.8l-0.1-1.2
				V493l5.2-14.3l-5.2-0.4v-4.7l6.8,0.5l6.7-18.7l-13.5-5.3v-8.6l3.6,1.4l12.5-35.7L69,401.8l-4.3,10.7v-7.6l1.6-3.9l-1.6-0.2v-2.4
				l2.5,0.3l8.4-21l-10.9-3.6v-2.5l11.8,3.9L91.6,338l-26.9,2.1v-4.7l40.6-3.1l-29.1-27c-2,0.2-7.5,0.6-11.5,0.9V304l10.6-0.8
				L74.1,290l-9.5,1v-7.9l8.4-0.8l-2-10c-2.4,0.3-4.6,0.6-6.5,0.8v-2.4l6-0.7l-2-10.1l-4,0.4v-2.4l3.5-0.4l-2.7-13.8l-0.8,0.1V239
				l22.7-1.8l-3.6-20.7c-6.1,1-12.5,1.8-19.2,2.4v-4.7c1.1-0.1,2.2-0.2,3.3-0.3L66,195.3l-1.6-0.2v-4.8l1.1,0.1l-1-11.6h5.8
				l3.2,34.4c3.4-0.4,6.6-0.9,9.8-1.5l2.9-32.9h2.9l-2.9,32.4c8.6-1.7,16.1-3.9,21.9-7c0.4-0.2,0.8-0.5,1.3-0.7l-18-24.7h3.4
				l7.7,10.5l14.5-7l-0.7-3.5h5.9l2.6,12.7c3.9-4,7.5-8.3,10.6-12.7h6.7c-0.8,1.2-1.7,2.5-2.6,3.7l21.8,6.1l4.7-9.8h5.3l15.2,5.2
				l2.3-5.2h6.2l-0.5,1.1l17.8,4.4l0.8-5.6h2.9l-0.9,6.3l13.9,3.5c1.9-0.4,6.7-1.5,12.1-2.7l-3.1-7.1h3c1.1,2.6,2.1,4.9,2.8,6.5
				c4.5-1,9-2,12.4-2.8l-2.2-3.7h11l1,1.5l6.6-1.5h20.7c-10,2.3-19.3,4.5-24.8,5.8l9.2,15.3l21.6-3l-2.8-18.1h5.8l2.7,17.4l22.1-3
				l3.3-14.4h5.5v18.7l-1.5,6.3l1.5,0.4v2.4l-1.8-0.4l1.8,3.1v11.2l-3.7-6.5l-8.1,35.8c2.6,1.4,4.7,3.2,6.3,5.3l5.5-2.7v2.8l-4.1,2
				c1.1,2.2,1.7,4.5,1.7,6.8c0,0.4-0.1,0.7-0.1,1l2.4,0.4v8l-5.3-0.8c-3.1,4.4-8.5,7.4-14.6,8.3l-8.1,20.5l28,4.5v2.4l-12.9-2.1
				c-0.3,1.7-1,4.9-1.7,8.4l14.6,1.6v2.4l-15-1.6c-0.7,3.3-1.3,6.6-1.7,8.7l16.8,2.6v4.8l-17.8-2.7l-6.6,24.6l24.5-18.5v3.2
				l-24.9,18.8l10,9.9l15-7.2v5.4l-11.3,5.4l8.4,8.2l2.9-1.4v2.8L335,382l1.1,1.1v3.7L322.2,373l-29.1,14l42.8,6.2v8l-11.3-1.6
				l-5.4,26.2L336,429v2.4l-17.2-3.3l-3.2,15.5c7.2,1.1,14.1,2.2,20.4,3.2v4.8l-13.6-2.1L318,474l13.3,2.2l4.6-15.6v10.2l-1.7,5.9
				l1.7,0.3v4.8l-18.7-3.1l-2.6,14.4l21.3,3.4v2.3l-21.7-3.5l-3.1,17.6l24.8,3.4v4.8l-25.6-3.5l-3,17.3l28.7,3.2v4.7l-12.5-1.4
				l-3.2,16.9l13.3-3.1l2.3-9.9v24.3h-5.6l2.1-9.2c-7,1.7-18.6,4.4-30.4,7.2l0.3,2.1h-5.8l-0.1-0.7c-1.1,0.3-2.1,0.5-3.2,0.7h-20.7
				l23.8-5.5l2.1-12.2l-38.4,9.6l4.9,8.1h-10.8l-11.4-18.9l-8.8,1.9c1.3,2.9,4.6,10.7,7.3,16.9L238.3,569.6L238.3,569.6z
				 M302.4,562.5l14.9-3.5l3.3-17.9l-14.1-1.6L302.4,562.5z M68.2,544.1l1.5,16.5l43.6-6l-2.9-14.2L68.2,544.1z M253.7,551l5.1,8.3
				l14.5-3.7l-2.7-8.5L253.7,551z M152.9,551.5l19.1,5.9l4.4-9l-20.1-3.8C155.3,546.9,154.1,549.2,152.9,551.5L152.9,551.5z
				 M273.4,546.4l2.7,8.5l22.9-5.7l1.6-9.1L273.4,546.4z M220.9,535.7l-2.4,17.9l23.1-5.1l-8.5-14.1L220.9,535.7z M182.3,544.8
				l16.5,3.1l5.2-11.7l-10.4-3.5L182.3,544.8z M243.6,534.1l7.6,12.6l50.3-11.6l1.5-8.5l-50.9-5.9L243.6,534.1z M158.3,540.2l20.9,4
				l12.2-13L179.6,515l-12-0.3C165.1,523.3,162,531.8,158.3,540.2L158.3,540.2z M66.6,526.6l1.1,12.8l41.7-3.7l-2.4-11.9L66.6,526.6
				z M211.1,534.4l20.6-2.2l-6.9-11.3c-2.2,0.6-4.4,0.9-6.7,0.9c-0.5,0-0.9,0-1.4,0L211.1,534.4z M195.5,530.8l9.6,3.2l5.9-13.2
				c-1.6-0.4-3.1-1-4.5-1.8L195.5,530.8z M233,516.8l8.9,14.7l13.5-21.5l-16.5-2.3C238.1,511.2,236.1,514.3,233,516.8L233,516.8z
				 M113.6,527.5l42.7,2.6c2.6-6.6,4.4-12,5.5-15.6l-51-1.2L113.6,527.5z M193.4,529.2l10.9-11.6c-0.9-0.6-1.8-1.3-2.6-2.1
				l-18.6-0.4L193.4,529.2z M66.5,524.3l40.1-2.8l-1.7-8.2l-39.5-0.9L66.5,524.3z M282.1,521.7l21.3,2.5l1.3-7.4l-20.5-2.8
				L282.1,521.7z M253.4,518.4l25.8,3l2.2-7.8l-23-3.1L253.4,518.4z M206.6,504.7c0,5.1,5.1,9.3,11.5,9.3s11.5-4.2,11.5-9.3
				c0-5.1-5.1-9.3-11.5-9.3l0,0C211.8,495.4,206.6,499.6,206.6,504.7L206.6,504.7z M272.9,507.7l32.6,4.5l1.6-9.1l-32.2-4.9
				L272.9,507.7z M183.1,507.2l14.3,0.3c-0.2-0.9-0.3-1.9-0.3-2.8s0.1-1.8,0.3-2.7l-12.1-4.7L183.1,507.2z M158.6,496.5l-1.6,10.1
				l23.1,0.5l2.4-10.9l-18.3-7.1L158.6,496.5z M236.8,496.8c1.3,1.9,2.1,4,2.3,6.2l28.1,3.9l6.5-29.7L236.8,496.8z M110.9,505.6
				l43.3,1l1.5-9.5l-41-7.2L110.9,505.6z M66.5,504.5l38.5,0.9l1.4-6l-36.9-3.1L66.5,504.5z M275.4,495.8l32.1,4.9l1.2-6.9
				l-30.1-12.6L275.4,495.8z M89.9,495.6l17.1,1.5l6.6-27.8l-14.2-5.5L89.9,495.6z M70.3,494l16.6,1.4l9.7-32.7l-13.2-5.2L70.3,494z
				 M140.9,492.1l15.6,2.7l5.1-6.8l-14.3-5.5L140.9,492.1z M232.4,492.2c1,0.8,2,1.7,2.8,2.6l39.1-20.8l0.5-2.3l-32.2-5.3
				L232.4,492.2z M173.5,484.1l27.5,10.7c1.8-2,4.2-3.7,6.9-5l-4.5-14.6L173.5,484.1z M115.1,487.5l22.9,4l6.7-10.1l-25.7-10
				L115.1,487.5z M279.2,478.8l30,12.6l2.4-13.7l-31-5.1L279.2,478.8z M207,454.9l10.2,32.7h0.9c2,0,3.9,0.2,5.8,0.7l11.4-28.8
				l-5.2-10.3L207,454.9z M154.3,476.5l15.6,6.1l19.9-5.9l-3.8-10.9L154.3,476.5z M183.1,448.5l9.4,27.4l10.2-3l-8.7-27.8
				L183.1,448.5z M127,465.9l23.8,9.3l11.2-3.7l-9.5-13.4L127,465.9z M281.5,468l30.9,5.1l4.4-24.5l-29.9-4.7L281.5,468z
				 M155.2,457.1l9.4,13.4l20.6-7l-4.9-14.2L155.2,457.1z M244.4,461.9l31.4,5.2l5.3-24.1l-27.5-4.3L244.4,461.9z M106.3,457.8
				l13.4,5.2l28.1-8.7l-32.6-18.1L106.3,457.8z M221.6,425.9l15,30l17.1-43.3L221.6,425.9z M73.5,445l27.6,10.7l9-21.9l-28.9-10.7
				L73.5,445z M136.3,425.2l-3.4,18l18.3,10.2l11.1-3.4l8.8-36.2c-7.8-2.2-16.8-4.8-24.7-7L136.3,425.2z M195.6,418.1l10.8,34.5
				l22.7-5.7l-16.4-32.7L195.6,418.1z M165.4,448.9l27.2-8.4l-7.1-22.6c-2.9-0.8-7.1-2-11.8-3.3L165.4,448.9z M290.7,439.7
				c7.2,1.1,14.7,2.3,22,3.4l9.1-44l-4.7-0.7L290.7,439.7z M116.2,434l14,7.8l3-15.8l-13.2-1.3L116.2,434z M255.4,434.2
				c6.5,1,18.6,2.9,32.3,5l2-3.1l-27.2-20L255.4,434.2z M278.2,424.5L291,434l23.1-35.9l-14.7-2.2L278.2,424.5z M82,420.9l29.1,10.8
				l3.3-8.1l-29.8-10.1L82,420.9z M215.2,413l5.4,10.8l33.9-14l-30.4-6.3L215.2,413z M121.1,422.5l12.9,1.2l9.5-17.7
				c-6-1.7-11.2-3.2-14.1-4L121.1,422.5z M263.5,413.7l12.5,9.2l20.3-27.5l-24.3-3.5L263.5,413.7z M100.5,413.8l15.8,5.3l7.7-18.6
				l-15.7-3.9L100.5,413.8z M194.8,415.8l17.8-4.1l8.3-8.9l-32.2-6.7L194.8,415.8z M156.6,407.2l28.1,8l-6.6-21.3l-16-3.9
				L156.6,407.2z M86.2,409l11.6,3.9l15.7-34.5l-15.3-3.7L86.2,409z M130.3,399.8l23.5,6.7l5.4-17.1l-22.4-5.4L130.3,399.8z
				 M246.4,403.3l10.2,2.1l5.2-13l-10.7-2.9L246.4,403.3z M94.7,337.9l-24.9,61.7l11.7,5.3l23.8-67.9L94.7,337.9z M228.3,399.6
				l15.3,3.2l4.7-14l-13-3.5L228.3,399.6z M210.1,370.7l-10.7,5l6.7,19.3l16.5,3.4l14.6-29.6L210.1,370.7z M109.3,394.4
				c3.3,0.8,11.3,2.9,15.6,3.9l6.5-15.7l-15.1-3.6L109.3,394.4z M184.5,382.6l2.6,8.4l15.8,3.3l-6-17.4L184.5,382.6z M236.4,383.1
				l26.3,7.1l8.4-21.3l-23.9-7.7L236.4,383.1z M150.9,382.5l25.5,6.1l-6.4-20.3L150.9,382.5z M275.1,384.4l9.4,1.4l18.1-8.7
				c0.9-3.3,2.8-10.3,4.8-18l-20.7-4L275.1,384.4z M122.1,348l-7.4,25.7l32.9,7.9l21.7-16l-5.8-18.6L122.1,348z M178.3,362.9
				l5.4,17.4l23.7-11.1c-2.8-3.1-11.1-12-13.7-14.8L178.3,362.9z M306,375.4l12.6-6l-8.7-8.5L306,375.4z M99.8,370.2l12.1,2.9
				l4.7-16.5l-11.1-2.9L99.8,370.2z M196.2,353.1l14.1,15.2l28.1-1.9l0.5-1.1l-28.7-19.8L196.2,353.1z M248.2,359l23.8,7.6l5.4-13.8
				l-22.9-6.7L248.2,359z M228.9,355.3l11.2,7.7l9.3-18.9l-7-4.1L228.9,355.3z M175.6,354.1l2,6.4l14.5-7.9l-5.1-5.2L175.6,354.1z
				 M287.6,352.9l20.4,3.9c2.9-10.7,6-22.2,7.3-27l-17.5-2.6L287.6,352.9z M111.6,336.6l-5.2,14.8l11,2.9l5.3-18.5L111.6,336.6z
				 M203.5,337.8l23.2,15.9l13.3-15.3l-18.8-11L203.5,337.8z M189.3,346c1.6,1.7,3.9,4,5.1,5.2l13.4-7.4l-6.9-4.7L189.3,346z
				 M255.6,344l22.7,6.7l3.5-8.9c-4.6-1.8-12.5-5.2-20.7-9L255.6,344z M164.8,319.4l9.2,29.7l25.6-14.9l-7.1-19.1L164.8,319.4z
				 M125.7,335.6l-2.9,10.1l39.9-1l-3.6-11.7L125.7,335.6z M223.7,326l26.8,15.7l5.6-11.3c-6.8-3.3-13.3-6.7-17.8-9.9
				c-0.8-0.6-1.5-1.1-2.2-1.8L223.7,326z M240.6,315.9c0.4,0.4,0.9,0.8,1.4,1.1c10.1,7,31.9,16.3,41.6,20.3l6.4-16.2l-26.1-21.4
				L240.6,315.9z M107.3,300.9l4.5,31l13.5-1.1l-5.1-31.4L107.3,300.9z M199.5,317.4l5.2,13.9l13.1-7.6l-5.4-11.3L199.5,317.4z
				 M128.2,330.6l29.4-2.2l-1.4-4.6l-30.5-8.6L128.2,330.6z M77,289.7l1.1,14l27.5,25.5l-6.2-41.8L77,289.7z M299.6,322.6l16.8,2.6
				l3.9-19.4l-13.2-2.2L299.6,322.6z M205.6,291.8l14.5,30.5l12.5-7.3c-7.6-9.3-13.7-24.7-17-34.1L205.6,291.8z M123.1,299l2.2,13.5
				l30.1,8.5l-7.8-25L123.1,299z M153.2,282.1l10.9,35l27.7-4.4l-12.4-33.3L153.2,282.1z M268.3,296.6L292,316l10.2-25.9l-15.4-6.4
				L268.3,296.6z M194.5,304l4.1,11.1l12.7-4.9l-7.7-16.2L194.5,304z M228,296.5c2.7,5.8,5.8,11.5,9.1,15.6l9.1-6.3l-8.1-12.5
				L228,296.5z M240.9,292.4l7.6,11.8l11.2-7.8l-9.8-6.8L240.9,292.4z M185.2,279l8.3,22.2l21.2-23.3c-0.2-0.7-0.4-1.3-0.6-1.9
				L185.2,279z M105.3,286.9l1.7,11.7l39.9-4.8l-3.4-10.7L105.3,286.9z M257.4,271.8l-5.6,16l10.2,7l32.2-22.3
				c-0.9-1.3-1.6-2.7-2.1-4.1L257.4,271.8z M219.8,275.6c1.4,4.3,4,11.5,7.2,18.7l22-6.9l5.3-15.3L219.8,275.6z M289.2,282.1
				l13.9,5.8l3-7.5c-3.2-0.8-6.1-2.2-8.5-4.1L289.2,282.1z M74,271.9l2,10l21.9-2.2l-3-10.5C90.5,269.8,81.7,270.9,74,271.9z
				 M103.6,279.2l39.4-3.9l-1.5-4.7l-40.9-1.5L103.6,279.2z M152.3,274.3l24.2-2.4L161.8,253L152.3,274.3z M301,264
				c0,5.1,5.1,9.3,11.5,9.3c6.3,0,11.5-4.2,11.5-9.3c0-5.1-5.1-9.3-11.5-9.3l0,0C306.1,254.7,301,258.9,301,264L301,264z
				 M163.8,251.1l15.8,20.6l9.3-0.9L189,248L163.8,251.1z M147.6,270.9l14.7-32.6l-27.6-7.9L147.6,270.9z M191.9,247.6l-0.1,22.9
				l30.9-3l-3.3-23.3L191.9,247.6z M71.5,259.5l2,10l20.7-2.6l-2.8-9.6L71.5,259.5z M112.3,240l6,27.4l22.5,0.8l-9.5-29.6L112.3,240
				z M92.7,241.5l7.2,25.1l15.3,0.6l-5.9-27L92.7,241.5z M224.1,257.4l1.4,9.7l17.4-1.7l-1.8-9.7L224.1,257.4z M244.1,241l4.6,23.8
				l19.7-1.9l-4.6-24.4L244.1,241z M266.6,238.2l4.7,24.4l20.6-2c0.9-3.5,3.2-6.7,6.4-9.1l-9.7-16L266.6,238.2z M68.3,243.4
				l2.7,13.7l19.6-2.1l-3.7-13L68.3,243.4z M222.2,243.8l1.6,11.3l16.8-1.6l-2.2-11.7L222.2,243.8z M279.1,202.1l27.6,45.5
				c0.2,0,0.3,0,0.4-0.1l-7.4-48.2L279.1,202.1z M305.5,198.5l7.4,48.4c0.7,0,1.4,0.1,2.1,0.1l11.7-51.4L305.5,198.5z M164.9,246.2
				l24.8-3.1l10.3-29.9l-17.7-5.4L164.9,246.2z M192.8,242.7l15.1-1.9l7-23.1l-12.2-3.7L192.8,242.7z M210.9,240.5l22.6-2.9
				l-2.3-14.8l-13.7-4.2L210.9,240.5z M88.4,226.7l1.8,10.3l39.6-3.1l-4.3-13.3L88.4,226.7z M237.9,227.5l1.5,9.3l46.5-5.9l-6-9.9
				L237.9,227.5z M149.1,232.1l14.2,4.1l6-13.4l-15.2-5.1L149.1,232.1z M133.8,227.7l12.6,3.6l5.1-14.6l-23.7-8L133.8,227.7z
				 M232.4,192.9l5.1,32.3l19-2.9c-2.2-5.2-10.5-25.2-13.3-31.8L232.4,192.9z M111.5,208.2c-6.6,3.4-15.1,6-24.9,7.9l1.4,8.3
				l36.8-5.9l-5-15.5C117.2,204.9,114.4,206.7,111.5,208.2z M246.1,189.8l13.3,32.1l19.2-3l-19.4-32.1L246.1,189.8z M154.9,215.3
				l15.4,5.2l9.7-21.7l-17.7-5L154.9,215.3z M203.6,211.8l27.2,8.4l-2.2-14.3l-18.6-5.5L203.6,211.8z M124.6,199.1l2.2,6.8l25.5,8.5
				l7.4-21.3l-23.1-6.5C133,191.1,129,195.2,124.6,199.1z M183.2,205.5l17.7,5.5l7-12.4l3.5-9.4l-18.7-4.7L183.2,205.5z
				 M211.1,198.2l17.1,5l-1.6-10.4l-12.4-3.1L211.1,198.2z M104.1,191.4l7.9,10.8c2.9-1.8,5.6-3.8,8.1-6l-2.3-11.4L104.1,191.4z
				 M164.2,189.4l17.9,5l3.7-8.2l-17.2-5.8L164.2,189.4z"/>
		</g>
	</g>
</g>
<rect id="Rectangle_586_1_" x="71.3" y="351" class="st8" width="258.4" height="66.5"/>
<g>
	<text transform="matrix(1.2354 0 0 1 90.6011 370.0215)" class="st1 st9 st10">To Aquarium</text>
	<text transform="matrix(1.2354 0 0 1 154.2241 370.0215)" class="st1 st11 st10"> </text>
	<text transform="matrix(1.2354 0 0 1 158.5479 370.0215)" class="st1 st9 st10">Museum</text>
	<text transform="matrix(1.2354 0 0 1 199.4395 370.0215)" class="st1 st11 st10"> .</text>
	<text transform="matrix(1.2354 0 0 1 90.6011 385.542)" class="st1 st9 st12">6003 Ålesund</text>
	<text transform="matrix(1.2354 0 0 1 144.9585 385.542)" class="st1 st13 st12"> </text>
	<text transform="matrix(1.2354 0 0 1 90.6011 400.2324)" class="st1 st9 st14">Arrival time: 9:56 AM</text>
	<g>
		<g>
			<defs>
				<rect id="SVGID_4_" x="535.5" y="939.1" width="25.6" height="20.7"/>
			</defs>
			<clipPath id="SVGID_5_">
				<use xlink:href="#SVGID_4_"  style="overflow:visible;"/>
			</clipPath>
			<g id="Symbol_101_2" transform="translate(279 571)" class="st15">
				<rect id="Rectangle_67" x="-22.5" y="-202.9" class="st1" width="25.6" height="20.7"/>
				<g>
					<g>
						<defs>
							<rect id="SVGID_6_" x="-2.8" y="-184.7" width="10.2" height="8.3"/>
						</defs>
						<clipPath id="SVGID_7_">
							<use xlink:href="#SVGID_6_"  style="overflow:visible;"/>
						</clipPath>
						<g id="Symbol_24_4" transform="translate(12 12)" class="st16">
							<path id="Path_10" class="st8" d="M-21.7-208.7l-0.9,0.8l3.5,2.9h-7.7v1.1h7.7l-3.5,2.9l0.9,0.8l5.1-4.1L-21.7-208.7z"/>
						</g>
					</g>
				</g>
			</g>
		</g>
	</g>
</g>
<g id="route" transform="translate(0 96)">
	<path id="Path_157" class="st17" d="M129.8,105l35.6-4.6l24.2,66.4l20.3-7.2l31.7,22.8l24.2-10.9"/>
	<g id="Ellipse_169" transform="translate(286 273)">
		<ellipse class="st1" cx="-19.9" cy="-101.5" rx="5.1" ry="4.1"/>
		<ellipse class="st18" cx="-19.9" cy="-101.5" rx="4.8" ry="3.9"/>
	</g>
	<g id="Ellipse_170" transform="translate(73 144)">
		<ellipse class="st8" cx="57.4" cy="-38.9" rx="5.8" ry="4.7"/>
		<ellipse class="st19" cx="57.4" cy="-38.9" rx="4.8" ry="3.9"/>
	</g>
</g>
<text transform="matrix(1 0 0 1 181.813 436.7637)" class="st13 st20"> </text>
<g>
	<rect id="Rectangle_586_2_" x="144.3" y="446.7" class="st8" width="104.3" height="26.9"/>
	<text transform="matrix(1 0 0 1 169.1179 465.2314)" class="st9 st21">BOOK TOUR </text>
</g>
<ellipse class="st22" cx="273.8" cy="206.5" rx="10.5" ry="11.2"/>
<g>
	<line class="st5" x1="273.8" y1="197.5" x2="273.8" y2="215.6"/>
	<line class="st5" x1="282.2" y1="206.5" x2="265.3" y2="206.5"/>
</g>
<g>
	<line class="st5" x1="279.5" y1="200.3" x2="267.8" y2="212.8"/>
	<line class="st5" x1="279.7" y1="212.8" x2="268.2" y2="200.5"/>
</g>
<g>
	<line class="st23" x1="279.7" y1="199.7" x2="273" y2="206.9"/>
	<line class="st23" x1="273.8" y1="205.4" x2="273.8" y2="215.5"/>
	<line class="st23" x1="274.3" y1="206.8" x2="267.8" y2="199.8"/>
</g>
<text transform="matrix(0.8487 0 0 1 286.7373 216.1274)" class="st9 st24 st25">CLE</text>
<text transform="matrix(0.8487 2.338704e-03 -2.396998e-03 1 220.7687 216.109)" class="st9 st24 st25">RE</text>
<text transform="matrix(0.8487 0 0 1 252.1445 216.1274)" class="st9 st24 st26">c</text>
<path class="st27" d="M246.2,213c-0.9-0.6-2.1-0.2-2.6,0.8l0,0c-0.5,1-0.7,5.7-0.7,5.7s3.5-2.7,4.1-3.7
	C247.4,214.8,247.1,213.5,246.2,213L246.2,213z M244.6,216c-0.5-0.3-0.7-1-0.4-1.5s0.9-0.7,1.4-0.4s0.7,1,0.4,1.5l0,0
	C245.7,216.1,245.1,216.3,244.6,216z"/>
<g>
	<g>
		<circle id="Ellipse_166_1_" class="st28" cx="178.1" cy="95.6" r="18"/>
	</g>
	<g>
		<defs>
			<rect id="SVGID_8_" x="172.9" y="90.6" width="10.3" height="10.3"/>
		</defs>
		<clipPath id="SVGID_9_">
			<use xlink:href="#SVGID_8_"  style="overflow:visible;"/>
		</clipPath>
		<g id="Symbol_20_3_1_" transform="translate(228 314)" class="st29">
			<path id="Path_2_1_" class="st1" d="M-53.8-218.9c0-1.8,1.4-3.2,3.2-3.2c0,0,0,0,0.1,0c1.8,0,3.2,1.4,3.2,3.2c0,0,0,0,0,0.1
				c0,1.8-1.4,3.2-3.2,3.2c0,0,0,0-0.1,0C-52.3-215.7-53.8-217.1-53.8-218.9C-53.8-218.9-53.8-218.9-53.8-218.9z M-45.9-213.3
				c0.3,0.2,0.7,0.2,0.9,0c0.2-0.2,0.2-0.6,0-0.9l-2-2c0.6-0.8,0.9-1.7,0.9-2.7c0-2.5-2-4.5-4.4-4.5c0,0,0,0-0.1,0
				c-2.5,0-4.5,2-4.5,4.4c0,0,0,0,0,0.1c0,2.5,2,4.5,4.4,4.5c0,0,0,0,0.1,0c1,0,1.9-0.3,2.7-0.9L-45.9-213.3z"/>
		</g>
	</g>
</g>
<g>
	<g>
		<circle id="Ellipse_160_1_" class="st28" cx="310.4" cy="95.6" r="17.8"/>
	</g>
	<g>
		<defs>
			<rect id="SVGID_10_" x="305.3" y="90.6" width="10.2" height="10.2"/>
		</defs>
		<clipPath id="SVGID_11_">
			<use xlink:href="#SVGID_10_"  style="overflow:visible;"/>
		</clipPath>
		<g id="Messages-2_1_" transform="translate(228 154)" class="st30">
			<rect id="Rectangle_117_1_" x="77.3" y="-63.4" class="st4" width="10.2" height="10.2"/>
			<path id="Path_50_1_" class="st31" d="M86.2-60.8h-7.6l3.8,3.2L86.2-60.8z M77.3-60.8c0-0.7,0.6-1.3,1.3-1.3h7.6
				c0.7,0,1.3,0.6,1.3,1.3v5.1c0,0.7-0.6,1.3-1.3,1.3h-7.6c-0.7,0-1.3-0.6-1.3-1.3V-60.8z"/>
		</g>
	</g>
</g>
<g>
	<g>
		<circle id="Ellipse_159_1_" class="st28" cx="266.1" cy="95.6" r="17.8"/>
	</g>
	<g>
		<defs>
			<rect id="SVGID_12_" x="261" y="90.4" width="10.2" height="10.2"/>
		</defs>
		<clipPath id="SVGID_13_">
			<use xlink:href="#SVGID_12_"  style="overflow:visible;"/>
		</clipPath>
		<g id="Symbol_77_3_1_" transform="translate(148 154)" class="st32">
			<path id="Path_103_1_" class="st31" d="M118.1-53.4c-2.8,0-5.1-2.3-5.1-5.1c0-2.8,2.3-5.1,5.1-5.1c2.8,0,5.1,2.3,5.1,5.1
				C123.2-55.7,120.9-53.4,118.1-53.4z M120.7-61l-2.5,1.1c-0.6,0.3-1.1,0.8-1.5,1.5l-1.1,2.5l2.5-1.1c0.6-0.3,1.1-0.8,1.5-1.5
				L120.7-61z"/>
		</g>
	</g>
</g>
<g>
	<g>
		<circle id="Ellipse_165_1_" class="st28" cx="132.2" cy="95.6" r="18"/>
	</g>
	<g>
		<defs>
			<rect id="SVGID_14_" x="127.1" y="90.6" width="10.4" height="10.3"/>
		</defs>
		<clipPath id="SVGID_15_">
			<use xlink:href="#SVGID_14_"  style="overflow:visible;"/>
		</clipPath>
		<g id="Symbol_78_3_1_" transform="translate(148 314)" class="st33">
			<rect id="Rectangle_193_1_" x="-20.9" y="-223.4" class="st4" width="10.3" height="10.3"/>
			<path id="Path_104_1_" class="st31" d="M-15.4-217c0.7,0,1.3-0.6,1.3-1.3s-0.6-1.3-1.3-1.3c-0.7,0-1.3,0.6-1.3,1.3
				C-16.7-217.6-16.1-217-15.4-217z M-18.1-221.1c0.4-0.4,1-0.7,1.5-0.8l0.5-1.5h1.3l0.5,1.5c0.6,0.2,1.1,0.5,1.5,0.8l1.5-0.3
				l0.6,1.2l-1,1.2c0.1,0.3,0.1,0.6,0.1,0.8c0,0.3-0.1,0.6-0.1,0.8l1,1.2l-0.6,1.2l-1.5-0.3c-0.4,0.4-1,0.7-1.5,0.8l-0.5,1.5H-16
				l-0.5-1.5c-0.6-0.2-1.1-0.5-1.5-0.8l-1.5,0.3l-0.6-1.2l1-1.2c-0.1-0.3-0.1-0.6-0.1-0.8c0-0.3,0.1-0.6,0.1-0.8l-1-1.2l0.6-1.2
				L-18.1-221.1z"/>
		</g>
	</g>
</g>
<g>
	<g>
		<circle id="Ellipse_158_1_" class="st28" cx="221.9" cy="95.6" r="17.8"/>
	</g>
	<g>
		<defs>
			<rect id="SVGID_16_" x="216.8" y="90.4" width="10.2" height="10.2"/>
		</defs>
		<clipPath id="SVGID_17_">
			<use xlink:href="#SVGID_16_"  style="overflow:visible;"/>
		</clipPath>
		<g id="Symbol_76_3_1_" transform="translate(68 154)" class="st34">
			<path id="Path_102_1_" class="st31" d="M148.8-54.7h10.2v1.3h-10.2V-54.7z M148.8-59.1h10.2v3.2h-10.2V-59.1z M153.2-63.6h5.7
				v3.2h-5.7V-63.6z M148.8-63.6h3.2v3.2h-3.2V-63.6z"/>
		</g>
	</g>
</g>
<g>
	<g>
		<circle id="Ellipse_164_1_" class="st27" cx="87.4" cy="95.6" r="18"/>
	</g>
	<g>
		<defs>
			<rect id="SVGID_18_" x="82.3" y="90.6" width="10.3" height="10.3"/>
		</defs>
		<clipPath id="SVGID_19_">
			<use xlink:href="#SVGID_18_"  style="overflow:visible;"/>
		</clipPath>
		<g id="Symbol_113_3_1_" transform="translate(68 314)" class="st35">
			<rect id="Rectangle_305_1_" x="14.3" y="-223.4" class="st4" width="10.3" height="10.3"/>
			<path id="Path_114_1_" class="st31" d="M19.1-217.3c1,0,1.8-0.8,1.8-1.8l0,0c0-1-0.8-1.8-1.8-1.9c-1,0-1.8,0.8-1.8,1.8l0,0
				C17.4-218.2,18.1-217.3,19.1-217.3z M16.1-222.2c1.7-1.7,4.4-1.6,6,0c1.6,1.7,1.6,4.3,0,6l-3,3l-3-3
				C14.5-217.8,14.5-220.5,16.1-222.2z"/>
		</g>
	</g>
</g>
</svg>
