<?xml version="1.0" encoding="utf-8"?>
<!-- Generator: Adobe Illustrator 24.1.0, SVG Export Plug-In . SVG Version: 6.00 Build 0)  -->
<svg version="1.1" id="Layer_1" xmlns="http://www.w3.org/2000/svg" xmlns:xlink="http://www.w3.org/1999/xlink" x="0px" y="0px"
	 viewBox="0 0 1024 768" style="enable-background:new 0 0 1024 768;" xml:space="preserve">
<style type="text/css">
	.st0{fill:#6C63FF;}
</style>
<path class="st0" d="M540.71,295.83c-2.86-2.86-9.75-7.19-13.17-8.8c-3.94-1.89-5.39-1.86-8.18,0.16c-2.32,1.65-3.83,3.24-6.49,2.65
	c-2.67-0.58-7.95-4.57-13.06-9.66c-5.11-5.1-9.08-10.35-9.65-13.06s1-4.18,2.66-6.5c2.01-2.79,2.07-4.24,0.16-8.18
	c-1.65-3.42-5.92-10.29-8.81-13.17c-2.89-2.88-3.51-2.25-5.1-1.65c-1.63,0.68-3.19,1.51-4.67,2.47c-2.86,1.92-4.47,3.51-5.6,5.92
	c-1.13,2.4-2.4,6.87,4.16,18.55c4.84,8.94,10.97,17.11,18.19,24.26l0,0l0,0c7.17,7.24,15.38,13.38,24.34,18.23
	c11.67,6.59,16.14,5.28,18.55,4.16c2.4-1.12,4-2.71,5.91-5.6c0.96-1.48,1.79-3.04,2.47-4.67
	C542.96,299.35,543.6,298.7,540.71,295.83z"/>
</svg>
