<?xml version="1.0" encoding="utf-8"?>
<!-- Generator: Adobe Illustrator 25.0.1, SVG Export Plug-In . SVG Version: 6.00 Build 0)  -->
<svg version="1.1" id="ad9423e7-66ce-4b08-b1ae-b4bb4484fd7f"
	 xmlns="http://www.w3.org/2000/svg" xmlns:xlink="http://www.w3.org/1999/xlink" x="0px" y="0px" viewBox="0 0 910.9 727.5"
	 style="enable-background:new 0 0 910.9 727.5;" xml:space="preserve">
<style type="text/css">
	.st0{fill:#E6E6E6;}
	.st1{fill:#6C63FF;}
</style>
<path class="st0" d="M449,223.5c-92.9,0-168.5,75.6-168.5,168.5c0,23.8,5,47.3,14.8,69c26.4,58.6,85.4,99.5,153.7,99.5
	c93-0.1,168.4-75.5,168.5-168.5C617.5,299,541.9,223.5,449,223.5z M588.4,459.7c-26,53.4-80.1,87.2-139.4,87.3
	c-65.7,0-122-41.1-144.5-98.9c-7-17.9-10.6-36.9-10.5-56.1c0-85.5,69.5-155,155-155s155,69.5,155,155
	C604,415.4,598.7,438.6,588.4,459.7z"/>
<path class="st1" d="M449,561c-65.1-0.1-124.5-37.5-152.5-96.3c-1.1-2.3-0.9-5.1,0.5-7.2l0.1-0.1c2.3-3.3,6.7-4.1,10-1.8
	c1,0.7,1.9,1.7,2.4,2.8c25.6,53.6,80.3,88.2,139.5,88.2c55-0.1,105.9-29.4,133.6-77c1.3-2.2,3.7-3.6,6.3-3.6s4.9,1.4,6.2,3.6
	l0.1,0.1c1.3,2.2,1.3,5,0,7.2C564.7,528.8,509.1,560.8,449,561z"/>
<path class="st0" d="M411,407.4c10.9-0.1,19.8,8.7,19.9,19.6s-8.7,19.8-19.6,19.9s-19.8-8.7-19.9-19.6c0-5.3,2-10.4,5.8-14.1
	C400.8,409.5,405.8,407.4,411,407.4 M411,398.9c-15.5,0-28.1,12.6-28.1,28.1s12.6,28.1,28.1,28.1s28.1-12.6,28.1-28.1l0,0
	C439.1,411.5,426.5,399,411,398.9L411,398.9z M469.5,358.8c5.3,0,9.6-4.2,9.6-9.5v-0.1c0-5.2-4.2-9.5-9.4-9.6l0,0
	c-0.1,0-0.1,0-0.2,0c-5.3,0-9.6,4.2-9.7,9.5s4.2,9.6,9.5,9.7C469.5,358.8,469.5,358.8,469.5,358.8L469.5,358.8z M489.7,407.4
	c10.9-0.1,19.8,8.7,19.9,19.6s-8.7,19.8-19.6,19.9s-19.8-8.7-19.9-19.6c0-5.3,2-10.4,5.8-14.1C479.5,409.5,484.4,407.4,489.7,407.4
	 M489.7,398.9c-15.5,0-28.1,12.6-28.1,28.1s12.6,28.1,28.1,28.1s28.1-12.6,28.1-28.1l0,0C517.7,411.5,505.2,398.9,489.7,398.9
	L489.7,398.9z"/>
<path class="st0" d="M484,378.1h-14.4l-8.9-18.1c-2.6-4.5-8.3-6.1-12.8-3.6c-0.8,0.4-1.5,1-2.1,1.6l-21.6,20.8
	c-1.8,1.8-2.8,4.2-2.8,6.7c0,5.2,3.8,7.1,5.6,8.2c13.7,7.9,18.5,8.8,18.5,12.7v19.8c0,2.7,2.2,4.8,4.8,4.8c2.7,0,4.8-2.2,4.8-4.8
	l0,0v-27.1c0-4-9.1-7.2-14.5-11.4l14.7-15.5c5.6,8.6,8.2,15.5,11.4,15.5H484c2.7,0,4.8-2.1,4.8-4.8
	C488.9,380.3,486.7,378.1,484,378.1L484,378.1L484,378.1z"/>
</svg>
