<?xml version="1.0" encoding="utf-8"?>
<!-- Generator: Adobe Illustrator 24.1.0, SVG Export Plug-In . SVG Version: 6.00 Build 0)  -->
<svg version="1.1" id="Layer_1" xmlns="http://www.w3.org/2000/svg" xmlns:xlink="http://www.w3.org/1999/xlink" x="0px" y="0px"
	 viewBox="0 0 1024 768" style="enable-background:new 0 0 1024 768;" xml:space="preserve">
<style type="text/css">
	.st0{fill:#6C63FF;}
</style>
<path class="st0" d="M204.61,212.39c-10.71,0-19.39,8.68-19.39,19.39c0,0,0,0,0,0c0,10.71,20.32,50.22,20.32,50.22
	S224,242.5,224,231.79C224,221.08,215.32,212.39,204.61,212.39C204.61,212.39,204.61,212.39,204.61,212.39z M204.61,244.71
	c-5.61,0-10.16-4.55-10.16-10.16s4.55-10.16,10.16-10.16s10.16,4.55,10.16,10.16l0,0C214.77,240.17,210.22,244.71,204.61,244.71z"/>
</svg>
